<?xml version="1.0" encoding="UTF-8"?>
<svg xmlns="http://www.w3.org/2000/svg" viewBox="0 0 126.1789 133.8261">
  <defs>
    <style>
      .cls-1 {
        fill: #f49819;
      }

      .cls-2 {
        fill: #fff;
      }

      .cls-3 {
        isolation: isolate;
      }

      .cls-4 {
        fill: #1d1d1b;
        mix-blend-mode: multiply;
        opacity: .5;
      }
    </style>
  </defs>
  <g class="cls-3">
    <g id="Capa_2" data-name="Capa 2">
      <g id="Capa_5" data-name="Capa 5">
        <g>
          <rect class="cls-4" width="126.1789" height="133.8261" rx="9.3913" ry="9.3913"/>
          <g>
            <path class="cls-2" d="M55.1744,60.8379l6.0743-25.177c.1489-.3627.4264-.5733.7858-.705.6691-.2451,3.8036-.2411,4.6197-.152,1.4124.1542,1.4977,1.4603,1.7903,2.5825,2.021,7.7512,3.5392,15.6489,5.5009,23.417l.2123.3332,5.8735-22.9959c.4401-1.2145.4121-3.1327,2.041-3.3256.9162-.1085,3.2528-.1185,4.166-.0132.5716.0659.7227.4133.7507.946-3.0681,10.386-6.2702,20.7846-9.7055,31.0463-.2994.4252-.771.6475-1.2851.7027-.9583.1028-3.1097.0948-4.075-.0018-.6425-.0643-1.0804-.3166-1.3978-.8881l-5.9585-24.5485c-.221.3421-.2816.8149-.3801,1.2099-1.7416,6.9882-3.2028,14.059-5.0061,21.03-.2105.8138-.4681,2.5169-1.2322,2.9417-.6558.3646-3.651.3225-4.5194.2603-1.6367-.1172-1.7746-.8841-2.2342-2.2381-3.1611-9.312-5.4869-18.9387-8.5962-28.2722-.1856-.7443-.6609-2.0534.4947-2.1882.8883-.1036,3.4931-.1082,4.3672.0108.5905.0804,1.012.4052,1.2389.9476l6.4746,25.0774Z"/>
            <path class="cls-1" d="M8.4305,77.3525c.1337-.0231.2146-.0174.3457.0007.5937.0823,2.7705,1.5062,3.4883,1.8857,29.1163,15.3893,63.9843,17.2308,94.3723,4.1807,1.5973-.2667,2.6665,1.3166,1.5168,2.6085-.7389.8303-3.4166,2.4242-4.481,3.0725-13.2571,8.0741-30.6989,11.734-46.1625,10.7887-17.1004-1.0454-35.0429-8.0688-47.8641-19.424-.4287-.3797-1.8066-1.5166-1.8819-1.995-.0845-.5364.0912-1.0185.6664-1.1179Z"/>
            <path class="cls-2" d="M32.7085,44.7907c-.5996-6.7961-7.6753-6.4698-12.7448-5.0892-1.2851.35-3.4216,1.4155-4.5098,1.5532-.4675.0591-.8976-.0398-1.0143-.5589-.1001-.4455-.0802-2.5513-.0121-3.0507.1254-.9207,1.0003-1.2743,1.7447-1.6344,3.2824-1.5873,7.6899-2.2924,11.3218-2.1048,15.2143.7857,10.3706,14.6958,11.3781,24.9944.1399,1.4299.4259,2.3887.9757,3.6949.3359.7982,1.1902,1.7786.6998,2.6527-.2129.3795-2.4468,1.8768-2.9378,2.1301-.2707.1396-.6431.3229-.9522.2954-1.0524-.0935-2.182-1.9485-2.6739-2.7933-.1506-.2586-.6949-1.6152-.9262-1.5571-3.1865,3.9869-8.5744,5.7761-13.5728,4.7233-8.7122-1.8351-9.7875-13.796-2.4125-18.1188,4.6805-2.7434,10.5952-1.8441,15.6363-.7149-.0925-1.4304.1246-3.0094,0-4.4219ZM25.0342,52.521c-4.0503.2727-6.6922,2.0937-6.3448,6.4829.533,6.7344,10.4509,5.0502,13.1048.6723.8921-1.4716,1.23-4.3602,1.019-6.047-.0146-.1164.0093-.2107-.1024-.2951-.1393-.1051-2.2948-.4803-2.6505-.5302-1.5791-.2215-3.4385-.3899-5.026-.283Z"/>
            <path class="cls-2" d="M97.0562,40.4039c-1.8022,1.8294-1.0569,4.7306,1.0283,6.0067,5.2636,3.2214,14.4968,2.3287,15.7081,10.3316,1.043,6.8909-4.7687,11.0013-10.9576,11.6473-3.0298.3162-10.2527-.4409-12.5742-2.5318-.8477-.7635-.8132-2.5949-.6833-3.6662.0966-.7966.5001-1.0589,1.2856-.91.9526.1806,2.3492.9565,3.398,1.2728,3.7072,1.1183,13.1608,2.1628,13.4985-3.5501.1586-2.6827-1.85-3.7197-4.0272-4.5269-5.1566-1.912-11.6645-2.3189-13.4423-8.6219-2.2515-7.9824,5.7437-12.3592,12.6494-12.049,1.9865.0892,7.7536,1.0114,8.8136,2.8154.3606.6138.4491,3.2364.0665,3.7846-.5314.7615-2.247-.3027-2.9184-.5362-3.03-1.0537-9.3616-1.9874-11.8451.5337Z"/>
            <path class="cls-1" d="M109.768,95.3951c-.1482-.1479-.1488-.5904-.1001-.7972,1.2052-3.1402,2.6448-6.3864,3.3259-9.6934.306-1.4859.9119-3.9454-.6966-4.8065-2.3376-1.2515-8.6861-.5408-11.4482-.2791-.6045.0573-2.5252.4887-2.9301.1457-.9861-.8353,1.8993-2.3475,2.4442-2.6189,4.1585-2.0707,12.3422-3.0952,16.6638-1.2802,1.5608.6555,1.4469,1.9802,1.3696,3.5081-.2444,4.8313-3.1498,12.0962-6.9099,15.2514-.3647.3061-1.2491,1.0383-1.7186.5699Z"/>
          </g>
        </g>
      </g>
    </g>
  </g>
</svg>