<svg width="18" height="17" viewBox="0 0 18 17" fill="none" xmlns="http://www.w3.org/2000/svg">
<ellipse opacity="0.64" cx="3.40456" cy="3.39735" rx="3.40456" ry="3.39735" transform="matrix(-0.740026 -0.672579 0.698135 -0.715966 5.03906 17)" fill="url(#paint0_linear_699_464)"/>
<path opacity="0.17" d="M3.75947 9.37302C5.30799 8.75145 7.08523 9.4595 7.72906 10.9545C8.37288 12.4495 7.63947 14.1653 6.09095 14.7869C4.54243 15.4085 2.76519 14.7004 2.12137 13.2054C1.47754 11.7104 2.21095 9.99459 3.75947 9.37302Z" fill="#6D65FF"/>
<ellipse cx="0.285057" cy="0.292215" rx="0.285057" ry="0.292215" transform="matrix(-0.395531 -0.918453 0.928029 -0.372508 3.16016 11.2776)" fill="white"/>
<ellipse opacity="0.64" cx="3.40456" cy="3.39735" rx="3.40456" ry="3.39735" transform="matrix(-0.740026 -0.672579 0.698135 -0.715966 9.14746 16.9998)" fill="url(#paint1_linear_699_464)"/>
<path opacity="0.17" d="M7.86787 9.37277C9.41639 8.7512 11.1936 9.45926 11.8375 10.9543C12.4813 12.4493 11.7479 14.1651 10.1994 14.7867C8.65083 15.4082 6.87359 14.7002 6.22976 13.2052C5.58594 11.7102 6.31934 9.99435 7.86787 9.37277Z" fill="#6D65FF"/>
<ellipse cx="0.285057" cy="0.292215" rx="0.285057" ry="0.292215" transform="matrix(-0.395531 -0.918453 0.928029 -0.372508 7.26855 11.2776)" fill="white"/>
<ellipse opacity="0.64" cx="3.40456" cy="3.39735" rx="3.40456" ry="3.39735" transform="matrix(-0.740026 -0.672579 0.698135 -0.715966 13.2563 17)" fill="url(#paint2_linear_699_464)"/>
<path opacity="0.17" d="M11.9768 9.37302C13.5253 8.75145 15.3025 9.4595 15.9463 10.9545C16.5902 12.4495 15.8568 14.1653 14.3082 14.7869C12.7597 15.4085 10.9825 14.7004 10.3387 13.2054C9.69483 11.7104 10.4282 9.99459 11.9768 9.37302Z" fill="#6D65FF"/>
<ellipse cx="0.285057" cy="0.292215" rx="0.285057" ry="0.292215" transform="matrix(-0.395531 -0.918453 0.928029 -0.372508 11.3774 11.2776)" fill="white"/>
<ellipse opacity="0.64" cx="3.40456" cy="3.39735" rx="3.40456" ry="3.39735" transform="matrix(-0.740026 -0.672579 0.698135 -0.715966 6.40869 13.2222)" fill="url(#paint3_linear_699_464)"/>
<path opacity="0.17" d="M5.12861 5.59494C6.67713 4.97337 8.45437 5.68143 9.0982 7.17643C9.74202 8.67143 9.00862 10.3873 7.46009 11.0088C5.91157 11.6304 4.13433 10.9223 3.49051 9.42734C2.84668 7.93234 3.58009 6.21651 5.12861 5.59494Z" fill="#6D65FF"/>
<ellipse cx="0.285057" cy="0.292215" rx="0.285057" ry="0.292215" transform="matrix(-0.395531 -0.918453 0.928029 -0.372508 4.52979 7.5)" fill="white"/>
<ellipse opacity="0.64" cx="3.40456" cy="3.39735" rx="3.40456" ry="3.39735" transform="matrix(-0.740026 -0.672579 0.698135 -0.715966 11.6909 13.4111)" fill="url(#paint4_linear_699_464)"/>
<path opacity="0.17" d="M10.4113 5.78391C11.9598 5.16234 13.7371 5.87039 14.3809 7.36539C15.0247 8.8604 14.2913 10.5762 12.7428 11.1978C11.1943 11.8194 9.41704 11.1113 8.77322 9.6163C8.1294 8.1213 8.8628 6.40548 10.4113 5.78391Z" fill="#6D65FF"/>
<ellipse cx="0.285057" cy="0.292215" rx="0.285057" ry="0.292215" transform="matrix(-0.395531 -0.918453 0.928029 -0.372508 9.81201 7.68896)" fill="white"/>
<ellipse opacity="0.64" cx="3.40456" cy="3.39735" rx="3.40456" ry="3.39735" transform="matrix(-0.740026 -0.672579 0.698135 -0.715966 9.34326 9.44458)" fill="url(#paint5_linear_699_464)"/>
<path opacity="0.17" d="M8.06367 1.81735C9.61219 1.19578 11.3894 1.90384 12.0333 3.39884C12.6771 4.89384 11.9437 6.60966 10.3952 7.23124C8.84663 7.85281 7.06939 7.14475 6.42557 5.64975C5.78174 4.15475 6.51515 2.43893 8.06367 1.81735Z" fill="#6D65FF"/>
<ellipse cx="0.285057" cy="0.292215" rx="0.285057" ry="0.292215" transform="matrix(-0.395531 -0.918453 0.928029 -0.372508 7.46436 3.72241)" fill="white"/>
<defs>
<linearGradient id="paint0_linear_699_464" x1="3.40456" y1="0" x2="3.40456" y2="6.7947" gradientUnits="userSpaceOnUse">
<stop stop-color="#EDC308"/>
<stop offset="1" stop-color="#DF4014"/>
</linearGradient>
<linearGradient id="paint1_linear_699_464" x1="3.40456" y1="0" x2="3.40456" y2="6.7947" gradientUnits="userSpaceOnUse">
<stop stop-color="#EDC308"/>
<stop offset="1" stop-color="#DF4014"/>
</linearGradient>
<linearGradient id="paint2_linear_699_464" x1="3.40456" y1="0" x2="3.40456" y2="6.7947" gradientUnits="userSpaceOnUse">
<stop stop-color="#EDC308"/>
<stop offset="1" stop-color="#DF4014"/>
</linearGradient>
<linearGradient id="paint3_linear_699_464" x1="3.40456" y1="0" x2="3.40456" y2="6.7947" gradientUnits="userSpaceOnUse">
<stop stop-color="#EDC308"/>
<stop offset="1" stop-color="#DF4014"/>
</linearGradient>
<linearGradient id="paint4_linear_699_464" x1="3.40456" y1="0" x2="3.40456" y2="6.7947" gradientUnits="userSpaceOnUse">
<stop stop-color="#EDC308"/>
<stop offset="1" stop-color="#DF4014"/>
</linearGradient>
<linearGradient id="paint5_linear_699_464" x1="3.40456" y1="0" x2="3.40456" y2="6.7947" gradientUnits="userSpaceOnUse">
<stop stop-color="#EDC308"/>
<stop offset="1" stop-color="#DF4014"/>
</linearGradient>
</defs>
</svg>
