<?xml version="1.0" encoding="UTF-8"?>
<svg xmlns="http://www.w3.org/2000/svg" xmlns:xlink="http://www.w3.org/1999/xlink" viewBox="0 0 758.3478 595.1739">
  <defs>
    <style>
      .cls-1, .cls-2, .cls-3, .cls-4, .cls-5, .cls-6, .cls-7, .cls-8, .cls-9, .cls-10, .cls-11, .cls-12, .cls-13, .cls-14, .cls-15 {
        stroke-miterlimit: 10;
      }

      .cls-1, .cls-2, .cls-5, .cls-6, .cls-9, .cls-16, .cls-12, .cls-17, .cls-18 {
        stroke-width: 2.8346px;
      }

      .cls-1, .cls-2, .cls-6 {
        stroke: #377aa6;
      }

      .cls-1, .cls-19, .cls-10 {
        fill: #38af73;
      }

      .cls-20 {
        fill: #39ae6f;
      }

      .cls-21 {
        fill: #da5841;
      }

      .cls-2 {
        fill: #f7f6f6;
      }

      .cls-22 {
        fill: #161413;
      }

      .cls-3 {
        stroke: #c03736;
        stroke-width: 4.9525px;
      }

      .cls-3, .cls-4, .cls-23, .cls-5, .cls-24, .cls-7, .cls-8, .cls-9, .cls-25, .cls-26, .cls-11, .cls-27, .cls-13, .cls-14, .cls-15 {
        fill: none;
      }

      .cls-3, .cls-24, .cls-25, .cls-26, .cls-11, .cls-27 {
        stroke-linecap: round;
      }

      .cls-28 {
        fill: #032e3e;
      }

      .cls-4, .cls-10, .cls-26 {
        stroke: #285f7d;
      }

      .cls-4, .cls-10, .cls-26, .cls-13, .cls-14 {
        stroke-width: 5.6693px;
      }

      .cls-29 {
        fill: #1d1d1b;
      }

      .cls-30 {
        fill: #29a866;
      }

      .cls-31 {
        fill: #0e2031;
      }

      .cls-32 {
        fill: url(#Degradado_sin_nombre_7-3);
      }

      .cls-32, .cls-23, .cls-24, .cls-33, .cls-25, .cls-16, .cls-26, .cls-27, .cls-17, .cls-34, .cls-35, .cls-18, .cls-36 {
        stroke-linejoin: round;
      }

      .cls-32, .cls-33, .cls-34, .cls-35, .cls-15, .cls-36 {
        stroke: #0e2030;
      }

      .cls-32, .cls-34, .cls-35, .cls-36 {
        stroke-width: 4.7018px;
      }

      .cls-37 {
        fill: url(#Degradado_sin_nombre_67-4);
      }

      .cls-23 {
        stroke-width: 2.1063px;
      }

      .cls-23, .cls-9, .cls-17, .cls-18 {
        stroke: #301a11;
      }

      .cls-38 {
        fill: #2fad6b;
      }

      .cls-39, .cls-40, .cls-41 {
        fill: #fff;
      }

      .cls-5, .cls-25, .cls-16, .cls-13 {
        stroke: #2e1910;
      }

      .cls-24 {
        stroke: #0e2031;
      }

      .cls-24, .cls-33 {
        stroke-width: 3.7615px;
      }

      .cls-6 {
        fill: #2fac66;
      }

      .cls-33 {
        fill: #a3c3e8;
      }

      .cls-7 {
        stroke: #29160f;
      }

      .cls-7, .cls-8 {
        stroke-width: 8.5039px;
      }

      .cls-8 {
        stroke: #38af73;
      }

      .cls-42 {
        fill: #032734;
      }

      .cls-25 {
        stroke-width: 3.045px;
      }

      .cls-43 {
        fill: url(#Degradado_sin_nombre_67-3);
      }

      .cls-44 {
        fill: #c03736;
      }

      .cls-45 {
        fill: #377aa6;
      }

      .cls-46 {
        fill: #e52a22;
      }

      .cls-47 {
        fill: url(#Degradado_sin_nombre_67);
      }

      .cls-48 {
        isolation: isolate;
      }

      .cls-16, .cls-12, .cls-49, .cls-18 {
        fill: #e99a58;
      }

      .cls-50 {
        fill: url(#Degradado_sin_nombre_8-4);
      }

      .cls-51 {
        fill: #2e1910;
      }

      .cls-52 {
        fill: url(#Degradado_sin_nombre_7-4);
      }

      .cls-53 {
        fill: url(#Degradado_sin_nombre_8-3);
      }

      .cls-54 {
        fill: #301a11;
      }

      .cls-55 {
        fill: url(#Degradado_sin_nombre_29-3);
      }

      .cls-56 {
        fill: url(#Degradado_sin_nombre_29-2);
      }

      .cls-57, .cls-17 {
        fill: #29160f;
      }

      .cls-58 {
        fill: #f7e3c7;
      }

      .cls-11 {
        stroke: #ea5039;
        stroke-width: 3.0953px;
      }

      .cls-59 {
        fill: url(#Degradado_sin_nombre_8-5);
      }

      .cls-27 {
        opacity: .97;
        stroke: #fff;
        stroke-width: 2.8211px;
      }

      .cls-27, .cls-41 {
        mix-blend-mode: soft-light;
      }

      .cls-12 {
        stroke: #1d1d1b;
      }

      .cls-60 {
        fill: #2f180f;
      }

      .cls-61 {
        fill: #73bf8f;
      }

      .cls-62 {
        fill: url(#Degradado_sin_nombre_14);
        opacity: .88;
      }

      .cls-62, .cls-63, .cls-64 {
        mix-blend-mode: multiply;
      }

      .cls-65 {
        fill: url(#Degradado_sin_nombre_10);
      }

      .cls-63 {
        opacity: .35;
      }

      .cls-63, .cls-64 {
        fill: #1c3e5f;
      }

      .cls-14 {
        stroke: #6ec9ed;
      }

      .cls-40 {
        mix-blend-mode: hard-light;
        opacity: .63;
      }

      .cls-34 {
        fill: url(#Degradado_sin_nombre_7-5);
      }

      .cls-66 {
        fill: url(#Degradado_sin_nombre_8-2);
      }

      .cls-67 {
        fill: #f5f6f0;
      }

      .cls-35 {
        fill: url(#Degradado_sin_nombre_7);
      }

      .cls-68 {
        fill: #2a9c61;
      }

      .cls-69 {
        fill: #f8e5c7;
      }

      .cls-70 {
        fill: url(#Degradado_sin_nombre_67-2);
      }

      .cls-71 {
        fill: #6ec9ed;
      }

      .cls-64 {
        opacity: .72;
      }

      .cls-72 {
        fill: url(#Degradado_sin_nombre_8);
      }

      .cls-73 {
        fill: url(#Degradado_sin_nombre_29);
      }

      .cls-15 {
        stroke-width: 6.5826px;
      }

      .cls-74 {
        fill: #e73a32;
      }

      .cls-36 {
        fill: url(#Degradado_sin_nombre_7-2);
      }

      .cls-75 {
        fill: url(#Degradado_sin_nombre_12);
      }
    </style>
    <linearGradient id="Degradado_sin_nombre_67" data-name="Degradado sin nombre 67" x1="161.3715" y1="492.1381" x2="393.6498" y2="492.1381" gradientUnits="userSpaceOnUse">
      <stop offset="0" stop-color="#377aa6"/>
      <stop offset="1" stop-color="#1e3767"/>
    </linearGradient>
    <linearGradient id="Degradado_sin_nombre_67-2" data-name="Degradado sin nombre 67" x1="225.1376" y1="388.8557" x2="314.2983" y2="388.8557" xlink:href="#Degradado_sin_nombre_67"/>
    <linearGradient id="Degradado_sin_nombre_67-3" data-name="Degradado sin nombre 67" x1="173.9999" y1="241.0244" x2="361.8696" y2="241.0244" xlink:href="#Degradado_sin_nombre_67"/>
    <linearGradient id="Degradado_sin_nombre_67-4" data-name="Degradado sin nombre 67" x1="393.5024" y1="351.2187" x2="673.7004" y2="351.2187" xlink:href="#Degradado_sin_nombre_67"/>
    <linearGradient id="Degradado_sin_nombre_29" data-name="Degradado sin nombre 29" x1="376.1739" y1="126.913" x2="338.2278" y2="88.967" gradientUnits="userSpaceOnUse">
      <stop offset="0" stop-color="#f5a880"/>
      <stop offset=".522" stop-color="#ec6044"/>
      <stop offset=".8" stop-color="#e7332e"/>
      <stop offset="1" stop-color="#e6322d"/>
    </linearGradient>
    <linearGradient id="Degradado_sin_nombre_29-2" data-name="Degradado sin nombre 29" x1="524.5413" y1="110.053" x2="492.7147" y2="78.2263" xlink:href="#Degradado_sin_nombre_29"/>
    <linearGradient id="Degradado_sin_nombre_12" data-name="Degradado sin nombre 12" x1="-11.7852" y1="10665.9219" x2="270.0207" y2="10665.9219" gradientTransform="translate(-7936.1896 7020.1561) rotate(49.2311) scale(1 -1)" gradientUnits="userSpaceOnUse">
      <stop offset="0" stop-color="#f5a880"/>
      <stop offset=".17" stop-color="#ec6044"/>
      <stop offset=".34" stop-color="#e84237"/>
      <stop offset=".58" stop-color="#e73631"/>
      <stop offset=".8" stop-color="#e7332e"/>
      <stop offset="1" stop-color="#e6322d"/>
    </linearGradient>
    <linearGradient id="Degradado_sin_nombre_8" data-name="Degradado sin nombre 8" x1="149.0176" y1="10615.2822" x2="192.0793" y2="10615.2822" gradientTransform="translate(-7936.1896 7020.1561) rotate(49.2311) scale(1 -1)" gradientUnits="userSpaceOnUse">
      <stop offset="0" stop-color="#f5a880"/>
      <stop offset="1" stop-color="#e94b34"/>
    </linearGradient>
    <linearGradient id="Degradado_sin_nombre_8-2" data-name="Degradado sin nombre 8" x1="74.2032" y1="10591.3817" x2="107.4967" y2="10591.3817" xlink:href="#Degradado_sin_nombre_8"/>
    <linearGradient id="Degradado_sin_nombre_8-3" data-name="Degradado sin nombre 8" x1="76.9395" y1="10724.3385" x2="195.6332" y2="10724.3385" xlink:href="#Degradado_sin_nombre_8"/>
    <linearGradient id="Degradado_sin_nombre_10" data-name="Degradado sin nombre 10" x1="-12.9987" y1="10644.5101" x2="62.8186" y2="10644.5101" gradientTransform="translate(-7936.1896 7020.1561) rotate(49.2311) scale(1 -1)" gradientUnits="userSpaceOnUse">
      <stop offset=".63" stop-color="#f5a880"/>
      <stop offset="1" stop-color="#e94b34"/>
    </linearGradient>
    <linearGradient id="Degradado_sin_nombre_8-4" data-name="Degradado sin nombre 8" x1="77.571" y1="10644.3826" x2="123.0911" y2="10644.3826" xlink:href="#Degradado_sin_nombre_8"/>
    <linearGradient id="Degradado_sin_nombre_8-5" data-name="Degradado sin nombre 8" x1="26.3617" y1="10669.5203" x2="203.9971" y2="10669.5203" xlink:href="#Degradado_sin_nombre_8"/>
    <linearGradient id="Degradado_sin_nombre_7" data-name="Degradado sin nombre 7" x1="-1162.0808" y1="2692.3755" x2="-1127.8255" y2="2692.3755" gradientTransform="translate(3132.9091 1602.7039) rotate(96.2886)" gradientUnits="userSpaceOnUse">
      <stop offset="0" stop-color="#122536"/>
      <stop offset="1" stop-color="#377aa6"/>
    </linearGradient>
    <linearGradient id="Degradado_sin_nombre_7-2" data-name="Degradado sin nombre 7" x1="458.8629" y1="1.5679" x2="515.8525" y2="1.5679" gradientTransform="translate(484.6521 -237.8193) rotate(72.6272)" xlink:href="#Degradado_sin_nombre_7"/>
    <linearGradient id="Degradado_sin_nombre_7-3" data-name="Degradado sin nombre 7" x1="387.1264" y1="-93.4529" x2="514.5797" y2="-93.4529" gradientTransform="translate(484.6521 -237.8193) rotate(72.6272)" xlink:href="#Degradado_sin_nombre_7"/>
    <linearGradient id="Degradado_sin_nombre_7-4" data-name="Degradado sin nombre 7" x1="567.0293" y1="17.0178" x2="343.5108" y2="-112.0307" gradientTransform="translate(484.6521 -237.8193) rotate(72.6272)" xlink:href="#Degradado_sin_nombre_7"/>
    <linearGradient id="Degradado_sin_nombre_14" data-name="Degradado sin nombre 14" x1="300.8813" y1="-44.6007" x2="398.7793" y2="-44.6007" gradientTransform="translate(484.6521 -237.8193) rotate(72.6272)" gradientUnits="userSpaceOnUse">
      <stop offset="0" stop-color="#fff"/>
      <stop offset="1" stop-color="#000" stop-opacity=".6"/>
    </linearGradient>
    <linearGradient id="Degradado_sin_nombre_7-5" data-name="Degradado sin nombre 7" x1="400.0228" y1="-21.0347" x2="443.5484" y2="-21.0347" gradientTransform="translate(484.6521 -237.8193) rotate(72.6272)" xlink:href="#Degradado_sin_nombre_7"/>
    <linearGradient id="Degradado_sin_nombre_29-3" data-name="Degradado sin nombre 29" x1="432.6469" y1="186.0761" x2="455.1154" y2="207.498" xlink:href="#Degradado_sin_nombre_29"/>
  </defs>
  <g class="cls-48">
    <g id="Capa_1" data-name="Capa 1">
      <path class="cls-47" d="M223.8696,467.8696c-25,4-55,14-61,42-.9175,4.1279-1.3467,8.2012-1.498,12.2354,14.0605-7.874,57.3569-30.6655,86.7183-30.2354,84,23.48,145.5601-7.2998,145.5601-7.2998,0,0-4.1963-8.6948-11.3896-22.3984-53.8755,11.6499-104.2651-3.0005-158.3906,5.6982Z"/>
      <path class="cls-45" d="M245.9994,291.5195c-4.1201-2.4897-8.6797-4.02-13.5098-4.79-12.04-1.9199-25.77.8999-38.8003,5.5703-26.7197,9.5698-50.4697,26.8696-50.4697,26.8696l32.3501,44.8701,46.4297-18.7798c1.002,3.1851,2.0537,6.2671,3.1382,9.2632,4.8828-.248,10.0986,1.9868,13.7319,6.3467,7,11,9,23,21,28,19,8,59,4,54,34-17.8618,1.374-37.6108-1.5-55.3574-7.6484,1.6489,2.0244,2.6172,3.0786,2.6172,3.0786-73.0396-6.2603-115.2998,54.7896-115.2998,54.7896l10.9502,51.6504s1.6616-.9937,4.5918-2.6348c.1514-4.0342.5806-8.1074,1.498-12.2354,6-28,36-38,61-42,54.1255-8.6987,104.5151,5.9517,158.3906-5.6982-25.4941-48.5654-88.6538-160.0684-136.2607-170.6519Z"/>
      <path class="cls-70" d="M313.8696,422.8696c5-30-35-26-54-34-12-5-14-17-21-28-3.6333-4.3599-8.8491-6.5947-13.7319-6.3467,11.6001,32.0596,27.251,53.1782,33.3745,60.6982,17.7466,6.1484,37.4956,9.0225,55.3574,7.6484Z"/>
      <path class="cls-8" d="M322.8261,500.8696c-.3041-2.2438.3913-1.9771.3913-4.3043,0-27.9504,22.6583-50.6087,50.6087-50.6087"/>
      <path class="cls-4" d="M393.6498,484.5698s-61.5601,30.7798-145.5601,7.2998c-35.48-.52-91.3101,32.8701-91.3101,32.8701l-10.9502-51.6504s42.2603-61.0498,115.2998-54.7896c0,0-24.5195-26.6001-39.1299-73.04l-46.4297,18.7798-32.3501-44.8701s23.75-17.2998,50.4697-26.8696c13.0303-4.6704,26.7603-7.4902,38.8003-5.5703,4.8301.77,9.3896,2.3003,13.5098,4.79,61.04,13.5698,147.6504,193.0503,147.6504,193.0503Z"/>
      <path class="cls-9" d="M503.7392,218.4785l-23.6812,1.6108-91.3623,6.2148,39.3911,71.2178,61.2266-28.4126,18.5996-8.6309c1.5654-16.6958-4.1738-42-4.1738-42Z"/>
      <path class="cls-58" d="M480.058,220.0893l-91.3623,6.2148,39.3911,71.2178,61.2266-28.4126c.5693-16.5562-3.6929-32.8062-9.2554-49.02Z"/>
      <path class="cls-54" d="M503.7392,218.4785l-23.6812,1.6108c5.5625,16.2139,9.8247,32.4639,9.2554,49.02l18.5996-8.6309c1.5654-16.6958-4.1738-42-4.1738-42Z"/>
      <path class="cls-43" d="M185.5991,175.9467l-11.5991,2.3574c42.5571,114.499,172.6724,127.1606,180.1719,127.7979,2.8857-3.9346,5.4346-8.083,7.6978-12.2324-71.188-10.582-143.2939-50.7837-176.2705-117.9229Z"/>
      <path class="cls-45" d="M673.3041,221.6088l-25.5649-29.2178c-55.8262,72.522-137.7393,62.6089-137.7393,62.6089l-75.1304,27.6523-47.4785-45.3916c-117.9126,5.2178-149.2173-72-149.2173-72l-52.5747,10.686c32.9766,67.1392,105.0825,107.3408,176.2705,117.9229-2.2632,4.1494-4.812,8.2979-7.6978,12.2324.2236.019.3501.0283.3501.0283-8.8696,30.2607-28.6958,43.8262-28.6958,43.8262l67.6763,108.1064c20.6753-10.999,36.1533-29.4629,54.3672-45.1934,29-25,39-61,59-94,7-10,14-20,25-24,49.146-16.894,107.7231-32.0225,141.7773-70.7363-.1079-1.646-.3428-2.5244-.3428-2.5244Z"/>
      <path class="cls-37" d="M531.8696,294.8696c-11,4-18,14-25,24-20,33-30,69-59,94-18.2139,15.7305-33.6919,34.1943-54.3672,45.1934l12.6714,20.2412c89.2173-44.3477,117.3916-139.3042,117.3916-139.3042,145.1377-51.7368,150.8574-103.0698,150.0815-114.8667-34.0542,38.7139-92.6313,53.8423-141.7773,70.7363Z"/>
      <path class="cls-4" d="M673.3043,221.6087s15.6522,58.4348-149.7391,117.3913c0,0-28.1739,94.9565-117.3913,139.3043l-80.3478-128.3478s19.8261-13.5652,28.6957-43.8261c0,0-136.6957-9.913-180.5217-127.8261l64.1739-13.0435s31.3043,77.2174,149.2174,72l47.4783,45.3913,75.1304-27.6522s81.913,9.913,137.7391-62.6087l25.5652,29.2174Z"/>
      <g>
        <path class="cls-1" d="M399.0195,239.8696l-.0801.3301-6.23,28.7598-6.46,29.8403c-1.1201,5.21-6.2598,8.52-11.4697,7.3896-5.21-1.1299-8.52-6.27-7.3901-11.48l10.6099-48.9697,3.1299-14.4502c5.4302,3.3301,11.2705,6.1201,17.3301,8.3701.1802.0801.3701.1499.5601.21Z"/>
        <circle class="cls-2" cx="377.4284" cy="293.9486" r="5.7391"/>
      </g>
      <path class="cls-18" d="M352.8696,76.8696c-5.0327-1.0068-10.064-.6567-14.7568.7739-6.2148,10.519-3.8887,25.1709-.4658,36.1616,1.9136,6.1431,4.6162,11.7129,8.3027,16.9873,1.2114,1.7334,15.7402,18.3936,15.6631,18.4951.0073-.0098,20.3408-26.792,31.2041-41.1006-8.9043-15.272-22.5464-27.3628-39.9473-31.3174Z"/>
      <path class="cls-17" d="M339.0229,76.2099c-.3247.4673-.623.9478-.9102,1.4336,4.6929-1.4307,9.7241-1.7808,14.7568-.7739,17.4009,3.9546,31.043,16.0454,39.9473,31.3174,3.9541-5.2085,6.6543-8.7656,6.6616-8.7749-.772,1.0171-46.813-42.8677-60.4556-23.2021Z"/>
      <path class="cls-73" d="M385.8261,108.3913c-.5821.7416-32.9973-37.9174-43.2798-23.5753-5.5356,7.7217-3.7064,19.0527-.9813,27.4563,1.4559,4.4896,3.5077,8.5617,6.3026,12.4197.9186,1.2679,14.2774,16.2342,14.2194,16.308.0075-.0095,23.7186-32.5826,23.7391-32.6087Z"/>
      <path class="cls-16" d="M504.5728,61.3917c4.7245-2.0052,9.7224-2.6813,14.6078-2.2307,8.2164,9.0424,8.9058,23.8617,7.7798,35.3179-.6298,6.4033-2.1484,12.4051-4.6903,18.3168-.8353,1.9428-11.6889,21.2002-11.5928,21.284-.0092-.0081-25.3453-22.1173-38.8813-33.9293,5.6268-16.7588,16.5375-31.3619,32.7769-38.7587Z"/>
      <path class="cls-17" d="M517.999,57.9414c.4126.3918.8021.8019,1.1816,1.2196-4.8854-.4506-9.8833.2255-14.6078,2.2307-16.2394,7.3967-27.1501,21.9998-32.7769,38.7587-4.927-4.2998-8.2916-7.2363-8.3007-7.2439.962.8397,37.1612-51.4601,54.5038-34.965Z"/>
      <path class="cls-56" d="M478.6832,98.9347c.7202.6083,24.6343-43.8144,37.6084-31.8519,6.9848,6.4406,7.4882,17.9072,6.5215,26.6886-.5164,4.6914-1.7011,9.0947-3.6567,13.4387-.6427,1.4277-10.6937,18.7893-10.622,18.8499-.0092-.0078-29.8259-27.1038-29.8512-27.1252Z"/>
      <path class="cls-69" d="M367.8261,91.9565l-14.3478,1.8261,14.8696,8.3478-13.3043,3.3913,10.9565,5.7391s-8.3478,6-7.3043,6.2609,8.8696,1.5652,8.8696,1.5652l-6,6.2609,8.8696,3.913,15.3913-20.8696-18-16.4348Z"/>
      <path class="cls-69" d="M493.2511,79.4401l14.4267-1.0325-12.9365,11.1102,13.7115.7075-9.6132,7.7826s9.3651,4.2403,8.3934,4.7014c-.9718.4611-8.3883,3.2797-8.3883,3.2797l7.1145,4.958-7.9263,5.5816-19.1965-17.4335,14.4147-19.655Z"/>
      <path class="cls-23" d="M385.8261,108.3913c-.5821.7416-32.9973-37.9174-43.2798-23.5753-5.5356,7.7217-3.7064,19.0527-.9813,27.4563,1.4559,4.4896,3.5077,8.5617,6.3026,12.4197.9186,1.2679,14.2774,16.2342,14.2194,16.308.0075-.0095,23.7186-32.5826,23.7391-32.6087Z"/>
      <path class="cls-23" d="M478.6832,98.9347c.7202.6083,24.6343-43.8144,37.6084-31.8519,6.9848,6.4406,7.4882,17.9072,6.5215,26.6886-.5164,4.6914-1.7011,9.0947-3.6567,13.4387-.6427,1.4277-10.6937,18.7893-10.622,18.8499-.0092-.0078-29.8259-27.1038-29.8512-27.1252Z"/>
      <path class="cls-49" d="M410.8696,200.8696c6-1,13,0,19,2,14,4,25-7,38-5,3,0,7,3,10,3,14.1855.8867,30.728-10.0039,45.4482-4.8218,11.9878-33.6284-9.7842-77.6055-38.0166-96.5825-22.6719-15.2393-52.1396-18.9385-77.4595-8.3521-10.5801,4.4233-20.3589,10.9399-28.3892,19.1382-23.0317,23.5132-35.3975,68.7188-19.374,99.2578,12.1465-4.2534,27.7061-2.8555,40.791-4.6396,4-1,7-4,10-4Z"/>
      <path class="cls-58" d="M477.8696,200.8696c-3,0-7-3-10-3-13-2-24,9-38,5-6-2-13-3-19-2-3,0-6,3-10,4-13.085,1.7842-28.6445.3862-40.791,4.6396,3.9053,7.4424,9.4888,14.0176,17.0239,19.1909,13.061,8.9673,29.083,14.6426,44.7231,17.0391.25.0381,1.3066,2.5054,1.4697,2.77,1.3916,2.2598,3.1182,4.332,5.124,6.0723,4.7202,4.0957,11.4639,5.9414,18.0254,5.5898,5.0684-.2715,10.0288-1.8535,13.8643-4.7227,3.4136-2.5537,6.1709-5.9346,8.3525-9.5767.418-.6978,1.8936-4.8882,2.584-5.145,14.8306-5.5142,29.3716-14.3164,40.3457-25.7432,5.4604-5.6851,9.2891-12.0977,11.7266-18.936-14.7202-5.1821-31.2627,5.7085-45.4482,4.8218Z"/>
      <g>
        <path class="cls-44" d="M138.8756,142.627c-3.9781,9.0416-6.0726,18.7993-6.155,28.6769-.0535,12.9449,3.5073,31.4381,10.5886,32.6156,2.307.3814,5.8143-.9262,7.6319-3.2454,1.6873-2.1006.9507-3.7134,2.9646-6.7331,1.2192-1.8196,1.6602-1.4969,4.8199-4.5728,3.1597-3.0759,5.1259-5.0246,5.9792-8.0736.3967-1.4521.5088-2.9669.3301-4.4616l26.95,23.5108c-1.4793,12.7512,1.6198,25.6124,8.7449,36.2896,5.2514,8.4036,7.7949,9.6273,9.6162,9.6918,1.6921.0475,3.3541-.4586,4.7326-1.4403,1.3849-1.0388,1.4913-1.997,2.6772-3.371,1.5793-1.8277,3.4474-2.5147,5.7736-3.3434,1.6139-.5741,2.1732-.5986,9.5351-1.7966,3.8518-.6237,4.835-.8011,6.1683-1.5584,1.6757-.9585,3.0866-2.3188,4.1068-3.9579,2.9522-4.8997.6629-10.5032.3749-11.1785,2.5323,1.2693,4.8337,2.9544,6.8084,4.9849,5.3161,5.5114,6.6509,12.1504,7.6277,18.0518,2.4998,15.1002,1.513,18.6485,3.031,28.6853.7622,5.0647,4.2883,28.3043,12.3867,29.3731,3.4689.4585,6.6655-3.295,10.222-7.9963,6.7389-8.9739,15.6853-22.8674,23.5456-42.846,11.5629-.9701,22.9248-3.6086,33.7329-7.8328,9.9352-3.8827,27.0616-10.5735,26.6612-17.9773-.3553-6.47-13.9583-10.6806-31.987-16.2414-11.6118-3.5987-23.4701-6.3481-35.4812-8.2261-3.9192-.7201-7.5965-2.4073-10.6987-4.9084-3.1023-2.5002-5.5317-5.7349-7.0682-9.412,10.1185,2.7765,19.7027,1.6815,23.82-3.8385,3.2366-4.3519,2.1351-10.1703.4902-18.79-1.5358-8.0434-4.287-15.8055-8.16-23.0205-1.4427-1.5026-3.0978-3.7539-3.1051-6.5022-.0246-3.8206,3.2033-4.9118,3.0968-8.5147-.1216-3.9332-4.0025-4.5187-4.2756-8.8362-.2259-3.5327,2.3064-4.1794,1.8966-7.4798-.4786-3.8542-4.0704-4.076-4.7915-7.9745-.7212-3.8985,2.6441-5.1244,2-8.8197-.7771-4.4469-5.9134-4.2607-7.1911-8.8237-1.3204-4.6978,3.3273-7.7734,1.7813-11.9743-1.0336-2.8199-4.1816-4.2335-6.3586-4.9476-15.8582-3.6402-32.2814-4.0942-48.3167-1.3359-6.1893-5.1157-12.9299-9.5247-20.0968-13.1452,0,0-26.6727-13.434-58.2913-11.9282-.8721.0408-1.4159.0928-9.9038.6105-3.4125.204-6.8472.4108-11.2814.9563-6.4056.7903-7.7069,1.4055-8.7463,2.1055-2.2732,1.5349-2.188,2.704-5.0293,5.1538-3.0428,2.6236-4.9231,2.7571-6.5571,4.0189-4.6929,3.5151-3.5268,12.8499-2.8804,17.5158,3.273,22.6322,8.5686,35.5997,8.5686,35.5997,5.3633,13.0233,11.9647,25.5011,19.7123,37.2634Z"/>
        <path class="cls-75" d="M129.586,50.0378c4.6799,10.2455,6.7739,21.4831,6.0987,32.7267.2497,2.0244-1.1074,3.6359-2.4266,3.7271-1.3192.0912-3.1448-1.4573-2.9747-3.6965l4.584,38.0706c5.3887,12.1606,12.2186,23.6302,20.3416,34.1623,6.7512,8.7779,20.6311,26.3925,45.1025,40.2124,12.9236,7.2716,26.9103,12.4658,41.4476,15.3919,5.9753,2.024,11.3056,5.5989,15.4465,10.3579,4.1409,4.759,6.944,10.5326,8.1223,16.7303.588,10.7357,1.8555,21.4234,3.7955,31.9989,1.5033,8.2185,3.3144,15.8365,5.2572,22.8014,12.68-14.112,21.8422-31.0231,26.7395-49.3519,20.1185-1.1628,39.6311-7.3126,56.7801-17.8958-4.0181-2.3636-8.1634-4.5032-12.4175-6.4099-14.8137-6.5828-30.7255-10.3443-46.9191-11.0911-7.1161-2.582-13.4026-7.0375-18.1966-12.8961-4.794-5.8586-7.9169-12.9029-9.0398-20.3892-.2993-2.2432-.7039-5.5564-1.3076-9.4989-1.3862-9.0307-5.5127-35.7824-13.568-54.4628-13.1155-30.3795-39.8568-46.8035-43.4474-48.939-36.2901-21.6206-74.0532-13.7788-83.4185-11.5483Z"/>
        <path class="cls-72" d="M198.5982,202.8566s3.2315,26.9839,12.8144,34.8652c0,0,7.5662-7.3412,13.8501-7.4953,0,0,19.9156,1.4734,8.7109-14.7449-.0162-.0188-28.6374-6.7539-35.3754-12.625Z"/>
        <path class="cls-66" d="M144.1596,151.0107l14.1977,18.3623c.2834,1.4322.3262,2.901.1262,4.3461-.6222,4.4356-3.393,6.8818-7.4633,12.0017-2.2057,2.7764-4.2656,5.6659-6.1711,8.6559-4.6909-14.0456-4.9258-29.1982-.6708-43.3822l-.0188.0162Z"/>
        <path class="cls-53" d="M240.5931,71.4757c12.6135-1.5793,25.4023-1.0382,37.8371,1.6009-1.8437,2.712-2.5719,6.03-2.033,9.265,1.2517,6.6943,7.7417,9.2726,8.1215,9.4192-1.8976,1.9026-3.0831,4.4003-3.3588,7.0731-.3745,4.41,2.0402,8.7937,6.1779,11.3648-1.2796,2.1725-1.8324,4.6967-1.5777,7.2049.3636,3.0436,1.8746,5.8336,4.2249,7.8009-1.3435,1.7853-2.2192,3.8785-2.5486,6.0884-.6366,4.8076,1.956,8.0325,5.1157,13.6785,6.9444,12.396,7.8096,20.756,7.9967,23.6844.4685,7.4923-1.6361,9.3559-2.4094,9.9001-.9355.6594-2.3435,1.1215-7.1992.3628-4.4168-.6924-8.7356-1.9082-12.8653-3.6206-.2608-17.3005-3.1698-44.963-18.1328-74.2809-5.3659-10.516-11.8532-20.4206-19.3491-29.5414Z"/>
        <path class="cls-65" d="M134.8837,120.8845s14.6514,7.9578,25.4858,1.1173c-1.8806.3169-3.7927.4011-5.6941.2503-8.2093-.6381-13.878-5.4776-16.1675-7.6968.1679-.3058.425-.5537.7368-.7097.3118-.1569.6637-.2143,1.0091-.1663.3884.0845.7316.31.9627.6331-1.0098-.4781-1.8213-1.2922-2.2965-2.3032-.349-.7821-.4794-1.6444-.3773-2.4948,7.212,2.2999,14.9566,2.3259,22.1831.0741,12.7831-4.0495,18.9775-13.9108,20.4972-16.4145-8.6403,7.6788-20.344,10.2499-30.4358,6.5184-9.7416-3.6002-14.3106-11.7338-15.5207-14.0663-.5459.3148-1.1668.4774-1.797.4699-.6306-.0071-1.2473-.1838-1.7861-.5111-.6317-.4236-1.0982-1.0518-1.3213-1.7789-.5158-10.142-2.6121-20.1413-6.2133-29.6363,0,0-5.6002,3.1938-5.993,4.3499-.3928,1.1561-2.5385,25.8284,16.7276,62.3648Z"/>
        <path class="cls-74" d="M149.3587,77.947c4.0277,4.6713,11.0793,5.1933,15.7504,1.1657,4.6716-4.028,5.193-11.0796,1.1653-15.7509-4.0277-4.6713-11.0793-5.1933-15.7509-1.1653-4.6712,4.0276-5.1925,11.0792-1.1648,15.7505Z"/>
        <path class="cls-3" d="M150.7324,76.7624c3.3735,3.9126,9.2801,4.3495,13.1927.976s4.3495-9.2801.976-13.1927-9.2801-4.3495-13.1927-.976c-3.9126,3.3735-4.3495,9.2801-.976,13.1927Z"/>
        <path class="cls-42" d="M152.8574,77.3498c2.3376,2.7111,6.4306,3.0137,9.1414.6763,2.7109-2.3374,3.0139-6.4304.6763-9.1414s-6.4306-3.0137-9.1414-.6763-3.0139,6.4304-.6763,9.1414Z"/>
        <path class="cls-3" d="M185.6963,90.5597c-3.3845,7.9715-9.3253,14.5889-16.8863,18.8105-13.8719,7.6122-27.4411,3.7157-29.9795,2.9616"/>
        <path class="cls-44" d="M178.9741,126.8371l7.1348-5.6042,24.6692,3.8486,18.4956,27.2528-2.1917,6.9005-13.8834,2.7829-28.3804,1.9343-14.0584-5.4119-4.3316-9.6217-.8512-12.7616,5.6822-4.0656,10.13,3.9274-2.4153-9.1814Z"/>
        <path class="cls-50" d="M171.2595,132.0911s7.309-1.8471,7.72-5.2668c14.8498,4.9323,28.0481,13.8716,38.1382,25.8309l-40.2997-.5892c-3.6214-6.0383-5.5377-12.9459-5.5444-19.9871l-.0141.0121Z"/>
        <path class="cls-46" d="M165.5768,136.1571c-.8043,2.3283-3.8428,12.1905,1.1192,21.3013,1.0086,1.8523,3.5821,6.5814,8.8447,8.7221,2.4698.9684,4.4885,1.0344,7.647,1.0003,9.4187-.045,14.1257-.0655,18.2388-.424,16.7712-1.4719,19.8708-3.4988,21.7902-5.7095.8183-.9451,1.4978-2.0018,2.0187-3.1383-.7411.2875-1.8512.697-3.1997,1.124-5.0364,1.5061-8.683,1.5523-19.3781,1.4064-9.4716-.1301-13.3148-.274-18.0409-.5885-5.1358-.3536-7.7336-.5414-9.0299-1.1158-7.5263-3.3441-9.4812-15.1295-10.0099-22.578Z"/>
        <path class="cls-59" d="M180.1139,56.8401c5.9157,4.0671,10.4799,9.81,13.1071,16.4907,5.3866,13.9926-.2994,26.4154-1.3797,28.7365,1.0034,2.2852,1.435,4.7805,1.2575,7.2698-.5507,7.0877-6.0703,11.2093-7.007,11.8862,6.4798,2.959,12.719,6.4172,18.6624,10.3439,16.1534,10.6762,19.0891,17.5697,20.1258,20.7629.4705,1.4359.8122,2.911,1.0215,4.4079-.6102,1.1514-1.3946,2.2022-2.3243,3.1157-5.8117,5.6977-14.8292,3.108-29.4293,3.9504-4.5546.2692-9.0871.8324-13.5696,1.6868,5.7275,4.9883,11.7155,9.6702,17.9379,14.0257,16.3432,11.4338,34.1629,20.5948,52.9719,27.2312l12.362,12.4412,16.676-15.196-7.6872-9.2378c-1.9953-4.4453-3.7041-9.0143-5.1157-13.6785-4.2452-14.053-3.5408-21.6166-6.963-37.123-1.4549-6.3459-3.2374-12.612-5.34-18.7738-3.2164-9.21-15.6431-44.6874-49.1401-60.8693-8.2403-3.9425-17.0859-6.4683-26.166-7.4706Z"/>
        <path class="cls-74" d="M225.2647,80.8015s.6664,11.1063-10.4129,13.4251c0,0,18.673,6.1659,10.4129-13.4251Z"/>
        <path class="cls-74" d="M208.4349,99.2035s.6704,11.111-10.4089,13.4298c0,0,18.669,6.1612,10.4089-13.4298Z"/>
        <path class="cls-74" d="M222.7613,97.4283s.6751,11.1069-10.4082,13.421c0,0,18.6918,6.1498,10.4082-13.421Z"/>
        <path class="cls-74" d="M237.1551,94.7529s.6705,11.1109-10.4089,13.4298c-.0188.0162,18.669,6.1612,10.4089-13.4298Z"/>
        <path class="cls-74" d="M217.4414,114.8159s.6711,11.1023-10.4082,13.421c0,0,18.673,6.1659,10.4082-13.421Z"/>
        <path class="cls-74" d="M231.054,159.0062s.6751,11.1069-10.4042,13.4257c0,0,18.669,6.1613,10.4042-13.4257Z"/>
        <path class="cls-74" d="M242.5228,125.1918s.6711,11.1022-10.4082,13.421c-.0162-.0188,18.673,6.1659,10.4082-13.421Z"/>
        <path class="cls-74" d="M228.0862,128.4517s.6704,11.111-10.4089,13.4298c0,0,18.6528,6.1425,10.4089-13.4298Z"/>
        <path class="cls-74" d="M233.1096,111.0417s.6704,11.111-10.4089,13.4298c0,0,18.6575,6.1384,10.4089-13.4298Z"/>
        <path class="cls-74" d="M245.9792,157.2704s.6704,11.111-10.4089,13.4298c0,0,18.669,6.1613,10.4089-13.4298Z"/>
        <path class="cls-74" d="M239.4618,172.6254s.6704,11.111-10.4089,13.4298c0,0,18.673,6.1659,10.4089-13.4298Z"/>
        <path class="cls-74" d="M237.6368,142.7611s.6711,11.1023-10.4082,13.421c0,0,18.673,6.1659,10.4082-13.421Z"/>
        <path class="cls-74" d="M251.277,140.1797s.6704,11.111-10.4089,13.4298c0,0,18.669,6.1613,10.4089-13.4298Z"/>
        <path class="cls-74" d="M254.3742,170.8843s.6751,11.1069-10.4042,13.4257c.0081.0094,18.677,6.1706,10.4042-13.4257Z"/>
        <path class="cls-74" d="M225.445,175.2536s1.2236,10.6339-9.0492,12.2574c0,0,17.8438,6.8727,9.0492-12.2574Z"/>
        <path class="cls-74" d="M248.1717,185.7142s1.2196,10.6293-9.0533,12.2527c-.0162-.0188,17.8244,6.8976,9.0533-12.2527Z"/>
        <path class="cls-74" d="M262.0325,182.1088s1.2237,10.634-9.0492,12.2574c0,0,17.8485,6.8687,9.0492-12.2574Z"/>
        <path class="cls-74" d="M270.1874,195.1123s1.2236,10.6339-9.0492,12.2574c0,0,17.8438,6.8727,9.0492-12.2574Z"/>
        <path class="cls-74" d="M213.8828,166.2997s1.2237,10.634-9.0492,12.2574c0,0,17.8532,6.8647,9.0492-12.2574Z"/>
        <path class="cls-74" d="M252.1195,127.4863s.8371,7.2562-6.1759,8.3659c0,0,12.1802,4.6936,6.1759-8.3659Z"/>
        <path class="cls-74" d="M258.6515,157.2647s.8324,7.2603-6.18,8.3612c0,0,12.1802,4.6936,6.18-8.3612Z"/>
        <path class="cls-74" d="M202.8359,168.656s.8324,7.2603-6.1759,8.3659c-.0188.0162,12.1615,4.7097,6.1759-8.3659Z"/>
        <path class="cls-74" d="M258.8112,197.4745s.8371,7.2562-6.1759,8.3659c0,0,12.1809,4.6849,6.1759-8.3659Z"/>
        <path class="cls-39" d="M155.3241,68.7491c1.027,1.1911,2.4494,1.6482,3.1771,1.0207.7272-.627.4849-2.1016-.5421-3.2927-1.0271-1.1912-2.4499-1.6478-3.1771-1.0208-.7277.6274-.4849,2.1015.5421,3.2927Z"/>
        <path class="cls-3" d="M158.1821,56.4593c1.9641.9222,7.9836,4.0451,10.2594,10.5431,2.8501,8.1689-2.3645,15.5261-3.3979,16.9157"/>
        <path class="cls-11" d="M289.5627,208.4626l-20.831,17.9612"/>
        <path class="cls-11" d="M271.8803,230.7305l4.2529,53.1678"/>
        <path class="cls-11" d="M280.2453,226.0601l4.1221,46.5696"/>
        <path class="cls-11" d="M296.8521,211.3243l51.9633,12.0305"/>
        <path class="cls-11" d="M291.0027,218.9018l45.456,10.9303"/>
        <path class="cls-11" d="M286.5637,223.5467l10.2808,13.6963"/>
        <path class="cls-11" d="M300.2725,229.2356l16.1662,5.6381"/>
        <path class="cls-11" d="M287.833,236.4709l3.2018,16.8246"/>
      </g>
      <g>
        <path class="cls-35" d="M598.6159,154.3124s-16.7245-2.1165-32.9371,30.8329c0,0,11.1919-7.2456,20.082-3.5308,8.8901,3.7148,12.8551-27.3022,12.8551-27.3022Z"/>
        <path class="cls-36" d="M615.7434,201.9633s-9.1558,12.5769-5.232,27.8181c0,0,4.9013-9.979,7.2157,9.5663s13.3528,29.1824,32.3111-3.3524c0,0-34.4602-25.1124-34.2948-34.032Z"/>
        <path class="cls-32" d="M705.9998,228.6173c-3.1648-1.6572-10.393-6.0883-10.3841-10.2596,0-.0003.2503-116.627.2503-116.627l19.3563,7.8794s-4.854,7.4305,10.5592,14.8544c0,0-14.2786,7.0009,5.4645,21.5156,0,0-11.4163,10.7504-.9538,23.946,0,0-21.5134,12.2203-13.3845,20.6563,0,0,9.8723,27.8432,3.4561,37.0293,0,0-14.3587,1.0085-14.364,1.0056Z"/>
        <path class="cls-52" d="M693.3731,224.7286c.5048-3.525,2.1577-6.9597,3.5992-10.8306,4.2587-11.4362,7.3972-23.325,9.2707-35.3844,5.4693-35.2047-1.2783-71.7594-25.8576-98.666-16.7106-18.2928-39.1309-30.371-62.3024-38.4485,0,0-4.3836-5.9129-8.7815-.7364,0,0-8.4575-2.738-9.8966,7.8467-.9115,6.7038-4.0585,13.6421-5.5294,20.2988-3.5936,16.263-5.6108,32.9343-5.6033,49.5982.0202,44.6629,17.0574,89.3731,56.4854,113.6423,3.3483,2.061,7.3181,3.5708,9.6964,6.8803,5.7105,7.9468.7418,20.5995-3.0831,28.3202-11.3883,22.9877-3.7363,43.3967-3.7363,43.3967,0,0,23.2003-.0797,40.4784-24.4879,0,0,33.3276,17.4434,52.4344-2.4694,2.8576-2.9781-7.7243-16.864-9.1392-18.5856-6.1781-7.5172-14.0187-13.7852-22.2062-18.9784-4.984-3.1613-10.9656-6.8574-14.0459-12.325-1.8438-3.2728-2.1937-6.2018-1.7828-9.071Z"/>
        <path class="cls-64" d="M692.0411,94.904s19.4257,72.8885-10.9446,129.6852c0,0,9.4356,34.2084,19.7497,34.7821s8.3555-13.2467,8.3555-13.2467c0,0-14.341-3.1016-15.8287-21.3961,0,0,17.5673-49.1704,14.4128-64.6523,0,0,1.4758-45.2232-15.7447-65.1722Z"/>
        <path class="cls-63" d="M589.2325,111.9935c-.3479-.7346-.6656-1.4823-.9627-2.2374-.0795,1.2355-.1445,2.4602-.1968,3.6755,1.1828,1.4688,2.5229,2.8025,4.0017,4.0068-1.0762-1.7416-2.0183-3.5665-2.8422-5.4449Z"/>
        <path class="cls-63" d="M682.5539,269.7393l-5.0518-9.3987-16.5996-32.8116c-30.4948-23.514-46.5005-63.0781-54.9025-97.3635-4.0035.0797-7.5849-2.1871-10.5605-4.6414-.7417-.6117-7.4318-6.3666-7.2666-7.0543-2.933,12.2096,1.6315,29.7007,4.8692,41.635,2.9898,11.0205,7.325,21.6736,12.9358,31.6208,6.6855,11.8525,15.2055,23.222,25.6197,32.0816.6337.5391,1.3191,1.2967,2.0649,1.6871.0177.0093,16.1589,8.4574,16.1589,8.4574l6.253,6.4892,1.5902,10.4817-5.26,15.5809c6.4981,20.77,17.1666,2.2302,17.1666,2.2302,0,0-.0076-.0125-.019-.031.0065.0106.0124.0203.019.031,10.3916,17.0183,12.9829,1.0055,12.9829,1.0055ZM665.6657,262.3383c.0608.0996.1254.2054.195.3194-.0675-.1106-.133-.2179-.195-.3194ZM664.9618,261.1854c-.01-.0165-.0102-.0168,0,0h0ZM664.993,261.2366c.0091.0149.0211.0346.0336.055-.0128-.021-.024-.0394-.0336-.055ZM665.386,261.8802c.0267.0437.0558.0914.0852.1396-.0296-.0484-.0577-.0946-.0852-.1396ZM666.777,264.1582c-.1451-.2376-.2876-.4709-.4248-.6957.1305.2137.2732.4474.4248.6957ZM667.1066,264.698c.2222.3639.463.7583.726,1.189-.2372-.3884-.4825-.7904-.726-1.189ZM669.4161,268.4802c.0203.0332.0398.0651.0602.0986-.0178-.0291-.0378-.0619-.0602-.0986ZM668.2434,266.5597c.2988.4894.6242,1.0224.9721,1.592-.24-.393-.5828-.9545-.9721-1.592Z"/>
        <path class="cls-62" d="M622.6631,41.8665s80.4784,31.829,50.6301,67.3486c0,0-9.2525,10.918-19.5194,7.796s0,0,0,0c0,0-2.372,24.8119-29.8335,7.2223-27.4615-17.5896,0,0,0,0,0,0-27.6461,6.1157-33.2827-26.7476l9.8151-55.0109,14.2549-5.7266,7.9355,5.1183Z"/>
        <path class="cls-15" d="M693.3731,224.7286c.5048-3.525,2.1577-6.9597,3.5992-10.8306,4.2587-11.4362,7.3972-23.325,9.2707-35.3844,5.4693-35.2047-1.2783-71.7594-25.8576-98.666-16.7106-18.2928-39.1309-30.371-62.3024-38.4485,0,0-4.3836-5.9129-8.7815-.7364,0,0-8.4575-2.738-9.8966,7.8467-.9115,6.7038-4.0585,13.6421-5.5294,20.2988-3.5936,16.263-5.6108,32.9343-5.6033,49.5982.0202,44.6629,17.0574,89.3731,56.4854,113.6423,3.3483,2.061,7.3181,3.5708,9.6964,6.8803,5.7105,7.9468.7418,20.5995-3.0831,28.3202-11.3883,22.9877-3.7363,43.3967-3.7363,43.3967,0,0,23.2003-.0797,40.4784-24.4879,0,0,33.3276,17.4434,52.4344-2.4694,2.8576-2.9781-7.7243-16.864-9.1392-18.5856-6.1781-7.5172-14.0187-13.7852-22.2062-18.9784-4.984-3.1613-10.9656-6.8574-14.0459-12.325-1.8438-3.2728-2.1937-6.2018-1.7828-9.071Z"/>
        <path class="cls-24" d="M609.3014,40.6627s2.4739,10.9442-2.3801,18.3747,3.6573,8.9904,3.6573,8.9904"/>
        <path class="cls-24" d="M604.33,75.0502s-5.0386,31.1358,10.0115,30.65c15.05-.4858,28.3917-5.0821,28.3917-5.0821"/>
        <path class="cls-27" d="M698.0527,245.0433s-13.5757,24.0944-37.3091,11.6725"/>
        <line class="cls-27" x1="694.8992" y1="257.0091" x2="716.7847" y2="279.7215"/>
        <line class="cls-27" x1="699.2088" y1="251.438" x2="731.4343" y2="280.2055"/>
        <line class="cls-27" x1="689.8596" y1="260.6972" x2="702.3914" y2="279.1572"/>
        <line class="cls-27" x1="670.5393" y1="264.6304" x2="665.5007" y2="295.7662"/>
        <line class="cls-27" x1="663.8229" y1="262.5089" x2="653.7391" y2="304.5133"/>
        <line class="cls-27" x1="676.7822" y1="264.7886" x2="677.0059" y2="287.0993"/>
        <path class="cls-40" d="M675.3913,202.3043s-5.0452,10.8686-13.6296,6.3756c0,0,13.0346,11.9686,13.6296-6.3756Z"/>
        <path class="cls-40" d="M672.3571,187.2071s-5.0452,10.8686-13.6296,6.3756c0,0,13.0346,11.9686,13.6296-6.3756Z"/>
        <path class="cls-40" d="M689.4716,140.6805s-5.0452,10.8686-13.6296,6.3756c0,0,13.0346,11.9686,13.6296-6.3756Z"/>
        <path class="cls-40" d="M662.6758,137.0289s-5.0452,10.8686-13.6296,6.3756c0,0,13.0346,11.9686,13.6296-6.3756Z"/>
        <path class="cls-40" d="M646.683,195.2395s-5.0452,10.8686-13.6296,6.3756c0,0,13.0346,11.9686,13.6296-6.3756Z"/>
        <path class="cls-40" d="M656.8942,211.6807s-3.6917,7.9528-9.9732,4.6652c0,0,9.5378,8.7577,9.9732-4.6652Z"/>
        <path class="cls-40" d="M655.5498,181.0639s-3.6917,7.9528-9.9732,4.6652c0,0,9.5378,8.7577,9.9732-4.6652Z"/>
        <path class="cls-40" d="M689.3028,175.5713s-3.6917,7.9528-9.9732,4.6652c0,0,9.5378,8.7577,9.9732-4.6652Z"/>
        <path class="cls-40" d="M682.0371,160.1088s-5.0452,10.8686-13.6296,6.3756c0,0,13.0346,11.9686,13.6296-6.3756Z"/>
        <path class="cls-41" d="M673.6896,218.461s-3.138,6.7599-8.4772,3.9654c0,0,8.1071,7.4441,8.4772-3.9654Z"/>
        <path class="cls-41" d="M673.0839,240.8201s-3.138,6.7599-8.4772,3.9654c0,0,8.1071,7.4441,8.4772-3.9654Z"/>
        <path class="cls-41" d="M689.549,193.2299s-3.138,6.7599-8.4772,3.9654c0,0,8.1071,7.4441,8.4772-3.9654Z"/>
        <path class="cls-41" d="M668.9334,175.9266s-3.138,6.7599-8.4772,3.9654c0,0,8.1071,7.4441,8.4772-3.9654Z"/>
        <path class="cls-41" d="M668.0951,148.9519s-3.138,6.7599-8.4772,3.9654c0,0,8.1071,7.4441,8.4772-3.9654Z"/>
        <path class="cls-41" d="M687.1454,121.7724s-5.353,11.5316-14.4611,6.7645c0,0,13.8297,12.6987,14.4611-6.7645Z"/>
        <path class="cls-41" d="M635.7946,184.3941s-5.353,11.5316-14.4611,6.7645c0,0,13.8297,12.6987,14.4611-6.7645Z"/>
        <path class="cls-41" d="M686.6759,229.6001s-3.138,6.7599-8.4772,3.9654c0,0,8.1071,7.4441,8.4772-3.9654Z"/>
        <circle class="cls-45" cx="631.2043" cy="79.6274" r="13.7025"/>
        <circle class="cls-33" cx="633.4696" cy="77.7574" r="8.4633"/>
        <circle class="cls-31" cx="633.5604" cy="79.7348" r="4.8362"/>
        <path class="cls-24" d="M594.5555,107.2454s12.678,24.3262,29.3847,16.9879c0,0,25.1538,18.3116,30.7704-9.6268"/>
        <circle class="cls-39" cx="633.1598" cy="75.2767" r="1.5533"/>
        <path class="cls-28" d="M615.4828,140.3922l-10.3944,29.5388s21.5889,16.3654,42.1413,6.1349c0,0-17.2504,4.5879-34.6838-7.6057l2.9369-28.0679Z"/>
        <path class="cls-34" d="M635.4166,138.7997s-8.3543,14.4021-18.8937,1.2672l-3.977,28.3934s30.9402,17.8264,43.0971,1.8773l-20.2265-31.5378Z"/>
      </g>
      <path class="cls-7" d="M408,90.6522c1.9484,4.0164,2.2139,9.8859-.6428,13.2673-1.2768,1.5112-3.0482,2.7287-3.645,4.6149-.4076,1.2881-.1865,2.6991.2608,3.9739,1.3392,3.8165,6.2108,6.4482,6.1139,10.4917-.0633,2.643-4.438,6.2772-4.9565,8.8696-1.8261,9.1304,3.5228,19.4179,6.7826,25.3043"/>
      <path class="cls-58" d="M399.1303,146.4785c-13.1826,0-20.3477,10.0244-20.3477,24s18.6431,18,31.8262,18c1.585,0,3.0156-.0601,4.3115-.187.1201-.8066,1.0005-6.1382,5.7319-8.8784,2.1333-1.2354,4.2178-1.4624,5.4468-1.4883.3027-2.0928.4229-4.5532.4229-7.4463,0-13.9756-14.2085-24-27.3916-24Z"/>
      <path class="cls-57" d="M415.8261,186.6522s3.1304-7.5652,8.3478-8.3478c0,0-12.2609-48.5217-43.8261-14.8696l-12.5217,3.3913s-4.6957,12-5.4783,12-9.3913,4.4348-9.3913,4.4348l3.3913,16.4348,15.6522-25.0435,5.2174,1.5652,7.3043-6.7826s2.8696,20.6087,26.6087,12.5217c2.087,1.3043,3.1304,2.3478,4.6957,4.6957Z"/>
      <circle class="cls-12" cx="401.7391" cy="166.8261" r="13.5652"/>
      <circle class="cls-60" cx="402.3913" cy="167.2174" r="7.9565"/>
      <g>
        <circle class="cls-67" cx="397.0435" cy="162.913" r="4.3043"/>
        <circle class="cls-67" cx="397.0435" cy="162.913" r="4.3043"/>
      </g>
      <path class="cls-55" d="M433.5605,191.7831c-3.1279-.6909-7.1729-.3569-8.4688,2.5728-.7554,1.708-.1982,3.814,1.0786,5.1768,1.2773,1.3623,3.1528,2.0479,5.0137,2.2046.8452.0713,1.7578.0625,2.4478.5562,1.2524.896,1.0244,2.7627,1.0957,4.3013.1743,3.7451,3.1826,7.1079,6.8442,7.9146,4.5068.9927,9.8218-1.6582,9.8901-3.8926.0391-1.2852-1.7061-1.6216-2.2446-3.4209-.7188-2.4009,1.377-5.1812,3.4497-7.2876,2.2524-.4111,7.3496-1.5386,7.7012-3.7949.0405-.2612.0278-.7842.0015-1.8306-.0493-1.979-.0742-2.9688-.2075-3.3359-.8525-2.3491-7.7397-3.6899-13.0356-1.0649-1.8462.915-3.0859,2.4326-5.0957,2.9346-2.7798.6938-5.7871-.4404-8.4702-1.0332Z"/>
      <path class="cls-51" d="M426.1982,185.1733c-1.3191,4.0759-3.7439,13.0331,1.3186,15.1568,1.6281.6643,3.6816.2744,5.7224.1096.5956-.027,1.2079.417,1.5977.7116,2.1649,1.6007,3.578,4.2751,3.4877,6.9795-.0257.6895-.137,1.3997-.292,2.0625-.3128.9911-.0831,1.5456.9268,2.0346,1.0075.4973,2.4903.7308,3.7593.7608.7422.0234,1.3252.644,1.3018,1.3862-.0215.6914-.5679,1.2446-1.2412,1.2988-3.0187.2823-7.3746-.2099-8.378-3.8247-.2722-.9753-.1263-1.8938-.0444-2.8345.1021-1.2656-.3507-2.4927-1.2847-3.3491-.2926-.2763-.7726-.6396-1.1025-.7627,0,0,1.4048.2339,1.4048.2339-14.3243,1.5264-14.1897-11.0743-9.6595-21.0064.7306-1.5777,3.1002-.5859,2.4832,1.043h0Z"/>
      <path class="cls-51" d="M356.6088,204.1303l1.3042-3.1304h4.4346c-1.127-3.1558-.5464-6.2109,1.3047-7.5649.3943-.2884,1.1406-.7148,2.3453-.7826,4.8842-.275,5.3449,5.136,8.0114,7.9015,4.3389,4.4999,13.2888,1.6482,18.5998.968,2.1225-.2718,4.8186-.3957,8.0472-.0066,4.5103.5437,7.9031,4.6952,7.0338,9.1541-.0788.4041-.1913.7888-.3423,1.1566-.812-2.0366-8.9917-1.9462-10.6015-1.8912-1.4407.0492-3.4235-.1248-4.8002.3689-1.9307.6924-2.9894,2.7621-5.1441,3.1475-2.2739.4067-5.0246.321-7.092-.8189-3.715-2.0483-6.2872-4.6024-9.7968-.4151-2.5366,3.0259-2.4111,6.6147-2.3477,7.5654-1.625-2.1836-3.2568-4.4331-10.9565-15.6523Z"/>
      <ellipse class="cls-22" cx="384.3913" cy="193.6957" rx="3.7826" ry="2.6087"/>
      <ellipse class="cls-22" cx="395.6087" cy="143.3478" rx="4.5652" ry="2.087"/>
      <ellipse class="cls-22" cx="387.2609" cy="120.6522" rx="4.6957" ry="2.4783" transform="translate(89.1426 395.7038) rotate(-60)"/>
      <path class="cls-22" d="M370.1553,146.1556c-.0514-.7788-.1013-1.561-.0514-2.3413.0047-.074.0903-.6483.0227-.2961-.0684.356.055-.2178.072-.2852.0349-.1389.0941-.4874.1868-.6002l-.0918.2233c.0418-.0884.0868-.1751.135-.2601.0785-.1427.1629-.282.2531-.4176.0859-.1292.2935-.6011.0783-.1223.1161-.2583.4623-.5273.6582-.7299.4964-.5134,1.0222-.9983,1.5723-1.4536.0532-.044.4804-.3915.2034-.1693-.2766.2218.1567-.1161.2129-.1571.2884-.2107.5824-.4135.8817-.6083.5713-.3719,1.1617-.7147,1.7685-1.0255.3179-.1628.64-.317.9662-.4624.0888-.04.178-.079.2676-.1172l-.2376.1023c.096-.0879.4227-.1659.5448-.2112.6701-.2486,1.3534-.4559,2.0459-.632,1.2677-.3223,2.1562-1.8081,1.7461-3.0753-.4239-1.3099-1.7168-2.0915-3.0753-1.7461-3.3327.8474-6.3861,2.4798-9.009,4.6914-1.2761,1.076-2.5849,2.359-3.3292,3.8705-.9047,1.837-.9532,3.8212-.8209,5.8231.086,1.3022,1.0883,2.5632,2.5,2.5,1.2807-.0574,2.5923-1.1025,2.5-2.5h0Z"/>
      <path class="cls-22" d="M420.0534,96.7113c.062.1326.3368.5408.3066.679.0203-.093-.1681-.4235-.0388-.0784.0547.146.1113.2911.1637.438.1667.4678.3094.9443.4166,1.4293.0266.1205.0511.2413.0731.3626.0892.4913-.0788.0878.0038-.0263-.0664.0918.043.6036.0446.7338.0031.2465-.0123.4906-.0285.7363-.0267.4062-.0311-.0947.0288-.2-.0507.0891-.0484.2491-.0721.3485-.0443.1855-.0978.3685-.1603.5487-.1801.5192.2192-.4296-.024.0629-.0843.1707-.1769.3369-.2782.498-.0522.083-.1748.1986-.1983.2942.0192-.0782.3603-.4254.1285-.1739-.1268.1376-.2509.2755-.389.4022-.067.0614-.1489.1153-.2106.1816.0648-.0697.4557-.3045.1709-.1457-.1004.056-.195.122-.2964.1769-.0809.0438-.388.1757-.0131.0232.3795-.1544.0589-.0292-.0255-.0018-.1117.0362-.2241.0653-.3382.0929-1.2718.3079-2.1529,1.8183-1.7461,3.0753.4278,1.322,1.7126,2.076,3.0753,1.7461,2.5398-.6149,4.4365-2.8433,5.0915-5.3128.7666-2.8902-.145-5.7997-1.367-8.4141-.5554-1.1882-2.3575-1.5822-3.4205-.8969-1.2234.7887-1.491,2.1495-.8969,3.4205h0Z"/>
      <path class="cls-22" d="M418.4991,115.9104c.1104.1755.2059.3588.2869.5497l-.252-.5972c.1233.2985.2083.6093.2538.9291l-.0893-.6646c.0212.1598.0326.3201.0341.4813-.013.3442.0588.6653.2153.9632.1008.3099.2731.5781.5169.8046.2264.2438.4946.4161.8046.5169.2979.1565.619.2283.9632.2153l.6646-.0893c.4235-.1188.7912-.3331,1.1032-.6429l.3909-.506c.2261-.3899.3399-.8105.3413-1.2618-.0035-.3942-.0693-.794-.1282-1.1801-.0261-.1706-.0621-.3393-.1107-.505-.1056-.3603-.2675-.7102-.4175-1.0505-.0743-.1685-.1616-.3305-.2596-.4864-.1571-.2913-.3717-.5251-.6439-.7014-.2415-.221-.5249-.3701-.8502-.4475-.3323-.1042-.6646-.1191-.9969-.0447-.3327.0151-.6425.114-.9295.2967l-.506.3909c-.3098.3119-.5242.6797-.6429,1.1032l-.0893.6646c.0014.4513.1152.8719.3413,1.2618h0Z"/>
      <path class="cls-22" d="M423.7659,126.2601c.3115,1.0974.5519,2.2133.7198,3.3417.0773.3253.2265.6087.4475.8502.1763.2722.4101.4868.7014.6439.287.1827.5968.2816.9295.2967.3323.0744.6646.0595.9969-.0447.6049-.1958,1.1886-.5706,1.4941-1.1489l.252-.5972c.1191-.4431.1191-.8861,0-1.3292-.1679-1.1284-.4083-2.2443-.7198-3.3417-.1726-.608-.6019-1.174-1.1489-1.4941-.287-.1827-.5968-.2816-.9295-.2967-.3323-.0744-.6646-.0595-.9969.0447-.6049.1958-1.1886.5706-1.4941,1.1489-.3132.5927-.4391,1.2674-.252,1.9264h0Z"/>
      <path class="cls-22" d="M416.5793,135.5526c.769.7958,1.5379,1.5916,2.3069,2.3874.2264.2438.4946.4161.8046.5169.2979.1565.619.2283.9632.2153.3442.013.6653-.0588.9632-.2153.3099-.1008.5781-.2731.8046-.5169l.3909-.506c.2261-.3899.3399-.8105.3413-1.2618l-.0893-.6646c-.1188-.4235-.3331-.7912-.6429-1.1032-.769-.7958-1.5379-1.5916-2.3069-2.3874-.2264-.2438-.4946-.4161-.8046-.5169-.2979-.1565-.619-.2283-.9632-.2153-.3442-.013-.6653.0588-.9632.2153-.3099.1008-.5781.2731-.8046.5169l-.3909.506c-.2261.3899-.3399.8105-.3413,1.2618l.0893.6646c.1188.4235.3331.7912.6429,1.1032h0Z"/>
      <path class="cls-22" d="M424.887,149.4065c.478.8356.9559,1.6711,1.4339,2.5067.1571.2913.3717.5251.6439.7014.2415.221.5249.3701.8502.4475.3323.1042.6646.1191.9969.0447.3327-.0151.6425-.114.9295-.2967l.506-.3909c.3098-.3119.5242-.6797.6429-1.1032l.0893-.6646c-.0014-.4513-.1152-.8719-.3413-1.2618-.478-.8356-.9559-1.6711-1.4339-2.5067-.1571-.2913-.3717-.5251-.6439-.7014-.2415-.221-.5249-.3701-.8502-.4475-.3323-.1042-.6646-.1191-.9969-.0447-.3327.0151-.6425.114-.9295.2967l-.506.3909c-.3098.3119-.5242.6797-.6429,1.1032l-.0893.6646c.0014.4513.1152.8719.3413,1.2618h0Z"/>
      <path class="cls-22" d="M380.8021,182.0773c4.7081,4.6483,10.729,7.9313,17.3353,8.735,1.0085.1227,1.878-.9509,1.878-1.878,0-1.1169-.8665-1.7549-1.878-1.878-5.5662-.6772-10.7437-3.7491-14.6795-7.6349-1.7217-1.6999-4.3792.9543-2.6558,2.6558h0Z"/>
      <path class="cls-7" d="M453.7264,86.4726c-1.1339,4.3177-.2581,10.1275,3.1992,12.8918,1.5452,1.2354,3.5188,2.087,4.4695,3.8219.6493,1.1848.7055,2.6119.5135,3.9493-.575,4.0036-4.8449,7.5286-3.967,11.4769.5738,2.5807,5.5694,5.2992,6.5799,7.7421,3.5592,8.6041.3032,19.7325-1.7552,26.1387"/>
      <path class="cls-58" d="M473.8201,139.5881c12.9332-2.5522,21.9034,5.8954,24.6092,19.6065,2.7056,13.7107-14.8055,21.2688-27.7391,23.8211-1.555.3069-2.9702.5249-4.2662.6513-3.0375-4.7065-7.4973-8.3455-12.9742-8.0063-.7022-1.9946-1.2964-4.3852-1.8565-7.2235-2.7057-13.7112,9.2932-26.2967,22.2268-28.849Z"/>
      <path class="cls-57" d="M464.6344,182.1714s-4.5359-6.816-9.8061-6.5737c0,0,2.6349-49.9775,40.1181-23.0732l12.9414.9029s6.9301,10.8639,7.6979,10.7123,10.0722,2.5327,10.0722,2.5327l-.1453,16.7804-20.2046-21.5393-4.8156,2.5457-8.4793-5.2401s1.1747,20.7743-23.681,17.4364c-1.7949,1.6837-2.6167,2.9095-3.6977,5.5159Z"/>
      <circle class="cls-12" cx="475.2" cy="160.0558" r="13.5652"/>
      <circle class="cls-60" cx="474.636" cy="160.566" r="7.9565"/>
      <g>
        <circle class="cls-67" cx="468.0927" cy="157.6556" r="4.3043"/>
        <circle class="cls-67" cx="468.0927" cy="157.6556" r="4.3043"/>
      </g>
      <path class="cls-51" d="M456.3583,181.5829c5.6182,7.5795,9.8241,20.0541-3.2648,22.1362-.6038.0879-1.1995.1387-1.803.2056l1.3638-.4922c.0331-.0365-.1095.0678-.1772.1299-1.2363,1.0274-1.7253,2.7269-1.2299,4.2656.4931,1.3946.8681,3.0896.1171,4.4922-1.4077,2.6842-4.426,3.2844-7.0009,3.5831-.7393.0717-1.397-.4698-1.4683-1.2091-.0731-.7299.4559-1.3661,1.1626-1.4673,1.491-.3708,3.5602-.927,4.1334-2.29.0707-.3189-.0011-.5368-.1533-.8673-.3064-.6967-.6731-1.499-.8525-2.2437-.7562-2.9379.3212-6.2479,2.6572-8.2143.3818-.291.8325-.4297,1.2778-.4268,1.9131.0117,3.7974-.2661,5.0488-1.0254,3.1358-2.0829,1.727-6.3873.6779-9.5004-.7217-1.9189-1.6788-3.8529-2.7355-5.5967-.8637-1.4585,1.239-2.8541,2.2471-1.4795h0Z"/>
      <path class="cls-51" d="M526.6987,187.9168l-1.8856-2.8186-4.3507.8586c.4947-3.3142-.6664-6.1992-2.7446-7.1692-.4426-.2066-1.2574-.4804-2.4524-.3137-4.8451.6759-4.2495,6.0737-6.3301,9.303-3.3856,5.2547-12.7182,4.1898-18.0605,4.5507-1.4405.0973-5.9822,1.9735-7.8749,2.4116-4.9536,1.1467-6.6836,4.1726-5.087,9l1.7519.5518c.0083.025.7196,1.5607.7264,1.5352.5561-2.0881,6.4837-4.1893,8.0534-4.4437,1.423-.2306,3.3346-.7853,4.7808-.5674,2.0282.3055,3.4676,2.1311,5.6561,2.092,2.3096-.0412,4.9917-.6579,6.7993-2.1765,3.2481-2.7288,5.2772-5.7326,9.531-2.304,3.0745,2.4775,3.6462,6.0228,3.7679,6.9678,1.1715-2.4569,2.3369-4.9798,7.7189-17.4774Z"/>
      <ellipse class="cls-22" cx="497.4217" cy="183.0584" rx="3.7826" ry="2.6087" transform="translate(-26.0295 99.7666) rotate(-11.1632)"/>
      <ellipse class="cls-22" cx="476.0854" cy="135.7722" rx="4.5652" ry="2.087" transform="translate(-17.2784 94.7411) rotate(-11.1632)"/>
      <ellipse class="cls-22" cx="480.4649" cy="111.9525" rx="2.4783" ry="4.6957" transform="translate(45.065 343.9154) rotate(-41.1632)"/>
      <path class="cls-22" d="M507.137,133.1777c-.2363-1.8229-.4623-3.7026-1.4598-5.2993-1.0217-1.6354-2.644-2.7977-4.2846-3.756-3.1027-1.8124-6.6039-2.8025-10.1834-3.0001-1.308-.0722-2.5582,1.2015-2.5,2.5.0634,1.4162,1.0988,2.4227,2.5,2.5.3477.0192.6947.044,1.0411.08.1954.0203.5092.0662.1413.0112.153.0229.3059.0467.4584.0727.6862.1169,1.3664.2711,2.0362.4603.6705.1894,1.3285.417,1.9764.6727.6775.2674-.2229-.1226.1503.0656.1722.0868.3523.1609.5258.2451.3132.1519.6222.3123.9269.4807.6088.3364,1.2003.7048,1.7687,1.1058.0356.0251.4042.2983.2079.1457-.2287-.1778.2363.2043.2777.2418.1128.1021.2234.2072.3295.3164.0422.0434.4144.5018.2472.2675-.1458-.2043.0972.1719.1194.2094.0936.1583.1755.3214.2554.4868-.1064-.2201-.0754-.2005-.0087.0163.0544.1769.1112.3515.1588.5304.0862.324.1542.6524.2121.9825.0258.1474.0481.2954.0717.4431.1175.736-.0635-.5133.0318.2216.1675,1.2919,1.0297,2.5659,2.5,2.5,1.2103-.0542,2.6801-1.1109,2.5-2.5h0Z"/>
      <path class="cls-22" d="M427.5184,95.5007c-.3822,2.7913-.4518,5.6999.9863,8.2361,1.2908,2.2765,3.8538,4.0419,6.5429,3.8652,1.3023-.0856,2.5632-1.0886,2.5-2.5-.0574-1.2811-1.1025-2.5918-2.5-2.5-.2622.0172-.5185.0113-.7798-.0175l.6646.0893c-.2563-.0371-.507-.091-.7531-.1725-.0819-.0272-.1628-.0568-.2429-.0888l.3592.1486c-.1048-.008-.2522-.1265-.3469-.1808-.1141-.0656-.2211-.1415-.3332-.2098-.4021-.2449.4114.3679.0856.0701-.2145-.1961-.4241-.3885-.6151-.6088-.3553-.4097.1982.2966.0598.0864-.0734-.1115-.1515-.2194-.2217-.3333-.0698-.1133-.1355-.2288-.1971-.3467-.0394-.0755-.2445-.5232-.079-.1425.1705.3923-.0385-.1272-.066-.21-.0487-.1471-.0925-.2955-.1319-.4453-.0856-.3255-.1467-.6549-.1952-.9878l.0893.6646c-.1539-1.199-.0916-2.4015.0636-3.5969l-.0893.6646.0212-.155c.0954-.6971.1192-1.292-.252-1.9264-.3035-.5186-.8981-1.0132-1.4941-1.1489-.64-.1458-1.3583-.1142-1.9264.252-.505.3256-1.0633.8689-1.1489,1.4941h0Z"/>
      <path class="cls-22" d="M434.7099,113.3698c-.099.3734-.1382.7618-.185,1.1439-.0221.1808-.0338.362-.0308.5442.0064.3848.0733.7752.1295,1.1518.0269.1801.0678.3573.1203.5316.0773.3253.2265.6087.4475.8502.1763.2722.4101.4868.7014.6439.287.1827.5968.2816.9295.2967.3323.0744.6646.0595.9969-.0447l.5972-.252c.3757-.2223.6746-.5212.8969-.8969l.252-.5972c.1191-.4431.1191-.8861,0-1.3292-.058-.1926-.1006-.3883-.1283-.5875l.0893.6646c-.0417-.3245-.0423-.6509-.0014-.9755l-.0893.6646c.022-.1619.0538-.3214.0957-.4793.1042-.3323.1191-.6646.0447-.9969-.0151-.3327-.114-.6425-.2967-.9295-.1571-.2913-.3717-.5251-.6439-.7014-.2415-.221-.5249-.3701-.8502-.4475l-.6646-.0893c-.4513.0014-.8719.1152-1.2618.3413l-.506.3909c-.3098.3119-.5242.6797-.6429,1.1032h0Z"/>
      <path class="cls-22" d="M432.6056,126.1271c.0346,1.3651.186,2.7204.3955,4.0692.0773.3253.2265.6087.4475.8502.1763.2722.4101.4868.7014.6439.287.1827.5968.2816.9295.2967.3323.0744.6646.0595.9969-.0447.6049-.1958,1.1886-.5706,1.4941-1.1489l.252-.5972c.1191-.4431.1191-.8861,0-1.3292-.0274-.1768-.0533-.3537-.0775-.531l.0893.6646c-.128-.9532-.2043-1.9122-.2286-2.8737-.0165-.6511-.2675-1.303-.7322-1.7678-.2264-.2438-.4946-.4161-.8046-.5169-.2979-.1565-.619-.2283-.9632-.2153-.6466.029-1.3171.2413-1.7678.7322-.4425.482-.7492,1.0967-.7322,1.7678h0Z"/>
      <path class="cls-22" d="M442.857,130.3567c-.4976.9884-.9952,1.9768-1.4928,2.9653-.1827.287-.2816.5968-.2967.9295-.0744.3323-.0595.6646.0447.9969.0773.3253.2265.6087.4475.8502.1763.2722.4101.4868.7014.6439.5802.3065,1.2831.4602,1.9264.252.5977-.1934,1.2022-.5691,1.4941-1.1489.4976-.9884.9952-1.9768,1.4928-2.9653.1827-.287.2816-.5968.2967-.9295.0744-.3323.0595-.6646-.0447-.9969-.0773-.3253-.2265-.6087-.4475-.8502-.1763-.2722-.4101-.4868-.7014-.6439-.5802-.3065-1.2831-.4602-1.9264-.252-.5977.1934-1.2022.5691-1.4941,1.1489h0Z"/>
      <path class="cls-22" d="M438.5686,147.2506c-.208.9399-.4159,1.8798-.6239,2.8196-.1042.3323-.1191.6646-.0447.9969.0151.3327.114.6425.2967.9295.1571.2913.3717.5251.6439.7014.2415.221.5249.3701.8502.4475l.6646.0893c.4513-.0014.8719-.1152,1.2618-.3413.5318-.3429,1.008-.8572,1.1489-1.4941.208-.9399.4159-1.8798.6239-2.8196.1042-.3323.1191-.6646.0447-.9969-.0151-.3327-.114-.6425-.2967-.9295-.1571-.2913-.3717-.5251-.6439-.7014-.2415-.221-.5249-.3701-.8502-.4475l-.6646-.0893c-.4513.0014-.8719.1152-1.2618.3413-.5318.3429-1.008.8572-1.1489,1.4941h0Z"/>
      <path class="cls-22" d="M495.5122,168.9714c-3.1068,4.5773-7.7135,8.5445-12.9975,10.2662-.964.3141-1.5893,1.2998-1.3116,2.3101.2598.9454,1.3418,1.6271,2.3101,1.3116,6.3116-2.0565,11.549-6.5511,15.2422-11.9922.5698-.8395.1599-2.0818-.6737-2.5694-.9267-.542-1.9982-.1678-2.5694.6737h0Z"/>
      <path class="cls-10" d="M433.4594,278.6996l-26.1997,13.21-14.5503-22.9502-14.71-23.2197-8.2798-13.0601,4.8599-5.8301c.8101.6401,1.6499,1.2603,2.52,1.8501,1.3101.8999,2.6602,1.77,4.0298,2.5898,5.4302,3.3301,11.2705,6.1201,17.3301,8.3701l.48.54,34.52,38.5Z"/>
      <g>
        <path class="cls-6" d="M213.7476,168.269c-.6369-2.4835-2.2959-4.5836-4.4456-5.9808l-.943-.6129c-1.5941-1.036-3.4308-1.695-5.3315-1.74-1.8057-.0427-3.4829.3913-4.9513,1.1795l2.6782-4.1188c1.4071-2.1639,2.0762-4.7739,1.6484-7.3193-.4666-2.7763-2.0372-5.1661-4.3809-6.6899-2.3446-1.5249-5.1677-1.9907-7.8951-1.29-2.4991.6421-4.6122,2.3122-6.0189,4.4753l-.8813,1.3552c-.1072.1648-.364.0696-.332-.1244.2611-1.5824.1301-3.2325-.4337-4.8298-.7405-2.098-2.2477-3.84-4.1134-5.052l-.0125-.0081c-2.1171-1.3753-4.6701-2.0284-7.1597-1.609-2.7159.4575-5.0544,1.9941-6.5455,4.2873l-15.5021,23.8396c-.4788.7354-.8335,1.5153-1.0907,2.3134-7.8128,12.6806-3.1787,30.0042,10.5201,38.8762,4.5989,2.9785,9.9238,4.324,15.3092,4.9719,9.1268,1.098,16.3266.1429,22.1249-7.6893,6.1521-8.3101,10.84-17.7283,16.4744-26.393,1.5144-2.3289,1.9768-5.1323,1.2821-7.8412Z"/>
        <path class="cls-6" d="M161.8395,176.1044c.7729-.7922,20.8483-27.7486,20.8483-27.7486"/>
        <path class="cls-6" d="M179.4055,188.4107c.3816-.7874,18.6706-27.2958,18.6706-27.2958"/>
      </g>
      <g>
        <path class="cls-6" d="M676.7893,175.8878c-2.0059-1.5968-3.244-3.9695-3.6398-6.5027l-.1737-1.1112c-.2936-1.8784-.1438-3.824.5924-5.5768.6995-1.6652,1.7813-3.0183,3.1012-4.0361l-4.8539.7597c-2.5501.3992-5.2055-.0575-7.3534-1.4889-2.3428-1.5612-3.8813-3.9717-4.3135-6.7336-.4328-2.7632.2966-5.5299,2.0514-7.7323,1.6079-2.018,3.9961-3.2633,6.5454-3.6625l1.5971-.2501c.1942-.0304.2123-.3037.0223-.3538-1.5508-.4088-3.003-1.2031-4.2302-2.3709-1.6117-1.5337-2.5851-3.6215-2.9282-5.8197l-.0023-.0147c-.3893-2.4944.0587-5.0913,1.4595-7.1917,1.5281-2.2913,3.8867-3.797,6.5891-4.2199l28.0945-4.3978c.8669-.1362,1.7236-.1409,2.5572-.0493,14.7668-1.9441,28.6806,9.3691,31.1749,25.4982.8374,5.4148-.1123,10.8243-1.7233,16.0038-2.7303,8.7778-6.5462,14.9575-16.0646,17.0459-10.0994,2.2159-20.611,2.6425-30.8223,4.2409-2.7445.4296-5.492-.2948-7.6799-2.0365Z"/>
        <path class="cls-6" d="M705.1667,131.7225c-1.039.3814-33.848,7.6779-33.848,7.6779"/>
        <path class="cls-6" d="M709.2136,152.7851c-.8746.0263-32.5442,5.8759-32.5442,5.8759"/>
      </g>
      <path class="cls-30" d="M192.1171,488.7123l-26.8228-34.064c-.8604.7192-1.6738,1.4702-2.4248,2.2212-26,22-52,65-90,43-6-3-10-11-17-13-7.6626-2.2988-14.7285-.4736-19.4175,4.998,5.0312,5.8223,10.062,11.645,15.0933,17.4673,3.9595,4.5825,7.8052,9.502,11.7891,14.2622,47.2231,13.9097,98.2764,3.0796,128.7827-34.8848Z"/>
      <path class="cls-68" d="M202.1035,501.395l-9.9863-12.6826c-30.5063,37.9644-81.5596,48.7944-128.7827,34.8848,3.1963,3.8193,6.4805,7.5381,9.999,10.8813,1.4531,1.3809,2.9111,1.7998,4.7915,2.4971,4.2466,1.5752,8.8062,2.4351,11.7695,6.0376.7437.9043,1.4902,1.8066,2.2363,2.709,2.7251-1.4336,5.6846-2.1582,8.7388-1.8525,10.936.5757,22.5293,3.4775,31.5488,9.6445,1.5493-1.0239,3.0991-2.0479,4.6479-3.0728,13.9946-9.2515,27.9888-18.5034,41.9834-27.7549,7.3208-4.8398,14.6411-9.6792,21.9619-14.519,2.2749-1.5039,2.7788-4.6304,1.0918-6.7725Z"/>
      <path class="cls-38" d="M92.1308,545.7221c1.8794,2.2739,3.7617,4.5454,5.6338,6.8252,1.9106,2.3047,3.6934,4.7227,5.5562,7.0664,1.895,2.3843,4.1611,7.667,7.4844,7.9463,4.3579.3662,9.4517-6.0044,12.8643-8.2617,2.916-1.9287,5.8325-3.8564,8.749-5.7842-9.0195-6.167-20.6128-9.0688-31.5488-9.6445-3.0542-.3057-6.0137.4189-8.7388,1.8525Z"/>
      <path class="cls-20" d="M72.8696,499.8696c38,22,64-21,90-43,.751-.751,1.5645-1.502,2.4248-2.2212l-5.522-7.0132c-2.0801-2.6416-5.9556-2.9844-8.4673-.749l-48.0225,42.7476c-6.3076,5.6147-15.6968,5.7983-22.3369.5815-2.4482-1.9233-4.8018-3.584-7.0591-5.0112-15.2002-9.5903-26.1401-8.54-33.04-5.4902-4.1401,1.8301-6.8203,4.3901-8.1001,5.8101-.5698.6499-.8599,1.0601-.8599,1.0601-.0698.0991,1.9473,2.2539,2.0679,2.3931.8325.9634,1.665,1.9272,2.4976,2.8906,4.689-5.4717,11.7549-7.2969,19.4175-4.998,7,2,11,10,17,13Z"/>
      <path class="cls-51" d="M73.4496,535.5595l-5.1299,3.6899c-1.2603.9004-2.73,1.3701-4.2402,1.3701-.3999,0-.7998-.04-1.2002-.1001-1.9199-.3198-3.5996-1.3599-4.7295-2.9399-1.1401-1.5801-1.5903-3.5098-1.2705-5.4297.0903-.6001.2705-1.1704.5-1.7104-2.25-.02-4.4697-1.0698-5.8896-3.0396-1.1299-1.5801-1.5801-3.5103-1.27-5.4302.0298-.1802.0801-.3599.1201-.5303-2.2603-.02-4.48-1.0698-5.8901-3.0396-1.4199-1.9702-1.7002-4.4204-.9702-6.5703-.5601.1299-1.1299.2202-1.6997.2202-.4004,0-.8003-.0303-1.2002-.1001-1.9199-.3101-3.6001-1.3604-4.7397-2.9399-1.1304-1.5801-1.5801-3.5103-1.27-5.4302.1899-1.1602.6597-2.2402,1.3398-3.1602-.6299.1802-1.29.2803-1.96.2803-.3999,0-.7998-.0303-1.2002-.0898-1.9199-.3203-3.5996-1.3604-4.73-2.9502-1.1401-1.5801-1.5898-3.5-1.27-5.4302.3101-1.9199,1.3604-3.6001,2.9399-4.73l2.4702-1.7798c-.5698.6499-.8599,1.0601-.8599,1.0601l42.1499,48.7798Z"/>
      <path class="cls-51" d="M109.1796,567.2197l-8.1899,5.8799c-1.2803.9199-2.77,1.3599-4.2402,1.3599-1.1396,0-2.2598-.2598-3.2798-.77-1.02-.5098-1.9399-1.27-2.6499-2.2598-.8901-1.2402-1.3301-2.6699-1.3604-4.0903-.0498-.0098-.1099-.0098-.1597-.0195-1.9204-.3101-3.6104-1.3604-4.7402-2.9404-1.1401-1.5796-1.5898-3.5098-1.27-5.4297.0503-.3203.1299-.6299.2202-.9302-.02,0-.04.0103-.0601.0103-2.27,0-4.5103-1.0601-5.9302-3.04-1.1401-1.5801-1.5898-3.5103-1.27-5.4302.3101-1.9199,1.3604-3.6001,2.9399-4.7397l6.4604-4.6401,1.6099.6001,21.9199,26.4399Z"/>
      <path class="cls-61" d="M140.9347,511.5097c-2.5261,1.3127-4.9168,3.6109-4.9104,6.4578.0062,2.7783,2.4134,5.1143,5.0916,5.8532s5.5387.2038,8.2057-.5747c3.3675-.983,6.6103-2.3449,9.8446-3.7038,2.2699-.9537,4.5399-1.9074,6.8098-2.8611,1.9992-.84,4.065-1.7258,5.5279-3.3265,1.3672-1.496,2.0825-3.515,2.2216-5.5368.172-2.5004-.6054-5.1941-2.5632-6.759-2.3339-1.8656-5.7495-1.7015-8.5332-.6157s-5.187,2.9487-7.8297,4.3428c-4.5666,2.4091-9.2722,4.3374-13.8647,6.7239Z"/>
      <path class="cls-61" d="M54.0488,491.3428c.5834.406,1.1108.8894,1.7043,1.2804,1.842,1.2134,4.3029,1.4252,6.3252.5444.7314-.3186,1.4523-.8317,1.6777-1.597.3613-1.2269-.6831-2.403-1.724-3.1462-3.1567-2.2541-7.061-3.2407-10.9238-3.5935-.8376-.0765-1.6988-.1232-2.5044.1183-.8057.2415-1.5556.8263-1.7752,1.6384-.7625,2.8214,5.6771,3.6815,7.2201,4.7552Z"/>
      <path class="cls-4" d="M201.5165,501.5905c1.6869,2.1423,1.1829,5.2687-1.0917,6.7725-7.3207,4.8397-14.6415,9.6794-21.9622,14.5192-13.9944,9.2516-27.9887,18.5033-41.9831,27.7549-4.4644,2.9544-8.9323,5.9034-13.3973,8.8569-3.4125,2.2573-8.5063,8.6281-12.864,8.2618-3.3232-.2793-5.5895-5.5619-7.4847-7.9463-1.8628-2.3436-3.6451-4.7618-5.5558-7.0665-2.6154-3.1844-5.252-6.3519-7.8701-9.5344-2.9633-3.6021-7.523-4.4624-11.7698-6.0374-1.8802-.6973-3.3384-1.1163-4.7916-2.4972-7.9035-7.5098-14.6513-16.8844-21.7877-25.1433-5.8637-6.7861-11.7275-13.5721-17.5912-20.3582-.1203-.1393-2.1375-2.2941-2.0676-2.3928,0,0,.2901-.4102.8599-1.0601,1.2798-1.4199,3.96-3.98,8.1001-5.8101,6.8999-3.0498,17.8398-4.1001,33.04,5.4902,2.2575,1.4271,4.6108,3.0876,7.0592,5.0112,6.6402,5.2169,16.029,5.0329,22.3365-.5817l48.0229-42.7475c2.5113-2.2354,6.387-1.8926,8.467.7489l42.3312,53.7597Z"/>
      <path class="cls-30" d="M190.5269,349.6523l-13.4521-41.2172c-1.0554.379-2.0777.8039-3.0414,1.2503-31.9857,11.7012-71.2028,43.1179-99.3028,9.3779-4.6-4.8827-5.6005-13.7708-11.4836-18.059-6.4023-4.7969-13.6646-5.5165-19.951-1.9942,2.7186,7.1987,5.4366,14.3977,8.1552,21.5964,2.1393,5.6657,4.0557,11.6086,6.1567,17.4496,39.545,29.3206,91.2052,36.7334,132.919,11.5961Z"/>
      <path class="cls-68" d="M195.5351,364.9981l-5.0082-15.3458c-41.7138,25.1373-93.374,17.7245-132.919-11.5961,1.6856,4.6864,3.4883,9.3086,5.6404,13.6591.8887,1.7968,2.1133,2.6922,3.6386,3.9943,3.4444,2.9412,7.429,5.3186,8.9706,9.7213.3868,1.1051.777,2.2093,1.1667,3.3134,3.0521-.4075,6.0801-.0687,8.8422,1.27,10.0689,4.3064,19.9539,11.023,26.2981,19.9187,1.8072-.4278,3.6148-.8554,5.4218-1.2843,16.3245-3.8665,32.6487-7.7336,48.9732-11.6001,8.5397-2.0229,17.0787-4.0454,25.6184-6.0683,2.6536-.6285,4.2034-3.3903,3.3572-5.9823Z"/>
      <path class="cls-38" d="M77.0242,368.7443c.9814,2.782,1.9664,5.5628,2.9389,8.3478,1.0002,2.8217,1.8412,5.7056,2.783,8.5475.9581,2.891,1.2664,8.631,4.2903,10.0376,3.9653,1.8445,10.9412-2.3824,14.9224-3.3265,3.4018-.8066,6.8038-1.6121,10.2057-2.4176-6.3442-8.8958-16.2292-15.6123-26.2981-19.9187-2.7621-1.3387-5.7901-1.6775-8.8422-1.27Z"/>
      <path class="cls-20" d="M74.7306,319.0634c28.1,33.74,67.3172,2.3232,99.3028-9.3779.9637-.4464,1.986-.8714,3.0414-1.2503l-2.7692-8.4858c-1.0432-3.1963-4.5636-4.8527-7.6915-3.619l-59.8058,23.5962c-7.8553,3.0993-16.7334.0384-21.171-7.1459-1.6362-2.6488-3.2739-5.0183-4.9017-7.1356-10.968-14.2381-21.6005-17.0193-29.1287-16.532-4.5171.2925-7.9149,1.773-9.6054,2.6654-.7588.4139-1.1723.6991-1.1723.6991-.0997.069,1.052,2.7866,1.1173,2.9588.4499,1.1911.8995,2.3827,1.3494,3.5739,6.2864-3.5223,13.5487-2.8027,19.951,1.9942,5.8832,4.2882,6.8837,13.1763,11.4836,18.059Z"/>
      <path class="cls-51" d="M62.9852,352.7702l-6.0868,1.6977c-1.4932.4113-3.0348.3462-4.4527-.1738-.3754-.1377-.7371-.313-1.0923-.5073-1.6924-.9614-2.9112-2.5162-3.4278-4.3888-.5263-1.8761-.2845-3.8427.6769-5.5351.2915-.5323.657-1.0057,1.0584-1.4337-2.1055-.7936-3.828-2.5436-4.4827-4.8818-.5167-1.8725-.2747-3.8397.6776-5.5354.09-.1589.1991-.3103.2954-.4565-2.1151-.7971-3.8376-2.5471-4.4832-4.882-.6546-2.3387-.074-4.7355,1.3517-6.5026-.5705-.0709-1.1366-.1823-1.6716-.3786-.3759-.1379-.7409-.304-1.0923-.5073-1.6957-.9522-2.9115-2.5169-3.4375-4.3923-.5171-1.8727-.2747-3.8397.6776-5.5354.5778-1.0238,1.3908-1.8761,2.3461-2.5055-.6534-.0477-1.3077-.1811-1.9366-.4118-.3754-.1377-.7405-.3038-1.0959-.4976-1.6922-.9619-2.911-2.5167-3.4248-4.3986-.5263-1.8761-.2874-3.8334.6776-5.5354.9522-1.6957,2.5169-2.9115,4.3889-3.4283l2.932-.8203c-.7588.4139-1.1723.6991-1.1723.6991l22.7743,60.311Z"/>
      <path class="cls-51" d="M85.6274,394.7979l-9.7138,2.7c-1.5188.4228-3.0689.3228-4.4492-.1835-1.0699-.3924-2.0321-1.022-2.814-1.8523-.7821-.8298-1.384-1.8604-1.7097-3.0341-.4086-1.4709-.3293-2.9646.1314-4.3086-.0434-.0263-.0998-.047-.1432-.0733-1.6962-.9524-2.9211-2.5204-3.4378-4.3929-.5265-1.8756-.284-3.8426.6774-5.5349.1575-.2834.3388-.5466.5271-.7975-.0188-.0069-.0411-.0042-.0599-.0111-2.1312-.7817-3.8694-2.5484-4.5206-4.8962-.5263-1.8761-.2838-3.843.6776-5.5354.9522-1.6957,2.5169-2.9115,4.3923-3.4375l7.6632-2.1316,1.3048,1.1178,11.4745,32.3711Z"/>
      <path class="cls-61" d="M134.6244,353.4303c-2.8236.3625-5.8595,1.697-6.8339,4.3718-.9509,2.6105.5046,5.6326,2.7646,7.2485,2.26,1.6159,5.1298,2.0987,7.9017,2.2861,3.5001.2367,7.0135.0748,10.5179-.0872,2.4595-.1137,4.9191-.2274,7.3786-.3411,2.1662-.1001,4.4106-.2204,6.3353-1.2195,1.7987-.9337,3.1655-2.5829,3.9924-4.4332,1.0225-2.2882,1.2202-5.0849-.0789-7.2283-1.5487-2.5552-4.812-3.5773-7.7992-3.5165-2.9873.0608-5.8851.9822-8.8463,1.381-5.1169.6892-10.1987.8792-15.3321,1.5382Z"/>
      <path class="cls-61" d="M59.9973,304.577c.4079.582.7366,1.2175,1.1592,1.789,1.3115,1.7735,3.549,2.8197,5.7509,2.6892.7964-.0472,1.6499-.2807,2.125-.9216.7617-1.0274.1862-2.4912-.5351-3.5475-2.1874-3.2032-5.5132-5.474-9.0182-7.1354-.76-.3603-1.5524-.7007-2.392-.7514s-1.745.2401-2.2308.9269c-1.6874,2.3862,4.0621,5.4113,5.141,6.9507Z"/>
      <path class="cls-4" d="M194.9168,364.9795c.846,2.5922-.7038,5.3538-3.3571,5.9823-8.5396,2.0228-17.0792,4.0455-25.6187,6.0683l-48.9729,11.6002c-5.2087,1.2363-10.4189,2.4665-15.6278,3.7018-3.9811.9441-10.9572,5.1712-14.9222,3.3267-3.0238-1.4066-3.3324-7.1465-4.2905-10.0377-.9418-2.8418-1.7824-5.7258-2.7826-8.5474-1.3588-3.8903-2.7435-7.772-4.1055-11.6614-1.5417-4.4023-5.5262-6.7801-8.9709-9.7211-1.5251-1.3021-2.7498-2.1976-3.6387-3.9945-4.8341-9.7721-7.9409-20.897-11.7969-31.1083-3.1683-8.3902-6.3365-16.7804-9.5048-25.1707-.065-.1722-1.2168-2.8898-1.1172-2.9585,0,0,.4136-.2852,1.1723-.6991,1.6905-.8924,5.0883-2.3729,9.6054-2.6654,7.5281-.4872,18.1606,2.2939,29.1287,16.532,1.628,2.1172,3.2655,4.4865,4.9018,7.1356,4.4376,7.1844,13.3155,10.2448,21.1707,7.1456l59.8062-23.596c3.1275-1.2339,6.6481.4225,7.6912,3.6187l21.2296,65.0488Z"/>
      <polyline class="cls-14" points="429.6522 283.6957 404.087 367.1739 358.6957 394.8261"/>
      <polyline class="cls-14" points="435.913 289.9565 410.3478 373.4348 364.9565 401.087"/>
      <path class="cls-8" d="M335.2184,375.5257c-4.0049,1.0194-8.2005,1.5613-12.5227,1.5613-27.9504,0-50.6087-22.6583-50.6087-50.6087,0-7.3776,1.336-11.4183,4.1739-17.7391"/>
      <path class="cls-19" d="M237.9897,317.2197l-38.54,6.96-5.7603-31.8799c13.0303-4.6704,26.7603-7.4902,38.8003-5.5703l5.5,30.4902Z"/>
      <rect class="cls-19" x="210.6353" y="443.2598" width="41.9588" height="34.0567" transform="translate(-58.5638 34.4866) rotate(-7.5626)"/>
      <g>
        <path class="cls-1" d="M510.8696,248.9794c-.0298.2803-.0698.5503-.1299.8301l-2.8003,13.1201-11.3599,53.21c-1.1201,5.21-6.2397,8.54-11.46,7.4199-5.21-1.1099-8.5298-6.2397-7.4199-11.4497l6.6201-30.9902,6.27-29.3799,17.8496-9.52,2.4302,6.7598Z"/>
        <circle class="cls-2" cx="487.7361" cy="311.3159" r="5.7391"/>
      </g>
      <rect class="cls-10" x="281.0566" y="403.0381" width="163.9476" height="18.7826" transform="translate(538.6895 -108.1788) rotate(60)"/>
      <rect class="cls-71" x="433.126" y="348.7302" width="39.1304" height="22.9565" transform="translate(125.2684 -116.7337) rotate(17.0208)"/>
      <rect class="cls-71" x="438.1659" y="341.1365" width="39.1304" height="5.2174" transform="translate(120.6701 -118.93) rotate(17.0208)"/>
      <rect class="cls-71" x="356.9521" y="328.3824" width="39.1304" height="22.9565" transform="translate(115.9757 -95.3274) rotate(17.0208)"/>
      <rect class="cls-71" x="361.992" y="320.7887" width="39.1304" height="5.2174" transform="translate(111.3773 -97.5238) rotate(17.0208)"/>
      <path class="cls-21" d="M438.8696,228.8696c-3.73,1.5986-6.8818,4.0562-9.022,7.207,4.3755,9.8838,15.3608,9.4614,15.3608,9.4614,11.8027-2.2666,14.6875-8.8853,15.2397-13.3521-5.4238-4.9131-14.4385-5.6963-21.5786-3.3164Z"/>
      <path class="cls-51" d="M460.3364,227.8491c-9.8857-.5898-16.9258-13.4141-16.9258-13.4141-.1494,7.96-15.1279,15.7725-15.1279,15.7725.2793,2.2822.8325,4.2153,1.5649,5.8691,2.1401-3.1509,5.292-5.6084,9.022-7.207,7.1401-2.3799,16.1548-1.5967,21.5786,3.3164.3096-2.5059-.1118-4.3369-.1118-4.3369Z"/>
      <path class="cls-25" d="M443.0696,214.5028c-1.4286,10.2018-10.8418,17.316-21.025,15.89-10.1832-1.426-17.2803-10.8521-15.8517-21.0539"/>
      <path class="cls-25" d="M443.882,214.8323c3.3766,9.7322,13.9891,14.8893,23.7036,11.5188,9.7145-3.3705,14.8523-13.9923,11.4757-23.7245"/>
      <path class="cls-5" d="M460.2243,228.3422c.4757,1.2518.7322,2.5836.7322,3.9649,0,7.3102-7.1829,13.2364-16.0435,13.2364s-16.0435-5.9261-16.0435-13.2364c0-.672.0607-1.3322.1778-1.9773"/>
      <path class="cls-13" d="M446.4446,260.1715c5.0686-.2714,10.0288-1.8538,13.8644-4.723,3.4137-2.5536,6.1707-5.9346,8.3525-9.5764.4179-.6977,1.8936-4.8882,2.5839-5.1449,14.8308-5.5144,29.3719-14.3166,40.3461-25.7433,32.3098-33.6422,7.6835-92.6824-26.2902-115.5186-22.6717-15.2393-52.1394-18.9384-77.4596-8.3519-10.5797,4.4234-20.359,10.9401-28.3889,19.1379-28.6448,29.2435-40.8038,92.0476-2.3502,118.4492,13.0608,8.9673,29.0831,14.6422,44.7232,17.0387.2498.0383,1.3067,2.5055,1.4697,2.7702,1.3917,2.2596,3.1181,4.3321,5.1236,6.0721,4.7206,4.0956,11.464,5.9414,18.0255,5.59Z"/>
      <path class="cls-29" d="M424.1738,178.3041c-6.3203-11.9705-14.6298-27.8446-30.4863-21.6033-4.4892,1.5257-8.8188,4.1433-13.3398,6.7342,2.9243-4.3135,6.6782-8.1426,11.5068-10.7979,18.2252-10.039,31.9473,8.7408,32.3193,25.667h0Z"/>
      <path class="cls-29" d="M455.436,175.4614c-2.7258-16.7227,7.3387-37.6773,27.0866-31.14,5.2318,1.7284,9.6224,4.8075,13.285,8.5136-4.918-1.7212-9.6528-3.5034-14.3452-4.1836-16.7724-3.2137-21.9728,13.8582-26.0264,26.8101h0Z"/>
      <polygon class="cls-10" points="514.1694 258.1293 507.9394 262.9296 484.3198 281.1196 458.6098 300.9096 438.5195 279.5195 490.5898 251.7397 508.4394 242.2197 510.8696 248.9794 514.1694 258.1293"/>
      <path class="cls-26" d="M261.1293,418.2997s30.0011,13.309,52.6968,4.7003"/>
    </g>
  </g>
</svg>