<svg width="51" height="37" viewBox="0 0 51 37" fill="none" xmlns="http://www.w3.org/2000/svg">
<path d="M16.8037 16.7324C17.3934 17.6216 17.9499 18.2766 18.3541 18.7131C19.2728 19.7067 20.1253 20.356 21.7927 21.6155C22.4236 22.0919 22.9522 22.4737 23.3136 22.7307C22.7291 24.3834 22.1439 26.0369 21.5593 27.6896C21.4835 27.8479 21.3805 28.0241 21.2399 28.1995C20.8107 28.7362 20.2865 28.9467 20.0053 29.0324C20.2946 29.0421 20.7599 29.0152 21.2774 28.7827C21.577 28.6481 21.8126 28.4809 21.9856 28.3357C22.6121 26.6373 23.2385 24.9397 23.865 23.2413C23.8974 23.1777 24.0572 22.8465 23.9467 22.4631C23.8886 22.2608 23.7789 22.1286 23.7148 22.0626C22.8292 21.3896 21.9444 20.7174 21.0588 20.0444C20.2733 19.4473 19.4878 18.8509 18.7023 18.2538C18.5101 17.7464 18.318 17.2398 18.1259 16.7324H16.8037Z" fill="#CDCDCF" stroke="#0F0505" stroke-width="0.3" stroke-miterlimit="10"/>
<path d="M18.3833 15.8203C19.0437 16.8196 19.6672 17.5546 20.1199 18.0457C21.1491 19.1616 22.1039 19.8917 23.9716 21.3063C24.6783 21.8414 25.2709 22.2705 25.675 22.5593C25.0199 24.4159 24.3647 26.2734 23.7095 28.13C23.6241 28.307 23.5085 28.5061 23.3517 28.7035C22.871 29.3063 22.2835 29.5437 21.9692 29.6392C22.2931 29.6506 22.815 29.6196 23.3937 29.3586C23.7294 29.2076 23.9929 29.02 24.1865 28.8561C24.8881 26.948 25.5904 25.0408 26.292 23.1327C26.328 23.0609 26.5076 22.6898 26.3832 22.2582C26.3177 22.0306 26.1955 21.883 26.1234 21.8088C25.1318 21.0534 24.1401 20.2972 23.1485 19.5418C22.2688 18.8712 21.3883 18.2007 20.5086 17.5301C20.2937 16.9599 20.078 16.3905 19.863 15.8203H18.3818H18.3833Z" fill="#CDCDCF" stroke="#0F0505" stroke-width="0.3" stroke-miterlimit="10"/>
<path d="M19.835 15.7739C20.6985 16.5595 21.4678 17.1003 22.0162 17.4511C23.2633 18.2481 24.3521 18.6927 26.4789 19.5484C27.2835 19.8723 27.9534 20.1243 28.4106 20.2924C28.1927 22.2714 27.9748 24.2504 27.7569 26.2294C27.7142 26.4244 27.6472 26.6487 27.5389 26.8829C27.2084 27.5991 26.6924 27.9907 26.4097 28.1701C26.7262 28.0918 27.2246 27.9181 27.7267 27.5061C28.0175 27.2671 28.2309 27.0126 28.3819 26.8005C28.6336 24.7595 28.8854 22.7184 29.1379 20.6766C29.157 20.5967 29.2469 20.188 29.0304 19.8046C28.9163 19.6023 28.7647 19.4929 28.6778 19.4407C27.5478 18.9823 26.4178 18.523 25.2877 18.0646C24.2851 17.6575 23.2824 17.2504 22.2798 16.8434C21.9433 16.3507 21.6069 15.8579 21.2712 15.3652C20.7927 15.5015 20.3149 15.6369 19.8364 15.7731L19.835 15.7739Z" fill="#CDCDCF" stroke="#0F0505" stroke-width="0.3" stroke-miterlimit="10"/>
<path d="M22.0037 16.2453C22.8996 16.4166 23.6291 16.4582 24.1349 16.4639C25.284 16.477 26.1785 16.3146 27.921 15.9875C28.5806 15.8643 29.1217 15.7493 29.4897 15.6686C30.1994 17.1337 30.9098 18.5996 31.6195 20.0647C31.6762 20.218 31.7284 20.4024 31.7593 20.612C31.8536 21.2516 31.6887 21.7451 31.5827 21.9923C31.7535 21.8014 32.0008 21.4653 32.148 20.9628C32.2334 20.6716 32.2622 20.4032 32.2688 20.1911C31.554 18.6681 30.8391 17.1451 30.1243 15.6212C30.1022 15.5576 29.9852 15.2354 29.6797 15.0633C29.5185 14.9727 29.3734 14.9621 29.2954 14.9629C28.3678 15.1334 27.4395 15.3039 26.512 15.4752C25.6889 15.627 24.8659 15.7779 24.0421 15.9296C23.6129 15.7338 23.1837 15.538 22.7546 15.3414C22.5043 15.6425 22.2532 15.9435 22.0029 16.2445L22.0037 16.2453Z" fill="#CDCDCF" stroke="#0F0505" stroke-width="0.3" stroke-miterlimit="10"/>
<path d="M23.4705 15.1398C24.3664 15.3111 25.0959 15.3527 25.6017 15.3584C26.7508 15.3715 27.6453 15.2092 29.3878 14.882C30.0474 14.7589 30.5885 14.6438 30.9565 14.5631C31.6662 16.0282 32.3766 17.4941 33.0863 18.9592C33.143 19.1125 33.1952 19.2969 33.2261 19.5066C33.3204 20.1461 33.1555 20.6396 33.0495 20.8868C33.2203 20.6959 33.4676 20.3598 33.6148 19.8573C33.7002 19.5661 33.7289 19.2977 33.7356 19.0856C33.0208 17.5626 32.3059 16.0396 31.5911 14.5158C31.569 14.4521 31.452 14.1299 31.1465 13.9578C30.9853 13.8673 30.8402 13.8566 30.7622 13.8575C29.8346 14.028 28.9063 14.1984 27.9787 14.3698C27.1557 14.5215 26.3327 14.6724 25.5089 14.8241C25.0797 14.6284 24.6505 14.4326 24.2214 14.236C23.9711 14.537 23.72 14.838 23.4697 15.139L23.4705 15.1398Z" fill="#CDCDCF" stroke="#0F0505" stroke-width="0.3" stroke-miterlimit="10"/>
<path d="M25.1719 14.3518C25.8145 14.0736 26.3041 13.7832 26.6346 13.567C27.3863 13.0759 27.9097 12.5808 28.9271 11.6108C29.3121 11.2438 29.6235 10.9338 29.8333 10.7217C30.8139 11.3653 31.7944 12.0089 32.7743 12.6534C32.8656 12.7284 32.9649 12.8255 33.0592 12.9479C33.347 13.3223 33.4147 13.7155 33.4331 13.9219C33.4766 13.7236 33.5185 13.3973 33.4361 13.0066C33.3882 12.7798 33.3117 12.593 33.241 12.4527C32.2369 11.7732 31.2335 11.0945 30.2293 10.4149C30.1925 10.3831 30.0019 10.2249 29.7427 10.2461C29.6058 10.2575 29.5079 10.3138 29.4578 10.3481C28.9153 10.8628 28.3727 11.3767 27.8302 11.8915C27.3487 12.3475 26.8673 12.8043 26.3858 13.2603C26.0376 13.3198 25.6894 13.3786 25.3412 13.4381C25.2845 13.7424 25.2286 14.0475 25.1719 14.3518Z" fill="#CDCDCF" stroke="#0F0505" stroke-width="0.3" stroke-miterlimit="10"/>
<path d="M10.8517 19.4807C11.6284 19.4685 12.3432 19.9286 12.6943 20.6693C13.1647 21.6612 12.7363 22.6369 12.6936 22.7315C12.5515 22.0291 12.2799 21.5911 12.1047 21.3578C11.8897 21.0714 11.6563 20.7606 11.2529 20.5224C10.9967 20.3715 10.7862 20.3177 10.714 20.1056C10.6419 19.8951 10.7486 19.6536 10.8517 19.4807Z" fill="#B5B5B7" stroke="#070405" stroke-width="0.3" stroke-miterlimit="10"/>
<path d="M6.44141 21.6164L6.75501 20.8064C6.98175 20.7681 7.32113 20.7403 7.72013 20.8252C8.25532 20.9394 8.63886 21.1996 8.84794 21.3668C8.86487 21.4615 8.90536 21.7437 8.77285 22.0472C8.67273 22.2772 8.52181 22.4069 8.44673 22.464C8.12649 22.3988 7.74 22.2894 7.31892 22.1026C6.97513 21.9501 6.68213 21.7788 6.44214 21.6164H6.44141Z" fill="#ADADA6" stroke="#070405" stroke-width="0.3" stroke-miterlimit="10"/>
<path d="M8.94741 21.6155C9.72406 21.6032 10.4389 22.0633 10.79 22.804C11.2604 23.796 10.832 24.7716 10.7893 24.8663C10.6472 24.1639 10.3756 23.7258 10.2004 23.4925C9.9854 23.2062 9.75204 22.8954 9.34862 22.6572C9.09243 22.5063 8.88189 22.4524 8.80975 22.2403C8.7376 22.0299 8.84435 21.7884 8.94741 21.6155Z" fill="#B5B5B7" stroke="#070405" stroke-width="0.3" stroke-miterlimit="10"/>
<path d="M12.4629 17.5793L12.7765 16.7693C13.0032 16.731 13.3426 16.7032 13.7416 16.7881C14.2768 16.9023 14.6603 17.1625 14.8694 17.3297C14.8864 17.4243 14.9268 17.7066 14.7943 18.0101C14.6942 18.2401 14.5433 18.3698 14.4682 18.4269C14.148 18.3616 13.7615 18.2523 13.3404 18.0655C12.9966 17.913 12.7036 17.7417 12.4636 17.5793H12.4629Z" fill="#ADADA6" stroke="#070405" stroke-width="0.3" stroke-miterlimit="10"/>
<path d="M14.9689 17.5803C15.7455 17.5681 16.4604 18.0282 16.8115 18.7689C17.2819 19.7608 16.8535 20.7365 16.8108 20.8311C16.6687 20.1287 16.3971 19.6907 16.2218 19.4574C16.0069 19.171 15.7735 18.8602 15.3701 18.622C15.1139 18.4711 14.9034 18.4173 14.8312 18.2052C14.7591 17.9947 14.8658 17.7533 14.9689 17.5803Z" fill="#B5B5B7" stroke="#070405" stroke-width="0.3" stroke-miterlimit="10"/>
<path d="M10.9446 17.2188L10.6436 18.0345C10.7783 18.2409 10.9991 18.5272 11.3333 18.7825C11.7817 19.1243 12.219 19.2451 12.4729 19.2924C12.5458 19.2402 12.7556 19.073 12.8572 18.7556C12.9345 18.515 12.9124 18.3053 12.8962 18.2058C12.629 17.9986 12.2882 17.7702 11.8722 17.5695C11.5328 17.4056 11.217 17.2946 10.9439 17.2188H10.9446Z" fill="#ADADA6" stroke="#070405" stroke-width="0.3" stroke-miterlimit="10"/>
<path d="M12.8957 18.3967C13.6723 18.3845 14.3871 18.8446 14.7383 19.5853C15.2087 20.5772 14.7802 21.5529 14.7375 21.6475C14.5955 20.9451 14.3238 20.5071 14.1486 20.2738C13.9336 19.9874 13.7003 19.6766 13.2969 19.4384C13.0407 19.2875 12.8301 19.2337 12.758 19.0216C12.6858 18.8111 12.7926 18.5697 12.8957 18.3967Z" fill="#B5B5B7" stroke="#070405" stroke-width="0.3" stroke-miterlimit="10"/>
<path d="M40.335 20.3132C41.2419 19.7226 42.9211 18.813 45.1716 18.6148C46.7234 18.4785 48.0154 18.7273 48.8936 18.9802C48.6161 18.9509 47.7879 18.906 47.0017 19.4942C46.6027 19.7927 46.3546 20.1492 46.2125 20.3964C46.1249 20.3482 45.7922 20.1802 45.3858 20.2993C44.8661 20.451 44.646 20.9486 44.615 21.0212C44.5429 21.0049 44.1225 20.916 43.7567 21.2154C43.5542 21.3818 43.4593 21.5923 43.418 21.7016H41.7513L40.3357 20.3132H40.335Z" fill="#407BB9" stroke="#070405" stroke-width="0.3" stroke-miterlimit="10"/>
<path d="M40.3337 25.717C41.6368 25.5033 44.5365 24.9746 47.0122 24.0088C47.3155 23.8905 48.1187 23.5675 48.8917 22.7868C49.2068 22.4686 50.2345 21.431 50.1446 20.1413C50.1365 20.0206 50.1196 19.9219 50.1071 19.8574C48.9351 21.1569 47.7786 21.6431 47.1499 21.843C46.0486 22.1929 45.0644 22.1415 43.8666 22.0787C42.9832 22.033 42.2515 21.9164 41.7361 21.8152C41.2687 23.1155 40.8005 24.4167 40.333 25.717H40.3337Z" fill="#407BB9" stroke="#070405" stroke-width="0.3" stroke-miterlimit="10"/>
<path d="M41.9 21.8967C41.4163 20.8567 40.8252 20.4382 40.4969 20.2579C38.6785 19.2627 36.1925 20.8232 35.5336 21.2376C35.3054 21.3812 35.0964 21.5411 34.6569 21.7825C33.8692 22.2141 33.6306 22.1969 33.3605 22.5404C33.3207 22.5909 32.9195 23.1196 33.0285 23.7844C33.1035 24.242 33.3803 24.5251 33.5298 24.6727C33.8434 24.9836 34.1629 25.0904 35.0338 25.3115C35.8804 25.5268 36.3037 25.6337 36.6055 25.6835C38.136 25.9339 39.2822 25.8311 39.5899 25.7993C40.6139 25.6949 41.1344 25.6345 41.5253 25.2275C42.1083 24.6205 42.1356 23.6922 42.1267 23.3113" fill="#5D90BC"/>
<path d="M41.9 21.8967C41.4163 20.8567 40.8252 20.4382 40.4969 20.2579C38.6785 19.2627 36.1925 20.8232 35.5336 21.2376C35.3054 21.3812 35.0964 21.5411 34.6569 21.7825C33.8692 22.2141 33.6306 22.1969 33.3605 22.5404C33.3207 22.5909 32.9195 23.1196 33.0285 23.7844C33.1035 24.242 33.3803 24.5251 33.5298 24.6727C33.8434 24.9836 34.1629 25.0904 35.0338 25.3115C35.8804 25.5268 36.3037 25.6337 36.6055 25.6835C38.136 25.9339 39.2822 25.8311 39.5899 25.7993C40.6139 25.6949 41.1344 25.6345 41.5253 25.2275C42.1083 24.6205 42.1356 23.6922 42.1267 23.3113" stroke="#070405" stroke-width="0.3" stroke-miterlimit="10"/>
<path d="M33.1086 23.2879C33.0828 23.4339 33.0593 23.6794 33.1373 23.9519C33.2757 24.4348 33.6423 24.6836 33.8771 24.8378C34.0788 24.9699 34.2541 25.0401 34.8989 25.2122C35.5453 25.3843 35.8677 25.47 36.3183 25.5508C36.5008 25.5834 37.1185 25.6903 37.9393 25.7384C38.2448 25.7563 38.6909 25.7808 39.274 25.7523C39.4396 25.7441 39.5927 25.7327 39.7326 25.7204C39.9034 25.7025 40.1581 25.6731 40.4673 25.6291C40.7198 25.5932 41.4766 25.4806 42.9636 25.1282C43.4068 25.023 43.9943 24.8778 44.6877 24.6893C44.9439 24.6216 45.3356 24.5123 45.8082 24.3532C46.908 23.9837 47.575 23.7528 48.306 23.1973C48.4326 23.1011 48.9001 22.7372 49.3631 22.1376C49.6105 21.8179 49.7658 21.5479 49.8821 21.2599C49.8821 21.2599 49.994 20.9834 50.0632 20.5934C50.0632 20.5934 50.1324 20.2035 50.0669 20.0534C50.0669 20.0534 50.0654 20.051 50.0654 20.0469C50.0654 20.0469 49.4942 21.0029 49.4515 21.0739C48.8861 22.0096 47.1149 23.0374 46.2624 23.3719C44.3616 24.1175 39.4904 24.3728 33.1086 23.2879Z" fill="#35609B"/>
<path d="M42.1268 23.4746C42.1312 23.7071 42.1076 24.1558 41.8669 24.6126C41.3899 25.5189 40.4689 25.6755 40.3379 25.6959" stroke="#070405" stroke-width="0.3" stroke-miterlimit="10"/>
<path d="M33.2026 22.9703C33.2262 22.9002 33.2652 22.8031 33.3307 22.6995C33.355 22.6603 33.4772 22.4735 33.7158 22.321C33.8048 22.2647 33.8137 22.2737 34.1103 22.1334C34.1103 22.1334 34.1884 22.0966 34.3952 21.9947C34.8929 21.7491 35.9301 20.997 37.0013 20.5231C37.6454 20.2384 38.1033 20.1413 38.2071 20.1201C38.6238 20.0352 39.1163 19.9406 39.7317 20.0752C39.9798 20.1299 40.3979 20.2269 40.8367 20.5712C41.1893 20.8477 41.4058 21.1667 41.5257 21.3763C41.1687 21.1243 40.6055 20.7955 39.8716 20.6544C39.2738 20.5394 38.5192 20.5345 36.7863 21.1871C35.8698 21.5321 34.6198 22.0828 33.2012 22.9695L33.2026 22.9703Z" fill="#93B1D8"/>
<path d="M40.5957 20.2152C40.9623 19.9998 41.4371 19.7461 42.0077 19.5063C42.9242 19.1196 43.6486 18.9507 43.8289 18.91C44.105 18.848 44.8581 18.6897 45.8527 18.6669C46.4939 18.6522 47.339 18.6905 48.3159 18.8961C47.244 18.8806 45.9911 18.9434 44.6063 19.1669C43.053 19.4174 41.7051 19.8097 40.5964 20.2152H40.5957Z" fill="#E94E1B"/>
<path d="M28.2775 20.4946C28.2186 20.5534 28.0706 20.7165 28.0081 20.9874C27.9477 21.25 28.0014 21.4654 28.0272 21.5494C29.194 22.3178 30.4794 23.0708 31.8869 23.7707C32.2867 23.9697 32.6812 24.1566 33.0714 24.3328C33.0022 24.1394 32.8785 23.7177 32.9588 23.194C33.0081 22.8693 33.1178 22.6213 33.2032 22.4647C33.0906 22.3415 32.919 22.1694 32.6886 21.9981C31.9782 21.4695 31.2884 21.3781 30.8511 21.2998C30.2261 21.188 29.3604 20.9686 28.2782 20.4922L28.2775 20.4946Z" fill="#407BB9" stroke="#070405" stroke-width="0.3" stroke-miterlimit="10"/>
<path d="M25.1201 19.6615C25.126 19.6159 25.1636 19.3401 25.3896 19.1696C25.5493 19.0489 25.7135 19.0489 25.7716 19.0514C26.6072 19.5326 27.4427 20.0139 28.2775 20.4952C28.226 20.5279 28.0398 20.6568 27.9514 20.926C27.8587 21.2107 27.9411 21.4554 27.9625 21.5125C27.015 20.8958 26.0676 20.2782 25.1201 19.6615Z" fill="#407BB9" stroke="#070405" stroke-width="0.3" stroke-miterlimit="10"/>
<path d="M22.3572 17.627C22.6009 17.707 22.7731 17.6801 22.8894 17.6344C23.0661 17.565 23.2906 17.3848 23.2906 17.3848C24.1174 17.9403 24.9448 18.4958 25.7715 19.0513C25.7539 19.0489 25.4064 19.0146 25.2201 19.301C25.1281 19.4429 25.12 19.5938 25.12 19.6615C24.1991 18.9836 23.2781 18.3058 22.3564 17.6279L22.3572 17.627Z" fill="#407BB9" stroke="#070405" stroke-width="0.3" stroke-miterlimit="10"/>
<path d="M40.042 13.6482C40.9489 14.2388 42.6281 15.1483 44.8786 15.3466C46.4304 15.4828 47.7224 15.234 48.6007 14.9811C48.3231 15.0105 47.4949 15.0554 46.7087 14.4672C46.3097 14.1686 46.0616 13.8121 45.9195 13.565C45.8319 13.6131 45.4992 13.7811 45.0928 13.662C44.5731 13.5103 44.353 13.0127 44.3221 12.9401C44.2499 12.9564 43.8296 13.0453 43.4637 12.746C43.2612 12.5795 43.1663 12.3691 43.1251 12.2598H41.4584L40.0427 13.6482H40.042Z" fill="#407BB9" stroke="#070405" stroke-width="0.3" stroke-miterlimit="10"/>
<path d="M40.0427 8.24805C41.3457 8.46177 44.2455 8.99038 46.7212 9.95623C47.0245 10.0745 47.8277 10.3976 48.6007 11.1782C48.9157 11.4964 49.9434 12.534 49.8536 13.8237C49.8455 13.9445 49.8286 14.0432 49.8161 14.1076C48.6441 12.8081 47.4876 12.3219 46.8589 12.1221C45.7576 11.7721 44.7733 11.8235 43.5756 11.8863C42.6922 11.932 41.9604 12.0486 41.4451 12.1498C40.9777 10.8495 40.5095 9.54836 40.042 8.24805H40.0427Z" fill="#407BB9" stroke="#070405" stroke-width="0.3" stroke-miterlimit="10"/>
<path d="M41.608 12.0658C41.1244 13.1059 40.5332 13.5243 40.2049 13.7046C38.3865 14.6998 35.9005 13.1393 35.2416 12.7249C35.0134 12.5813 34.8044 12.4215 34.3649 12.18C33.5772 11.7485 33.3386 11.7656 33.0685 11.4222C33.0287 11.3716 32.6275 10.843 32.7365 10.1781C32.8116 9.72049 33.0884 9.43742 33.2378 9.28977C33.5514 8.97897 33.8709 8.87211 34.7418 8.65104C35.5884 8.43568 36.0117 8.32881 36.3135 8.27905C37.844 8.02862 38.9902 8.1314 39.2979 8.16322C40.3219 8.26763 40.8424 8.328 41.2333 8.73506C41.8163 9.34198 41.8436 10.2703 41.8347 10.6513" fill="#5D90BC"/>
<path d="M41.608 12.0658C41.1244 13.1059 40.5332 13.5243 40.2049 13.7046C38.3865 14.6998 35.9005 13.1393 35.2416 12.7249C35.0134 12.5813 34.8044 12.4215 34.3649 12.18C33.5772 11.7485 33.3386 11.7656 33.0685 11.4222C33.0287 11.3716 32.6275 10.843 32.7365 10.1781C32.8116 9.72049 33.0884 9.43742 33.2378 9.28977C33.5514 8.97897 33.8709 8.87211 34.7418 8.65104C35.5884 8.43568 36.0117 8.32881 36.3135 8.27905C37.844 8.02862 38.9902 8.1314 39.2979 8.16322C40.3219 8.26763 40.8424 8.328 41.2333 8.73506C41.8163 9.34198 41.8436 10.2703 41.8347 10.6513" stroke="#070405" stroke-width="0.3" stroke-miterlimit="10"/>
<path d="M32.8156 10.6728C32.7898 10.5268 32.7663 10.2812 32.8443 10.0088C32.9827 9.52584 33.3493 9.27703 33.5842 9.12285C33.7859 8.9907 33.9611 8.92055 34.606 8.74842C35.2523 8.5763 35.5748 8.49065 36.0253 8.40989C36.2079 8.37726 36.8255 8.27039 37.6463 8.22226C37.9518 8.20432 38.398 8.17984 38.981 8.2084C39.1466 8.21655 39.2998 8.22797 39.4396 8.24021C39.6104 8.25816 39.8651 8.28752 40.1743 8.33157C40.4268 8.36747 41.1836 8.48004 42.6707 8.83245C43.1139 8.93768 43.7013 9.08288 44.3948 9.27132C44.651 9.33903 45.0426 9.44834 45.5152 9.60741C46.6151 9.97695 47.282 10.2078 48.013 10.7633C48.1397 10.8596 48.6071 11.2234 49.0702 11.823C49.3175 12.1428 49.4729 12.4128 49.5892 12.7008C49.5892 12.7008 49.7011 12.9773 49.7703 13.3672C49.7703 13.3672 49.8395 13.7572 49.774 13.9072C49.774 13.9072 49.7725 13.9097 49.7725 13.9138C49.7725 13.9138 49.2012 12.9577 49.1585 12.8867C48.5931 11.9511 46.8219 10.9232 45.9694 10.5888C44.0687 9.84317 39.1974 9.58783 32.8156 10.6728Z" fill="#93B1D8"/>
<path d="M41.8348 10.4889C41.8392 10.2564 41.8156 9.80772 41.5749 9.3509C41.0979 8.4446 40.1769 8.28797 40.0459 8.26758" stroke="#070405" stroke-width="0.3" stroke-miterlimit="10"/>
<path d="M32.9097 10.9922C32.9332 11.0623 32.9722 11.1594 33.0378 11.263C33.0621 11.3022 33.1843 11.489 33.4228 11.6415C33.5119 11.6978 33.5207 11.6888 33.8174 11.8292C33.8174 11.8292 33.8954 11.8659 34.1023 11.9678C34.5999 12.2134 35.6372 12.9655 36.7083 13.4394C37.3524 13.7241 37.8103 13.8212 37.9141 13.8424C38.3308 13.9273 38.8233 14.0219 39.4387 13.8873C39.6868 13.8326 40.105 13.7356 40.5437 13.3913C40.8964 13.1148 41.1128 12.7958 41.2328 12.5862C40.8757 12.8382 40.3126 13.167 39.5786 13.3081C38.9808 13.4231 38.2263 13.428 36.4933 12.7754C35.5768 12.4304 34.3268 11.8797 32.9082 10.993L32.9097 10.9922Z" fill="#35609B"/>
<path d="M40.3027 13.748C40.6693 13.9634 41.1442 14.2171 41.7147 14.4569C42.6312 14.8436 43.3556 15.0125 43.536 15.0533C43.812 15.1152 44.5651 15.2735 45.5597 15.2963C46.2009 15.311 47.046 15.2727 48.0229 15.0671C46.9511 15.0826 45.6981 15.0198 44.3134 14.7963C42.7601 14.5459 41.4121 14.1535 40.3035 13.748H40.3027Z" fill="#E94E1B"/>
<path d="M27.9845 13.467C27.9256 13.4083 27.7777 13.2451 27.7151 12.9743C27.6547 12.7116 27.7085 12.4963 27.7342 12.4123C28.9011 11.6438 30.1864 10.8909 31.594 10.191C31.9937 9.99192 32.3883 9.80511 32.7784 9.62891C32.7092 9.82224 32.5856 10.244 32.6658 10.7677C32.7151 11.0924 32.8248 11.3404 32.9102 11.497C32.7976 11.6202 32.6261 11.7923 32.3956 11.9636C31.6852 12.4922 30.9955 12.5836 30.5582 12.6619C29.9332 12.7736 29.0674 12.9931 27.9853 13.4695L27.9845 13.467Z" fill="#407BB9" stroke="#070405" stroke-width="0.3" stroke-miterlimit="10"/>
<path d="M24.8281 14.3021C24.834 14.3478 24.8716 14.6235 25.0976 14.794C25.2573 14.9147 25.4215 14.9147 25.4796 14.9123C26.3152 14.431 27.1507 13.9497 27.9855 13.4684C27.934 13.4358 27.7478 13.3069 27.6594 13.0377C27.5667 12.753 27.6491 12.5083 27.6705 12.4512C26.723 13.0679 25.7756 13.6854 24.8281 14.3021Z" fill="#407BB9" stroke="#070405" stroke-width="0.3" stroke-miterlimit="10"/>
<path d="M1.81991 28.6116C2.07462 28.6312 2.40516 28.6231 2.77545 28.5211C2.91238 28.4836 3.03679 28.4379 3.14795 28.3889C3.19728 28.433 3.4542 28.6565 3.81492 28.6108C4.26545 28.5545 4.48336 28.132 4.50397 28.0904C4.61808 28.0545 4.79034 27.9811 4.95524 27.8269C5.14885 27.645 5.24529 27.4329 5.30639 27.2714C5.58835 26.5266 5.62883 25.5207 5.64503 24.758C5.65092 24.4692 5.65681 24.0679 5.6546 23.585C5.42271 23.598 5.01045 23.5874 4.54225 23.3835C4.04608 23.1673 3.72584 22.8385 3.56462 22.6477C3.23335 22.7374 2.79312 22.819 2.27412 22.8141C1.66237 22.8084 1.15515 22.6852 0.795898 22.5645C0.838596 23.5499 0.946076 24.6838 1.17208 25.9245C1.35391 26.9238 1.58212 27.8228 1.82064 28.6116H1.81991Z" fill="#B1B9BF" stroke="#070405" stroke-width="0.3" stroke-miterlimit="10"/>
<path d="M0.635742 16.8627C0.732916 16.131 0.94346 15.1227 1.42491 14.0231C2.07421 12.54 2.92817 11.5505 3.50238 10.9844C3.61795 11.5448 3.85868 12.3981 4.39829 13.2905C4.82453 13.9961 5.29494 14.4905 5.65493 14.8127C5.05201 16.0575 4.44982 17.3024 3.8469 18.548C3.37428 18.5073 2.57922 18.3653 1.74146 17.8294C1.25118 17.5153 0.888247 17.1572 0.635742 16.8627Z" fill="#CDD0D0"/>
<path d="M3.54202 22.7313C3.39846 23.357 3.18424 24.672 3.61122 26.1884C3.83722 26.992 4.17365 27.6046 4.45045 28.0214C4.54909 28.0092 4.69927 27.9766 4.85166 27.8754C5.07251 27.7294 5.36918 27.3925 5.5223 25.7928C5.57163 25.274 5.61359 24.5447 5.57236 23.6612C5.05852 23.689 4.69559 23.5503 4.50713 23.4598C4.25683 23.339 4.04408 23.1726 3.94985 23.0984C3.77612 22.9621 3.63993 22.8316 3.54275 22.7305L3.54202 22.7313Z" fill="#ABB6B9"/>
<path d="M3.56433 22.565C3.11306 22.6833 2.50352 22.7836 1.78796 22.7314C1.41399 22.7045 1.0805 22.6409 0.794872 22.565C0.527643 21.9679 0.0726919 20.7402 0.161768 19.1527C0.214036 18.2179 0.437831 17.4657 0.635123 16.9551C0.917812 17.2349 1.28442 17.5465 1.74085 17.8296C2.56609 18.341 3.34201 18.5458 3.88015 18.6347C3.98174 18.9325 4.23645 19.5516 4.81361 20.068C5.56302 20.7385 6.37502 20.8054 6.64961 20.8144C6.68715 21.0763 6.74752 21.7174 6.46777 22.432C6.2241 23.0561 5.84424 23.4232 5.65357 23.5847C5.43346 23.5619 5.17286 23.5121 4.88943 23.411C4.26958 23.1899 3.82862 22.8261 3.56433 22.5642V22.565Z" fill="#CDD1D1" stroke="#070405" stroke-width="0.3" stroke-miterlimit="10"/>
<path d="M1.25701 17.5449C1.14365 18.1894 1.0531 18.9978 1.06561 19.9294C1.0796 21.016 1.22978 21.9386 1.39247 22.6426C1.69356 22.6882 2.06238 22.7176 2.48126 22.6948C2.90235 22.6719 3.26822 22.6018 3.56563 22.5227C3.64661 21.3708 3.72759 20.2198 3.80857 19.0679C3.82108 18.935 3.8336 18.802 3.84611 18.6698C3.49423 18.6111 3.06504 18.5051 2.59389 18.3109C2.03441 18.0801 1.58755 17.7945 1.25701 17.5457V17.5449Z" fill="#B3BBC0"/>
<path d="M3.85099 12.0723C3.42327 12.5642 2.91237 13.2527 2.45816 14.1573C1.9745 15.1216 1.71242 16.0213 1.56445 16.7131C1.80444 16.9513 2.09965 17.2083 2.45522 17.4538C3.02574 17.8478 3.56609 18.0844 3.99601 18.2296C4.39133 17.4008 4.79328 16.5679 5.20259 15.7317C5.35277 15.4242 5.50368 15.1183 5.6546 14.8132C5.35645 14.5603 4.97217 14.1794 4.6085 13.6401C4.21171 13.0504 3.9835 12.4842 3.85099 12.0723Z" fill="#B3BBC0"/>
<path d="M3.84625 18.6699C3.96036 18.9799 4.21434 19.5477 4.74364 20.0404C5.50116 20.7444 6.33597 20.839 6.63117 20.857C6.65841 21.0797 6.67534 21.4141 6.60467 21.8073C6.57743 21.959 6.49204 22.3685 6.23364 22.8164C6.03193 23.1655 5.80299 23.4037 5.6322 23.5538C5.35613 23.5228 4.95271 23.4421 4.50439 23.2194C4.06637 23.0016 3.74908 22.7283 3.5459 22.5235C3.64602 21.2387 3.74614 19.9547 3.84699 18.6699H3.84625Z" fill="#AEB8B6"/>
<path d="M5.58624 14.8379C5.57446 15.1887 5.58845 16.0982 6.12438 16.9898C6.93269 18.3358 8.2784 18.5561 8.49557 18.5871C8.42269 18.9558 8.23571 19.6207 7.7226 20.1672C7.56579 20.3344 7.34494 20.5637 6.98422 20.6885C6.54473 20.8394 6.16119 20.7439 5.98819 20.6868C5.70845 20.5759 5.33447 20.3866 4.9524 20.0603C4.33402 19.5326 4.00643 18.9126 3.84668 18.5488L5.58698 14.8379H5.58624Z" fill="#AEB8B6"/>
<path d="M9.68314 13.6565L9.5418 12.3439C9.39015 11.883 9.16414 11.011 9.25543 9.90726C9.3445 8.84188 9.68829 8.05142 9.90694 7.63049C10.3582 7.43389 10.9 7.24464 11.5228 7.11657C12.8067 6.85226 13.9117 6.95423 14.6802 7.1027C14.229 8.3818 13.7777 9.6609 13.3272 10.94C12.1118 11.8455 10.8971 12.751 9.68167 13.6565H9.68314Z" fill="#CDD0D0"/>
<path d="M5.65493 14.8135C5.24341 14.4211 4.67877 13.7889 4.19953 12.8695C3.81746 12.1378 3.60986 11.4558 3.49207 10.9395C2.95467 11.4811 2.17212 12.4013 1.54344 13.7579C0.957447 15.0231 0.731444 16.1807 0.635742 16.9548C0.896345 17.1767 1.19817 17.4035 1.54344 17.618C2.40107 18.1507 3.21601 18.4134 3.8469 18.548C3.96027 18.8572 4.29744 19.6631 5.10059 20.2415C5.73149 20.695 6.34545 20.7905 6.65023 20.815C6.8777 20.7473 7.39891 20.5556 7.85754 20.0204C8.36697 19.4257 8.49653 18.7609 8.53408 18.5072C8.32059 18.4786 7.0507 18.2861 6.24092 17.0217C5.65198 16.1024 5.64389 15.143 5.65419 14.8143L5.65493 14.8135Z" stroke="#0F0505" stroke-width="0.3" stroke-miterlimit="10"/>
<path d="M14.8072 7.14312C15.6685 6.6398 16.6542 6.14301 17.7644 5.70577C20.4006 4.66813 22.7998 4.34183 24.6439 4.27575C24.9243 4.13055 25.2129 3.97311 25.5081 3.80343C25.8283 3.61907 26.1331 3.43308 26.4232 3.2479C26.4813 3.38658 26.5402 3.52526 26.5984 3.66475C26.6573 3.5432 26.7412 3.40126 26.8612 3.26177C27.1814 2.89142 27.5628 2.76579 27.7512 2.72011C27.8094 2.87755 27.8683 3.03499 27.9264 3.19243C28.0862 3.03173 28.3269 2.82371 28.653 2.65077C28.9975 2.46886 29.3104 2.39299 29.5298 2.35954V2.83187C29.7543 2.7405 30.0326 2.65077 30.3565 2.59611C30.8365 2.51454 31.2517 2.53738 31.5594 2.58225V3.02683C32.6533 3.1443 34.5792 3.1859 36.7722 2.31876C38.3741 1.68492 39.552 0.790035 40.3058 0.111328C39.8037 0.76801 39.1169 1.54379 38.2129 2.29102C37.5076 2.87429 36.8311 3.30664 36.2458 3.62723C36.6971 3.64028 37.1484 3.65251 37.5989 3.66557C37.2183 4.07426 36.8708 4.35651 36.6213 4.54005C34.6093 6.02146 31.8708 6.30861 30.3057 7.14312C29.9295 7.3438 29.6189 7.57792 29.479 7.95561C29.373 8.24194 29.3031 8.77871 29.3038 8.77463C29.8486 9.09114 30.1997 9.6532 30.1997 10.2471C30.1997 10.6044 30.0723 10.8842 29.9833 11.04C29.2905 11.9381 28.3262 13.0043 27.0357 13.9946C26.7655 14.2018 23.6022 16.5716 19.342 16.9248C17.57 17.0717 16.4584 16.7992 15.5331 16.2445C15.1031 15.9867 14.7822 15.7102 14.5775 15.5152C14.1903 14.9931 13.711 14.188 13.4652 13.1063C12.7746 10.0668 14.5333 7.52326 14.8057 7.14231L14.8072 7.14312Z" fill="#B8BCBD" stroke="#0F0505" stroke-width="0.3" stroke-miterlimit="10"/>
<path d="M5.96069 15.1505C5.29446 14.5925 4.18506 13.4693 3.75514 11.7048C3.68226 11.4062 3.63588 11.1174 3.60938 10.8442C3.97819 10.3066 4.5502 9.61482 5.38427 9.02095C7.14371 7.76714 8.93849 7.75408 9.68349 7.7965C9.41552 8.90919 9.1483 10.0227 8.88033 11.1354L5.96069 15.1505Z" fill="#CDD0D0"/>
<path d="M4.58496 11.2055C4.58496 11.2055 7.36473 8.78925 9.14404 9.03969C9.1065 9.54056 9.09546 10.1467 9.15656 10.8311C9.21324 11.4617 9.31851 12.0131 9.43188 12.4691V13.3713C9.03067 13.3493 8.43953 13.3705 7.7652 13.5932C6.84426 13.8975 6.21263 14.4318 5.87325 14.7671C5.7908 14.2262 5.64799 13.8298 5.53903 13.5769C5.25046 12.9064 4.93538 12.6249 4.72042 11.8859C4.63723 11.5987 4.60189 11.3548 4.58496 11.2055Z" fill="#B3BBC0"/>
<path d="M5.6543 14.8972C5.6543 15.2219 5.6911 16.0988 6.2366 16.9521C6.93302 18.0411 7.95924 18.312 8.20364 18.3683C8.55995 18.4123 9.24679 18.4417 10.0205 18.1048C10.5719 17.8641 10.9613 17.5272 11.1984 17.2858C10.9621 17.1552 9.96235 16.5654 9.5442 15.2447C9.28728 14.4331 9.36899 13.7193 9.43157 13.3701C8.89049 13.3595 7.95997 13.4256 6.94995 13.9526C6.38899 14.2454 5.95981 14.5987 5.6543 14.898V14.8972Z" fill="#AEB8B6"/>
<path d="M10.0081 12.9886C9.89989 12.1672 9.85204 11.1369 10.0081 9.97523C10.0574 9.60814 10.1222 9.26552 10.1958 8.94738C10.3423 8.77281 10.5521 8.55826 10.8348 8.36411C11.2596 8.07289 11.6402 7.97418 11.85 7.91953C12.5508 7.7368 13.5108 7.48473 14.682 7.19922C14.367 7.8404 14.0217 8.67573 13.7552 9.69053C13.4622 10.804 13.3525 11.7968 13.3179 12.5718L10.0088 12.9886H10.0081Z" fill="#B3BBC0"/>
<path d="M9.54468 13.8518C9.54468 14.1765 9.58149 15.0534 10.127 15.9067C10.7321 16.8538 11.5934 17.1499 12.094 17.3228C13.478 17.8017 14.6684 17.3873 15.0829 17.2364C15.5039 17.083 15.8352 16.8946 16.0605 16.7502C15.6792 16.5699 14.3482 15.8806 13.6856 14.2336C13.3838 13.4823 13.3234 12.7872 13.322 12.3239C11.5868 11.8401 10.1204 12.1615 9.68308 13.0703C9.59916 13.2457 9.52701 13.4961 9.54468 13.851V13.8518Z" fill="#AEB8B6"/>
<path d="M3.60938 10.8448C3.92814 10.3464 4.38014 9.76887 5.00809 9.24842C6.88973 7.68707 9.0121 7.74335 9.76962 7.80453C9.56497 8.19365 9.26976 8.87236 9.18069 9.77621C9.05627 11.0317 9.40006 12.0081 9.5819 12.4421C9.50607 12.6876 9.0894 14.1144 9.79465 15.5526C10.282 16.5462 11.041 17.0062 11.3362 17.1629C10.5566 18.1809 9.38166 18.6891 8.26637 18.4542C6.81906 18.1499 5.69052 16.6408 5.65445 14.8143C5.16416 14.3909 4.29254 13.5058 3.85157 12.0734C3.71391 11.6263 3.64324 11.2087 3.60938 10.8448Z" stroke="#070405" stroke-width="0.3" stroke-miterlimit="10"/>
<path d="M9.77046 7.80308C10.2181 7.52735 10.8431 7.21655 11.6249 7.03219C13.0096 6.7067 14.1698 6.95061 14.8073 7.14313C14.6189 7.51185 14.3649 8.04699 14.1131 8.71509C13.6103 10.0488 13.2349 11.0441 13.3225 12.3248C13.3453 12.6527 13.4395 13.6112 13.9931 14.6407C14.6748 15.91 15.6414 16.5202 16.061 16.7511C13.9261 18.1884 11.4239 17.783 10.2342 16.1539C9.17122 14.6978 9.52017 12.762 9.58274 12.4398C9.39944 11.9422 9.09982 10.9282 9.24411 9.65565C9.33613 8.84561 9.57612 8.2134 9.77046 7.80226V7.80308Z" stroke="#1D1D1B" stroke-width="0.3" stroke-miterlimit="10"/>
<path d="M15.5466 8.17749C17.7286 8.19951 19.4211 8.42711 20.2581 8.70528C20.4974 8.78441 20.8706 8.9084 21.2968 9.20697C21.7047 9.49248 21.8652 9.73068 22.2377 10.0937C22.5203 10.3686 22.9451 10.7365 23.5407 11.0938C23.7299 11.1101 24.6552 11.1697 25.32 10.4551C26.0709 9.64829 26.1887 8.1783 25.4952 6.95223C24.6346 6.53211 22.4254 5.60949 19.6559 6.17807C17.6859 6.58269 16.285 7.56649 15.5459 8.17749H15.5466Z" fill="#AFB4B1"/>
<path d="M14.682 7.5118C14.7534 7.51017 14.8027 7.5322 14.83 7.54933C14.9846 7.64396 14.9875 7.92458 14.9897 8.03144C15.0022 8.63184 13.9135 13.6895 13.8362 14.0493C13.6389 13.5949 13.3974 12.8795 13.379 11.9862C13.3613 11.1117 13.5645 10.4583 13.8362 9.58382C13.9989 9.06011 14.2609 8.3349 14.682 7.5118Z" fill="#CDD0D0"/>
<path d="M14.5535 7.77089L14.8354 7.22433C16.4255 6.24543 17.8132 5.72661 18.8012 5.43294C20.794 4.84152 22.7087 4.71018 24.7685 4.56824C25.6519 4.50787 26.7856 4.44343 26.7856 4.44343C27.2222 4.41896 27.6565 4.3953 28.0886 4.37409C28.3684 4.3023 28.6518 4.23296 28.9404 4.16607C29.4476 4.04779 29.9452 3.94174 30.4319 3.8463C31.6679 3.78593 32.9046 3.72557 34.1407 3.66602L30.3192 4.1522C30.0719 4.20033 29.8068 4.26396 29.53 4.34635C29.0464 4.49074 28.6187 4.66695 28.2521 4.84641C27.3687 4.92554 26.0679 5.0479 24.4932 5.22166C20.3331 5.68011 19.2782 5.94115 18.6694 6.11001C17.68 6.38492 16.2408 6.8703 14.5527 7.77089H14.5535Z" fill="#CCCFD0"/>
<path d="M16.499 9.1364C17.2551 8.65592 17.9345 8.51724 18.3284 8.46992C18.7414 8.42016 20.4184 8.28393 21.5719 9.42354C22.0541 9.89913 22.088 10.2458 22.7388 10.7059C23.472 11.2247 24.033 11.2117 24.1544 11.206C24.3186 11.1986 24.6977 11.1758 25.082 10.9009C25.2763 10.7614 25.4088 10.6023 25.4906 10.4873C25.6275 10.3666 25.7813 10.2475 25.9551 10.1365C26.7892 9.60301 27.6321 9.5353 28.1643 9.55325" stroke="#070405" stroke-width="0.3" stroke-miterlimit="10"/>
<path d="M32.9102 6.86245L33.449 7.95963C34.4119 7.82014 35.6185 7.5436 36.9451 6.98807C38.681 6.26042 40.0046 5.31251 40.9138 4.54081L39.9899 4.46087L40.98 3.19727L32.9102 6.86326V6.86245Z" fill="#A6B2B6"/>
<path d="M29.5574 6.7574C30.0912 6.7574 30.524 6.27786 30.524 5.68632C30.524 5.09478 30.0912 4.61523 29.5574 4.61523C29.0236 4.61523 28.5908 5.09478 28.5908 5.68632C28.5908 6.27786 29.0236 6.7574 29.5574 6.7574Z" fill="#070405"/>
<path d="M29.461 5.58307C29.6029 5.58307 29.7179 5.4556 29.7179 5.29837C29.7179 5.14114 29.6029 5.01367 29.461 5.01367C29.3191 5.01367 29.2041 5.14114 29.2041 5.29837C29.2041 5.4556 29.3191 5.58307 29.461 5.58307Z" fill="white"/>
<path d="M30.5234 7.51239C30.7015 7.58254 31.0674 7.76282 31.2124 8.14786C31.437 8.74254 31.0726 9.65619 30.1973 10.1571C31.2809 9.42451 32.3653 8.69278 33.4489 7.96024C34.4177 7.83461 35.6633 7.56541 37.0392 6.98133C38.8031 6.23165 40.1237 5.24133 41.0049 4.46147H39.9147L41.2493 2.87891C40.1017 3.76318 38.7051 4.70864 37.0576 5.58313C35.0663 6.63953 33.2178 7.3215 31.663 7.7718" stroke="#070405" stroke-width="0.3" stroke-miterlimit="10"/>
<path d="M41.2493 2.87891L34.2402 5.76423" stroke="#070405" stroke-width="0.3" stroke-miterlimit="10"/>
<path d="M29.5565 7.30649L40.9133 3.01562C39.7921 3.90153 38.3993 4.86575 36.7319 5.75166C34.9069 6.72159 33.2152 7.35136 31.7951 7.77065C32.2854 7.59853 32.7757 7.4264 33.266 7.25346L33.4493 7.95909L30.1977 10.1559L29.3047 8.77485L29.5572 7.30649H29.5565Z" fill="#B8BCBD" stroke="#0F0505" stroke-width="0.3" stroke-miterlimit="10"/>
<path d="M30.3223 5.36886C30.4636 5.22366 30.68 5.02788 30.9738 4.85494C31.5576 4.51151 32.0942 4.46746 32.7465 4.42177C33.0976 4.3973 33.5747 4.38914 34.1422 4.45685C34.394 4.25862 34.6649 4.02287 34.9417 3.74225C35.3459 3.33274 35.6676 2.92487 35.9216 2.55859" stroke="#070405" stroke-width="0.3" stroke-miterlimit="10"/>
<path d="M1.82031 28.6117C3.20578 30.4993 4.59051 32.387 5.97597 34.2754C6.00837 34.3032 6.0334 34.3121 6.05106 34.3032C6.21302 34.22 5.71979 32.5721 4.57284 29.3597C4.55591 29.2439 4.54266 29.1191 4.5353 28.9845C4.52131 28.7438 4.52867 28.5252 4.5456 28.3359C4.50511 28.3849 4.23052 28.7071 3.79618 28.6932C3.4362 28.6818 3.20431 28.4485 3.14909 28.3898C2.94886 28.4762 2.68016 28.5652 2.35698 28.6027C2.156 28.6255 1.97491 28.6239 1.82105 28.6117H1.82031Z" fill="#B6BDC0" stroke="#0F0505" stroke-width="0.3" stroke-miterlimit="10"/>
<path d="M5.18794 27.6914C6.66248 28.8767 7.85875 29.9918 8.78191 30.9161C8.94607 31.0809 10.1026 32.3812 11 34.2762C11.3261 34.9647 11.2046 35.2314 11.1502 35.3179C10.8962 35.7184 9.93916 35.5765 8.73185 34.9565C8.94313 35.0691 9.91266 35.5944 9.84714 35.831C9.77573 36.0888 8.52204 35.8661 8.33064 35.831C8.06046 35.7421 7.73361 35.6018 7.39055 35.3725C6.66248 34.8863 6.23698 34.2509 6.01687 33.8585C5.88509 33.2271 5.71356 32.5411 5.48903 31.8142C5.2115 30.9169 4.90157 30.1199 4.59533 29.4273C4.59238 29.1753 4.5887 28.9216 4.58428 28.6662C4.58134 28.4933 4.57766 28.3204 4.57324 28.149C4.68661 28.0928 4.82059 28.0144 4.95973 27.9027C5.04881 27.8317 5.12389 27.7591 5.18794 27.6914Z" fill="#B9C1C3" stroke="#0F0505" stroke-width="0.3" stroke-miterlimit="10"/>
<path d="M5.7168 27.9707C6.95945 28.4292 7.95474 28.926 8.66735 29.3191C9.34904 29.6952 9.72302 30.024 10.4872 30.6464C10.9451 31.0192 11.2233 31.2778 11.425 31.7158C11.495 31.8667 11.9058 32.7608 11.5266 33.1932C11.2233 33.5399 10.6226 33.3522 10.5615 33.3318C9.83418 31.8904 9.07372 30.9955 8.51497 30.4465C8.06443 30.0036 7.22005 29.2694 6.52658 28.6665C6.18794 28.3721 5.90746 28.1322 5.71753 27.9707H5.7168Z" fill="#99A0A6" stroke="#070405" stroke-width="0.3" stroke-miterlimit="10"/>
<path d="M4.94727 29.8613C5.3102 30.2219 5.69521 30.6493 6.08023 31.1527C6.77885 32.0663 7.27061 32.9636 7.61661 33.7215" stroke="#0F0505" stroke-width="0.3" stroke-miterlimit="10"/>
<path d="M5.53613 29.166C6.01832 29.5674 6.55057 30.0658 7.09018 30.6792C7.80942 31.4974 8.35271 32.3034 8.75686 32.9984" stroke="#0F0505" stroke-width="0.3" stroke-miterlimit="10"/>
<path d="M8.34668 19.4797L8.66029 18.6697C8.88703 18.6313 9.2264 18.6036 9.6254 18.6884C10.1606 18.8027 10.5441 19.0629 10.7532 19.2301C10.7701 19.3247 10.8106 19.607 10.6781 19.9104C10.578 20.1405 10.4271 20.2702 10.352 20.3273C10.0318 20.262 9.64528 20.1527 9.22419 19.9659C8.8804 19.8134 8.58741 19.6421 8.34742 19.4797H8.34668Z" fill="#ADADA6" stroke="#070405" stroke-width="0.3" stroke-miterlimit="10"/>
<path d="M27.5879 13.5959C27.953 13.4099 28.3623 13.2256 28.8143 13.0608C29.0919 12.9596 29.3591 12.874 29.6131 12.803C29.87 12.741 30.1269 12.6798 30.3839 12.6178C30.5061 12.6007 30.6783 12.573 30.8822 12.5265C31.1855 12.4579 31.5323 12.3796 31.8989 12.1977C32.1315 12.0819 32.4753 11.8739 32.8338 11.4945C32.8073 11.4391 32.7808 11.3836 32.7536 11.3281C32.4944 11.5337 32.091 11.8225 31.5602 12.0778C30.9411 12.3756 30.4641 12.4759 30.1034 12.5697C29.5049 12.7255 28.6443 13.0135 27.5879 13.5951V13.5959Z" fill="#E94E1B"/>
<path d="M27.5508 13.6339C27.6089 13.5646 27.6892 13.4822 27.7952 13.4072C27.8578 13.3631 27.9174 13.3288 27.9711 13.3027" fill="#407BB9"/>
<path d="M27.5508 13.6339C27.6089 13.5646 27.6892 13.4822 27.7952 13.4072C27.8578 13.3631 27.9174 13.3288 27.9711 13.3027" stroke="#070405" stroke-width="0.3" stroke-miterlimit="10"/>
<path d="M28.2695 20.666C28.6266 20.8112 29.1875 21.0282 29.786 21.2044C30.118 21.3023 30.3448 21.3529 30.453 21.3765C30.7938 21.45 30.8829 21.4467 31.1111 21.4907C31.4041 21.5478 31.9607 21.6612 32.5106 22.0455C32.6571 22.1474 32.8639 22.3122 33.0841 22.5635" stroke="#E94E1B" stroke-width="0.3" stroke-miterlimit="10"/>
<path d="M28.2454 20.7426L28.1953 20.7189C28.2086 20.6985 28.2225 20.6765 28.2395 20.6545C28.2586 20.6292 28.277 20.6063 28.2954 20.5859C28.2785 20.6381 28.2623 20.6904 28.2454 20.7417V20.7426Z" fill="#E94E1B"/>
<path d="M25.7383 19.127C26.5061 19.6205 27.2732 20.114 28.041 20.6075C28.0565 20.5912 28.0719 20.5749 28.0881 20.5586C28.1051 20.5415 28.122 20.5243 28.1382 20.508C27.338 20.0479 26.5385 19.587 25.7383 19.127Z" fill="#E94E1B"/>
</svg>
