<svg width="50" height="50" viewBox="0 0 50 50" fill="none" xmlns="http://www.w3.org/2000/svg">
<path d="M14.2389 40.4426C14.9504 42.6928 15.9587 44.7008 17.2021 46.3442C18.8376 48.4874 21.5717 50.854 22.4952 49.6949C22.7957 49.3169 23.0134 48.4312 22.918 47.7017C22.8362 47.0331 22.5511 46.9081 22.3884 46.0255C22.291 45.4929 22.3801 45.4616 22.3356 44.351C22.291 43.2403 22.2589 42.5436 21.9656 41.8782C21.8248 41.5631 21.645 41.2921 21.4359 41.08L27.3633 39.8037C28.8183 42.1874 30.7879 43.7143 32.9207 44.112C34.5603 44.4931 34.9935 44.2088 35.2008 43.8714C35.3918 43.5557 35.5093 43.1549 35.5356 42.7295C35.5553 42.2937 35.4454 42.1156 35.4008 41.6626C35.3418 41.0597 35.4589 40.5895 35.6081 40.0084C35.7118 39.6053 35.7698 39.4944 36.4228 37.8902C36.7648 37.0513 36.8498 36.8342 36.8995 36.4546C36.9611 35.9764 36.943 35.4825 36.8467 35.0175C36.5482 33.646 35.5874 33.1602 35.4703 33.1039C35.9081 32.8293 36.3733 32.6671 36.8467 32.6244C38.1267 32.5166 39.1144 33.3554 39.9694 34.1411C42.1574 36.1516 42.4994 36.9248 43.9379 38.2885C44.6635 38.9774 47.9956 42.1328 49.0165 40.7613C49.4538 40.1739 49.3274 38.9446 49.1201 37.4903C48.719 34.7238 47.9355 30.7249 46.2616 25.9308C47.4027 23.5611 48.3104 20.9551 48.9564 18.1938C49.5502 15.6554 50.5742 11.2799 49.5917 10.1365C48.7325 9.13832 46.7114 11.0441 44.0354 13.5731C42.3096 15.1992 40.6645 17.0123 39.1133 18.9982C38.5935 19.6284 37.9776 20.0531 37.3214 20.234C36.6652 20.4148 35.9894 20.346 35.3552 20.0339C36.8135 18.5577 37.7225 16.5457 37.4727 14.8493C37.2747 13.5137 36.4166 12.7655 35.1438 11.6595C33.9561 10.6277 32.671 9.87445 31.3328 9.42573C30.9846 9.45385 30.5182 9.39919 30.1689 8.94774C29.6818 8.3229 29.8963 7.52624 29.4279 6.95295C28.9159 6.32811 28.4174 6.97326 27.8401 6.31406C27.3675 5.77514 27.5623 5.18465 27.099 4.71915C26.558 4.17554 26.1372 4.82538 25.5641 4.32083C24.9909 3.81627 25.2034 2.97118 24.6644 2.48537C24.0156 1.90115 23.4777 2.91338 22.7595 2.4057C22.0195 1.88396 22.1376 0.489005 21.4359 0.0922338C20.9654 -0.174884 20.442 0.193779 20.1135 0.492138C17.9182 2.92285 16.0651 5.98655 14.6618 9.5054C13.3366 9.84526 12.0406 10.4069 10.798 11.18C10.798 11.18 6.17861 14.0636 2.91281 20.3541C2.82264 20.5275 2.76978 20.64 1.90746 22.3474C1.56026 23.0331 1.21098 23.7236 0.795374 24.6608C0.195279 26.0152 0.131017 26.3651 0.106143 26.679C0.0522485 27.3664 0.209786 27.5429 0.209786 28.4895C0.209786 29.5033 0.0211555 29.8845 0.00249973 30.4046C-0.0648684 31.8808 1.24622 33.1961 1.9085 33.8412C5.13596 36.9451 7.3591 38.0698 7.3591 38.0698C9.59674 39.1907 11.9006 39.9852 14.2389 40.4426Z" fill="#BF3636"/>
<path d="M1.48364 26.9612C3.29435 27.7551 4.94813 29.2066 6.29995 31.1882C6.58393 31.4741 6.6399 31.999 6.50723 32.2661C6.37457 32.5332 5.97865 32.6269 5.71333 32.2255L11.0416 37.6225C13.1726 38.5964 15.3735 39.1812 17.5971 39.3642C19.4481 39.5204 23.199 39.7704 27.6266 37.371C29.9615 36.0995 32.1492 34.2824 34.1095 31.9865C35.0194 31.1782 36.0554 30.7485 37.1115 30.7413C38.1677 30.7342 39.2062 31.1499 40.1208 31.9459C41.5464 33.6024 43.0401 35.1212 44.593 36.4931C45.7995 37.56 46.9634 38.4692 48.0589 39.2455C47.6558 34.4971 46.5133 29.9596 44.7247 26.0037C46.7767 21.9674 48.1301 17.2252 48.6631 12.2041C47.9242 12.5826 47.1996 13.0222 46.4928 13.521C44.0386 15.2672 41.8221 17.6882 39.9571 20.6597C38.8517 21.5942 37.5995 22.0615 36.3326 22.0122C35.0656 21.963 33.831 21.3991 32.7591 20.3801C32.4419 20.0677 31.9776 19.5991 31.4117 19.0648C30.1151 17.8417 26.272 14.2224 23.0228 12.6837C17.737 10.1844 12.731 12.5884 12.0677 12.9227C5.35887 16.2953 2.22469 24.804 1.48364 26.9612Z" fill="url(#paint0_linear_90_250)"/>
<path d="M28.405 38.9535C28.405 38.9535 32.1797 42.7821 34.2267 42.2495C34.2267 42.2495 34.123 39.5939 34.7905 38.3677C34.7905 38.3677 37.1546 34.8045 33.8733 34.2734C33.8691 34.2734 29.8861 38.6332 28.405 38.9535Z" fill="url(#paint1_linear_90_250)"/>
<path d="M15.8796 40.8148L19.76 41.1273C19.9726 41.309 20.1635 41.5428 20.3249 41.8193C20.8193 42.669 20.8265 43.6016 21.0307 45.2231C21.1416 46.1021 21.2827 46.9717 21.4536 47.8286C19.1598 46.4108 17.2129 43.9588 15.8796 40.8086V40.8148Z" fill="url(#paint2_linear_90_250)"/>
<path d="M16.3376 9.28042C17.5164 6.60974 18.9831 4.25493 20.6772 2.31348C20.8195 3.11268 21.1606 3.79855 21.6297 4.2286C22.6153 5.09244 23.6518 4.27703 23.7119 4.2286C23.7457 4.90475 23.9327 5.54284 24.2415 6.03595C24.7597 6.83418 25.5795 7.09504 26.3579 6.72795C26.4934 7.33046 26.753 7.85202 27.0989 8.21663C27.5246 8.64864 28.0435 8.81961 28.5499 8.69464C28.6295 9.24555 28.7991 9.75779 29.0433 10.1849C29.5833 11.0987 30.2756 11.1346 31.3369 11.4611C33.6678 12.1765 34.8224 13.3887 35.2142 13.8355C36.2154 14.9805 36.2216 15.6897 36.2061 15.9271C36.1874 16.2145 36.0921 16.5598 35.465 17.3627C34.8944 18.0926 34.2681 18.7177 33.5995 19.2247C31.3773 16.4239 27.5519 12.4218 22.1987 10.4504C20.2787 9.74309 18.3136 9.35081 16.3376 9.28042Z" fill="url(#paint3_linear_90_250)"/>
<path d="M11.0458 37.6227C11.0458 37.6227 13.6566 36.134 13.9737 32.9364C13.8083 33.348 13.6099 33.7273 13.383 34.0658C12.4046 35.5295 11.1712 35.8153 10.6395 35.8872C10.6191 35.8047 10.6158 35.7148 10.6301 35.6295C10.6443 35.5441 10.6754 35.4673 10.7193 35.4092C10.7725 35.3489 10.8386 35.3205 10.9048 35.3295C10.7339 35.4438 10.5419 35.4647 10.3617 35.3889C10.2244 35.3267 10.1008 35.2096 10.0042 35.0499C11.0842 34.0507 11.9342 32.575 12.4388 30.8229C13.3228 27.7128 12.7497 24.9041 12.5984 24.2012C12.6274 27.1176 11.6739 29.7779 10.0975 31.0916C8.57598 32.36 7.04516 31.8929 6.61712 31.7398C6.59735 31.8961 6.55007 32.0415 6.48024 32.1607C6.4104 32.28 6.32057 32.3688 6.22016 32.4178C6.09739 32.4687 5.96674 32.4543 5.85015 32.3772C4.50781 30.8046 3.01079 29.5577 1.41318 28.6813C1.41318 28.6813 1.20589 30.2777 1.30954 30.5433C1.41318 30.8088 4.3069 35.2842 11.0458 37.6227Z" fill="url(#paint4_linear_90_250)"/>
<path d="M7.18393 27.7815C8.21656 27.7815 9.05366 26.5199 9.05366 24.9635C9.05366 23.4072 8.21656 22.1455 7.18393 22.1455C6.15131 22.1455 5.31421 23.4072 5.31421 24.9635C5.31421 26.5199 6.15131 27.7815 7.18393 27.7815Z" fill="#F73329"/>
<path d="M7.18397 27.3242C8.04888 27.3242 8.75002 26.2674 8.75002 24.9638C8.75002 23.6603 8.04888 22.6035 7.18397 22.6035C6.31906 22.6035 5.61792 23.6603 5.61792 24.9638C5.61792 26.2674 6.31906 27.3242 7.18397 27.3242Z" stroke="#BF3636" stroke-width="2" stroke-miterlimit="10" stroke-linecap="round"/>
<path d="M7.49066 27.0152C8.08997 27.0152 8.57581 26.2829 8.57581 25.3797C8.57581 24.4764 8.08997 23.7441 7.49066 23.7441C6.89135 23.7441 6.40552 24.4764 6.40552 25.3797C6.40552 26.2829 6.89135 27.0152 7.49066 27.0152Z" fill="#012734"/>
<path d="M12.7559 22.916C13.3966 24.8762 13.5862 27.102 13.2948 29.2425C12.7435 33.1477 10.7659 35.0988 10.3928 35.4596" stroke="#BF3636" stroke-width="2" stroke-miterlimit="10" stroke-linecap="round"/>
<path d="M16.6206 30.1776L16.69 27.8907L19.875 23.8105L25.3525 24.7665L25.9879 26.3224L24.8229 29.4341L21.9655 35.1763L19.7423 36.9712L18.0488 36.2136L16.3376 34.2734L16.4434 32.5176L18.0488 31.2289L16.6206 30.1776Z" fill="#BF3636"/>
<path d="M16.4434 32.518C16.4434 32.518 17.0082 30.8169 16.6196 30.1749C18.8684 28.1499 21.4448 27.1006 24.0643 27.1428L19.5838 34.7471C18.4222 34.4442 17.3369 33.6722 16.4434 32.5133V32.518Z" fill="url(#paint5_linear_90_250)"/>
<path d="M16.3376 34.2737C16.5449 34.8111 17.4632 37.0168 19.1609 37.5698C19.506 37.6822 20.387 37.9697 21.2338 37.3167C21.6266 37.0043 21.8556 36.6294 22.1966 36.0202C23.2206 34.2128 23.7326 33.3099 24.1368 32.4648C25.7837 29.0173 25.8656 28.091 25.7951 27.3599C25.7647 27.0478 25.7051 26.7438 25.6179 26.457C25.5733 26.646 25.5039 26.9257 25.4106 27.2537C25.0509 28.4643 24.6581 29.1688 23.4704 31.1886C22.4184 32.9772 21.98 33.688 21.4234 34.5393C20.8171 35.4625 20.5093 35.928 20.2948 36.0811C19.0479 36.9683 17.3399 35.4 16.3376 34.2737Z" fill="#E42820"/>
<path d="M7.87012 18.4263C9.03253 17.966 10.2597 18.04 11.394 18.6387C13.7571 19.9149 14.7106 23.0485 14.8868 23.6374C15.2862 23.8223 15.6497 24.1509 15.946 24.595C16.7845 25.8681 16.7036 27.602 16.6871 27.8926C17.7706 27.1419 18.8913 26.5194 20.0389 26.0305C23.1585 24.7028 24.3536 25.2776 24.8718 25.6057C25.1053 25.7524 25.3297 25.9301 25.5423 26.1368C25.6216 26.4432 25.6691 26.7661 25.6833 27.0943C25.7704 29.1438 24.4562 30.4403 22.9668 33.3693C22.503 34.2841 22.0789 35.2431 21.6972 36.2404C22.9559 35.9678 24.2041 35.595 25.4366 35.1235C28.6731 33.8844 31.7828 31.9884 34.6806 29.4875L37.6095 29.175L37.5059 23.4843L35.4942 23.4312C34.7123 23.0801 33.9462 22.6538 33.2006 22.155C30.9546 20.6507 30.0726 19.2698 27.7323 17.3687C26.7686 16.6012 25.7793 15.9093 24.7681 15.2959C23.2487 14.393 17.3918 10.922 11.678 14.657C10.2772 15.5821 8.98989 16.8563 7.87012 18.4263Z" fill="url(#paint6_linear_90_250)"/>
<path d="M15.8445 13.7461C15.8445 13.7461 17.3255 15.4488 16.4083 17.9481C16.4083 17.9481 19.2315 15.3957 15.8445 13.7461Z" fill="#F73329"/>
<path d="M16.3376 19.9951C16.3376 19.9951 17.8197 21.6978 16.9025 24.1971C16.9025 24.1971 19.7247 21.6447 16.3376 19.9951Z" fill="#F73329"/>
<path d="M17.679 16.9648C17.679 16.9648 19.1611 18.666 18.2428 21.1653C18.2428 21.1653 21.066 18.6066 17.679 16.9648Z" fill="#F73329"/>
<path d="M18.9133 13.7734C18.9133 13.7734 20.3954 15.4761 19.4782 17.9754C19.4782 17.9817 22.3004 15.423 18.9133 13.7734Z" fill="#F73329"/>
<path d="M19.302 20.8457C19.302 20.8457 20.7831 22.5468 19.8658 25.0462C19.8658 25.0462 22.6891 22.4937 19.302 20.8457Z" fill="#F73329"/>
<path d="M26.3933 25.5264C26.3933 25.5264 27.8754 27.2275 26.9582 29.7268C26.9582 29.7268 29.7804 27.1744 26.3933 25.5264Z" fill="#F73329"/>
<path d="M23.3596 17.7627C23.3596 17.7627 24.8407 19.4638 23.9234 21.9632C23.9193 21.9632 26.7467 19.4107 23.3596 17.7627Z" fill="#F73329"/>
<path d="M22.1946 21.0586C22.1946 21.0586 23.6767 22.7613 22.7594 25.2606C22.7594 25.2606 25.5775 22.7082 22.1946 21.0586Z" fill="#F73329"/>
<path d="M20.5364 17.2305C20.5364 17.2305 22.0185 18.9332 21.1012 21.4325C21.1012 21.4325 23.9193 18.8785 20.5364 17.2305Z" fill="#F73329"/>
<path d="M27.8049 22.3877C27.8049 22.3877 29.287 24.0904 28.3698 26.5897C28.3698 26.5897 31.192 24.0373 27.8049 22.3877Z" fill="#F73329"/>
<path d="M29.0393 26.1631C29.0393 26.1631 30.5214 27.8658 29.6042 30.3651C29.6042 30.3651 32.4274 27.8127 29.0393 26.1631Z" fill="#F73329"/>
<path d="M25.053 21.5918C25.053 21.5918 26.534 23.2929 25.6168 25.7923C25.6168 25.7923 28.44 23.2398 25.053 21.5918Z" fill="#F73329"/>
<path d="M26.217 18.5596C26.217 18.5596 27.6991 20.2623 26.7819 22.7616C26.7819 22.7616 29.6041 20.2091 26.217 18.5596Z" fill="#F73329"/>
<path d="M30.4487 23.0264C30.4487 23.0264 31.9308 24.7275 31.0136 27.2268C31.0157 27.2268 33.8379 24.6744 30.4487 23.0264Z" fill="#F73329"/>
<path d="M27.8401 29.2754C27.8401 29.2754 29.3222 30.7937 28.4049 33.0244C28.4049 33.0244 31.2272 30.7469 27.8401 29.2754Z" fill="#F73329"/>
<path d="M31.6511 26.6553C31.6511 26.6553 33.1322 28.1736 32.2149 30.4043C32.2108 30.4043 35.0382 28.1346 31.6511 26.6553Z" fill="#F73329"/>
<path d="M32.7092 23.4131C32.7092 23.4131 34.1913 24.9314 33.2741 27.1621C33.2741 27.1621 36.0963 24.883 32.7092 23.4131Z" fill="#F73329"/>
<path d="M35.2495 23.9971C35.2495 23.9971 36.7316 25.5154 35.8144 27.7461C35.8144 27.7461 38.6366 25.4686 35.2495 23.9971Z" fill="#F73329"/>
<path d="M25.4407 30.0098C25.4407 30.0098 26.9228 31.5281 26.0055 33.7588C26.0055 33.7588 28.8277 31.4781 25.4407 30.0098Z" fill="#F73329"/>
<path d="M24.6997 16.3066C24.6997 16.3066 25.7113 17.3423 25.0853 18.8653C25.0853 18.8653 27.012 17.3111 24.6997 16.3066Z" fill="#F73329"/>
<path d="M29.1895 19.9648C29.1895 19.9648 30.201 21.0021 29.574 22.5236C29.574 22.5236 31.5007 20.9693 29.1895 19.9648Z" fill="#F73329"/>
<path d="M24.5317 32.5088C24.5317 32.5088 25.5433 33.546 24.9173 35.0675C24.9173 35.0737 26.844 33.5195 24.5317 32.5088Z" fill="#F73329"/>
<path d="M34.3054 26.5605C34.3054 26.5605 35.317 27.5962 34.691 29.1193C34.691 29.1193 36.6167 27.5634 34.3054 26.5605Z" fill="#F73329"/>
<path d="M6.66987 25.1259C6.93318 25.1259 7.14663 24.9294 7.14663 24.687C7.14663 24.4446 6.93318 24.248 6.66987 24.248C6.40657 24.248 6.19312 24.4446 6.19312 24.687C6.19312 24.9294 6.40657 25.1259 6.66987 25.1259Z" fill="white"/>
<path d="M5.42407 22.555C5.75573 22.3316 6.80979 21.6958 7.8825 22.3316C9.22986 23.1329 9.59261 25.3417 9.65583 25.7682" stroke="#BF3636" stroke-width="2" stroke-miterlimit="10" stroke-linecap="round"/>
<path d="M39.0605 22.4941V29.4345" stroke="#FD4D30" stroke-width="2" stroke-miterlimit="10" stroke-linecap="round"/>
<path d="M39.9507 29.542L47.157 37.4899" stroke="#FD4D30" stroke-width="2" stroke-miterlimit="10" stroke-linecap="round"/>
<path d="M40.2732 27.1738L46.6286 34.0595" stroke="#FD4D30" stroke-width="2" stroke-miterlimit="10" stroke-linecap="round"/>
<path d="M40.2202 21.5729L47.4265 13.625" stroke="#FD4D30" stroke-width="2" stroke-miterlimit="10" stroke-linecap="round"/>
<path d="M40.5415 23.9394L46.8969 17.0537" stroke="#FD4D30" stroke-width="2" stroke-miterlimit="10" stroke-linecap="round"/>
<path d="M40.6453 25.5527L43.5058 25.8448" stroke="#FD4D30" stroke-width="2" stroke-miterlimit="10" stroke-linecap="round"/>
<path d="M42.8652 23.8703L45.3475 21.71" stroke="#FD4D30" stroke-width="2" stroke-miterlimit="10" stroke-linecap="round"/>
<path d="M42.4226 27.4395L44.9059 29.5998" stroke="#FD4D30" stroke-width="2" stroke-miterlimit="10" stroke-linecap="round"/>
<defs>
<linearGradient id="paint0_linear_90_250" x1="1.48364" y1="25.5069" x2="48.6662" y2="25.5069" gradientUnits="userSpaceOnUse">
<stop stop-color="#FEA97E"/>
<stop offset="0.17" stop-color="#FC5E3D"/>
<stop offset="0.34" stop-color="#F83D31"/>
<stop offset="0.58" stop-color="#F52C28"/>
<stop offset="0.8" stop-color="#F22A27"/>
<stop offset="1" stop-color="#F12A26"/>
</linearGradient>
<linearGradient id="paint1_linear_90_250" x1="28.405" y1="38.2864" x2="35.6145" y2="38.2864" gradientUnits="userSpaceOnUse">
<stop stop-color="#FEA97E"/>
<stop offset="1" stop-color="#FD462A"/>
</linearGradient>
<linearGradient id="paint2_linear_90_250" x1="15.8796" y1="44.3249" x2="21.4536" y2="44.3249" gradientUnits="userSpaceOnUse">
<stop stop-color="#FEA97E"/>
<stop offset="1" stop-color="#FD462A"/>
</linearGradient>
<linearGradient id="paint3_linear_90_250" x1="16.3376" y1="10.7691" x2="36.205" y2="10.7691" gradientUnits="userSpaceOnUse">
<stop stop-color="#FEA97E"/>
<stop offset="1" stop-color="#FD462A"/>
</linearGradient>
<linearGradient id="paint4_linear_90_250" x1="1.27741" y1="30.9166" x2="13.9737" y2="30.9166" gradientUnits="userSpaceOnUse">
<stop offset="0.63" stop-color="#FEA97E"/>
<stop offset="1" stop-color="#FD462A"/>
</linearGradient>
<linearGradient id="paint5_linear_90_250" x1="16.4434" y1="30.9496" x2="24.0643" y2="30.9496" gradientUnits="userSpaceOnUse">
<stop stop-color="#FEA97E"/>
<stop offset="1" stop-color="#FD462A"/>
</linearGradient>
<linearGradient id="paint6_linear_90_250" x1="7.87012" y1="24.5965" x2="37.6137" y2="24.5965" gradientUnits="userSpaceOnUse">
<stop stop-color="#FEA97E"/>
<stop offset="1" stop-color="#FD462A"/>
</linearGradient>
</defs>
</svg>
