<svg width="51" height="37" viewBox="0 0 51 37" fill="none" xmlns="http://www.w3.org/2000/svg">
<path d="M16.8037 16.7324C17.3933 17.6216 17.9499 18.2766 18.3541 18.713C19.2728 19.7066 20.1253 20.356 21.7927 21.6155C22.4236 22.0919 22.9521 22.4737 23.3136 22.7306C22.7291 24.3834 22.1438 26.0369 21.5593 27.6896C21.4835 27.8479 21.3804 28.0241 21.2398 28.1995C20.8106 28.7362 20.2865 28.9467 20.0053 29.0323C20.2946 29.0421 20.7599 29.0152 21.2774 28.7827C21.577 28.6482 21.8125 28.4809 21.9856 28.3357C22.612 26.6373 23.2385 24.9397 23.865 23.2413C23.8974 23.1777 24.0571 22.8465 23.9467 22.4631C23.8886 22.2608 23.7789 22.1286 23.7148 22.0625C22.8292 21.3896 21.9443 20.7174 21.0587 20.0444C20.2732 19.4473 19.4878 18.8509 18.7023 18.2538C18.5101 17.7464 18.318 17.2398 18.1258 16.7324H16.8037Z" fill="url(#paint0_linear_698_18)" stroke="#0F0505" stroke-width="0.3" stroke-miterlimit="10"/>
<path d="M18.3833 15.8223C19.0437 16.8216 19.6672 17.5566 20.1199 18.0476C21.1491 19.1636 22.1039 19.8937 23.9715 21.3082C24.6783 21.8433 25.2708 22.2724 25.675 22.5612C25.0198 24.4179 24.3646 26.2753 23.7094 28.1319C23.6241 28.309 23.5085 28.508 23.3517 28.7055C22.871 29.3083 22.2835 29.5457 21.9692 29.6411C22.2931 29.6525 22.815 29.6215 23.3936 29.3605C23.7293 29.2095 23.9929 29.0219 24.1865 28.858C24.8881 26.9499 25.5904 25.0427 26.2919 23.1346C26.328 23.0629 26.5076 22.6917 26.3832 22.2602C26.3177 22.0326 26.1955 21.8849 26.1233 21.8107C25.1317 21.0553 24.1401 20.2991 23.1485 19.5437C22.2688 18.8732 21.3883 18.2026 20.5086 17.532C20.2937 16.9618 20.078 16.3925 19.863 15.8223H18.3818H18.3833Z" fill="url(#paint1_linear_698_18)" stroke="#0F0505" stroke-width="0.3" stroke-miterlimit="10"/>
<path d="M19.835 15.774C20.6985 16.5595 21.4678 17.1004 22.0162 17.4511C23.2633 18.2481 24.3521 18.6927 26.4788 19.5485C27.2835 19.8723 27.9534 20.1244 28.4106 20.2924C28.1926 22.2714 27.9748 24.2504 27.7569 26.2294C27.7142 26.4244 27.6472 26.6487 27.5389 26.8829C27.2084 27.5991 26.6924 27.9907 26.4097 28.1701C26.7262 28.0918 27.2246 27.9181 27.7267 27.5061C28.0174 27.2671 28.231 27.0126 28.3818 26.8005C28.6336 24.7594 28.8854 22.7184 29.1379 20.6766C29.157 20.5967 29.2468 20.188 29.0304 19.8046C28.9163 19.6023 28.7647 19.493 28.6778 19.4408C27.5478 18.9823 26.4178 18.523 25.2878 18.0646C24.2851 17.6576 23.2824 17.2504 22.2798 16.8434C21.9433 16.3507 21.6069 15.858 21.2712 15.3652C20.7927 15.5015 20.315 15.6369 19.8364 15.7731L19.835 15.774Z" fill="url(#paint2_linear_698_18)" stroke="#0F0505" stroke-width="0.3" stroke-miterlimit="10"/>
<path d="M22.0037 16.2434C22.8996 16.4147 23.6292 16.4562 24.1349 16.462C25.284 16.4751 26.1785 16.3127 27.921 15.9856C28.5806 15.8624 29.1217 15.7474 29.4898 15.6666C30.1994 17.1317 30.9098 18.5977 31.6195 20.0627C31.6762 20.2161 31.7284 20.4005 31.7593 20.6101C31.8536 21.2496 31.6886 21.7431 31.5826 21.9903C31.7535 21.7995 32.0008 21.4633 32.1481 20.9609C32.2334 20.6696 32.2621 20.4012 32.2687 20.1891C31.554 18.6662 30.8391 17.1431 30.1243 15.6193C30.1023 15.5557 29.9852 15.2334 29.6796 15.0613C29.5185 14.9708 29.3735 14.9602 29.2954 14.961C28.3678 15.1315 27.4395 15.302 26.512 15.4733C25.6889 15.6251 24.8659 15.776 24.0421 15.9277C23.6129 15.7319 23.1838 15.5361 22.7546 15.3395C22.5043 15.6405 22.2533 15.9415 22.0029 16.2425L22.0037 16.2434Z" fill="url(#paint3_linear_698_18)" stroke="#0F0505" stroke-width="0.3" stroke-miterlimit="10"/>
<path d="M23.4704 15.1398C24.3664 15.3111 25.0959 15.3527 25.6016 15.3584C26.7508 15.3715 27.6452 15.2092 29.3877 14.882C30.0473 14.7589 30.5884 14.6438 30.9565 14.563C31.6662 16.0282 32.3765 17.4941 33.0862 18.9591C33.1429 19.1125 33.1952 19.2969 33.2261 19.5065C33.3203 20.1461 33.1554 20.6396 33.0494 20.8868C33.2202 20.6959 33.4675 20.3598 33.6148 19.8573C33.7002 19.566 33.7289 19.2977 33.7355 19.0856C33.0207 17.5626 32.3059 16.0396 31.5911 14.5158C31.569 14.4521 31.4519 14.1299 31.1464 13.9577C30.9852 13.8673 30.8402 13.8566 30.7621 13.8575C29.8345 14.028 28.9062 14.1985 27.9787 14.3697C27.1557 14.5215 26.3327 14.6724 25.5088 14.8241C25.0797 14.6283 24.6505 14.4325 24.2213 14.2359C23.971 14.537 23.72 14.838 23.4697 15.139L23.4704 15.1398Z" fill="url(#paint4_linear_698_18)" stroke="#0F0505" stroke-width="0.3" stroke-miterlimit="10"/>
<path d="M25.1719 14.3518C25.8146 14.0736 26.3041 13.7832 26.6346 13.5671C27.3863 13.0759 27.9097 12.5808 28.9271 11.6109C29.3121 11.2438 29.6235 10.9338 29.8333 10.7217C30.8139 11.3653 31.7944 12.009 32.7742 12.6534C32.8655 12.7285 32.9649 12.8255 33.0591 12.9479C33.347 13.3223 33.4147 13.7155 33.4331 13.9219C33.4765 13.7237 33.5185 13.3973 33.4361 13.0066C33.3882 12.7798 33.3116 12.5931 33.241 12.4527C32.2368 11.7732 31.2334 11.0945 30.2293 10.415C30.1925 10.3831 30.0019 10.2249 29.7427 10.2461C29.6058 10.2575 29.5079 10.3138 29.4578 10.3481C28.9153 10.8628 28.3727 11.3767 27.8302 11.8915C27.3487 12.3475 26.8672 12.8043 26.3858 13.2603C26.0376 13.3199 25.6894 13.3786 25.3412 13.4381C25.2845 13.7424 25.2286 14.0475 25.1719 14.3518Z" fill="url(#paint5_linear_698_18)" stroke="#0F0505" stroke-width="0.3" stroke-miterlimit="10"/>
<path d="M10.8527 19.4807C11.6293 19.4685 12.3442 19.9286 12.6953 20.6693C13.1657 21.6613 12.7372 22.6369 12.6946 22.7315C12.5525 22.0291 12.2809 21.591 12.1057 21.3578C11.8907 21.0715 11.6573 20.7606 11.2539 20.5225C10.9977 20.3715 10.7871 20.3177 10.715 20.1056C10.6429 19.8951 10.7496 19.6537 10.8527 19.4807Z" fill="url(#paint6_linear_698_18)" stroke="#070405" stroke-width="0.3" stroke-miterlimit="10"/>
<path d="M6.44141 21.6164L6.75503 20.8064C6.98179 20.7681 7.32115 20.7403 7.72013 20.8252C8.2553 20.9393 8.63889 21.1995 8.84792 21.3668C8.86488 21.4614 8.90537 21.7437 8.77286 22.0471C8.6727 22.2772 8.52183 22.4069 8.44671 22.464C8.12648 22.3988 7.74002 22.2894 7.31893 22.1026C6.97511 21.9501 6.68214 21.7788 6.44217 21.6164H6.44141Z" fill="url(#paint7_linear_698_18)" stroke="#070405" stroke-width="0.3" stroke-miterlimit="10"/>
<path d="M8.94739 21.6155C9.72405 21.6033 10.4389 22.0634 10.79 22.8041C11.2604 23.796 10.832 24.7717 10.7893 24.8663C10.6472 24.1639 10.3756 23.7259 10.2004 23.4926C9.98538 23.2062 9.75202 22.8954 9.34865 22.6572C9.09241 22.5063 8.88187 22.4524 8.80974 22.2404C8.7376 22.0299 8.84437 21.7884 8.94739 21.6155Z" fill="url(#paint8_linear_698_18)" stroke="#070405" stroke-width="0.3" stroke-miterlimit="10"/>
<path d="M12.4629 17.5793L12.7765 16.7693C13.0033 16.731 13.3426 16.7032 13.7416 16.7881C14.2768 16.9023 14.6604 17.1625 14.8694 17.3298C14.8864 17.4243 14.9269 17.7066 14.7943 18.0101C14.6942 18.2401 14.5433 18.3698 14.4682 18.4269C14.148 18.3617 13.7615 18.2524 13.3404 18.0655C12.9966 17.913 12.7036 17.7417 12.4637 17.5793H12.4629Z" fill="url(#paint9_linear_698_18)" stroke="#070405" stroke-width="0.3" stroke-miterlimit="10"/>
<path d="M14.9689 17.5803C15.7455 17.5681 16.4604 18.0281 16.8116 18.7688C17.282 19.7608 16.8535 20.7364 16.8108 20.8311C16.6687 20.1287 16.3971 19.6907 16.2219 19.4574C16.0069 19.171 15.7735 18.8602 15.3701 18.622C15.1139 18.4711 14.9034 18.4173 14.8312 18.2052C14.7591 17.9947 14.8659 17.7533 14.9689 17.5803Z" fill="url(#paint10_linear_698_18)" stroke="#070405" stroke-width="0.3" stroke-miterlimit="10"/>
<path d="M10.9447 17.2188L10.6436 18.0345C10.7783 18.2409 10.9991 18.5272 11.3333 18.7825C11.7817 19.1243 12.2189 19.2451 12.473 19.2924C12.5458 19.2402 12.7556 19.073 12.8572 18.7556C12.9345 18.5149 12.9124 18.3053 12.8962 18.2058C12.629 17.9986 12.2881 17.7702 11.8722 17.5695C11.5328 17.4056 11.217 17.2946 10.9439 17.2188H10.9447Z" fill="url(#paint11_linear_698_18)" stroke="#070405" stroke-width="0.3" stroke-miterlimit="10"/>
<path d="M12.8956 18.3967C13.6723 18.3845 14.3871 18.8445 14.7382 19.5852C15.2087 20.5772 14.7803 21.5528 14.7375 21.6475C14.5954 20.9451 14.3238 20.5071 14.1486 20.2738C13.9336 19.9874 13.7003 19.6766 13.2968 19.4384C13.0407 19.2875 12.8301 19.2337 12.758 19.0216C12.6858 18.8111 12.7926 18.5696 12.8956 18.3967Z" fill="url(#paint12_linear_698_18)" stroke="#070405" stroke-width="0.3" stroke-miterlimit="10"/>
<path d="M40.335 20.3131C41.2419 19.7226 42.9211 18.813 45.1716 18.6148C46.7234 18.4786 48.0154 18.7274 48.8936 18.9802C48.6161 18.9509 47.7879 18.9059 47.0017 19.4941C46.6027 19.7927 46.3546 20.1492 46.2125 20.3964C46.1249 20.3482 45.7921 20.1802 45.3858 20.2993C44.8661 20.451 44.6459 20.9486 44.615 21.0212C44.5428 21.0049 44.1225 20.916 43.7566 21.2154C43.5542 21.3818 43.4592 21.5923 43.418 21.7016H41.7513L40.3357 20.3131H40.335Z" fill="url(#paint13_linear_698_18)" stroke="#0F0505" stroke-width="0.3" stroke-miterlimit="10"/>
<path d="M40.3338 25.715C41.6368 25.5013 44.5365 24.9726 47.0122 24.0068C47.3156 23.8886 48.1187 23.5655 48.8916 22.7848C49.2067 22.4667 50.2344 21.4291 50.1446 20.1393C50.1365 20.0186 50.1196 19.9199 50.1071 19.8555C48.9351 21.155 47.7786 21.6412 47.1499 21.841C46.0486 22.191 45.0644 22.1395 43.8666 22.0767C42.9832 22.0311 42.2514 21.9144 41.7362 21.8133C41.2687 23.1136 40.8005 24.4147 40.333 25.715H40.3338Z" fill="url(#paint14_linear_698_18)" stroke="#0F0505" stroke-width="0.3" stroke-miterlimit="10"/>
<path d="M41.8999 21.8967C41.4163 20.8566 40.8252 20.4382 40.4968 20.2579C38.6785 19.2627 36.1925 20.8232 35.5336 21.2376C35.3054 21.3812 35.0964 21.541 34.6568 21.7825C33.8692 22.2141 33.6306 22.1969 33.3604 22.5403C33.3207 22.5909 32.9195 23.1196 33.0284 23.7843C33.1035 24.242 33.3803 24.525 33.5297 24.6727C33.8434 24.9836 34.1628 25.0904 35.0338 25.3115C35.8803 25.5268 36.3036 25.6337 36.6055 25.6834C38.136 25.9339 39.2822 25.8311 39.5899 25.7993C40.6139 25.6949 41.1343 25.6345 41.5252 25.2274C42.1083 24.6205 42.1355 23.6922 42.1267 23.3112" fill="url(#paint15_linear_698_18)"/>
<path d="M41.8999 21.8967C41.4163 20.8566 40.8252 20.4382 40.4968 20.2579C38.6785 19.2627 36.1925 20.8232 35.5336 21.2376C35.3054 21.3812 35.0964 21.541 34.6568 21.7825C33.8692 22.2141 33.6306 22.1969 33.3604 22.5403C33.3207 22.5909 32.9195 23.1196 33.0284 23.7843C33.1035 24.242 33.3803 24.525 33.5297 24.6727C33.8434 24.9836 34.1628 25.0904 35.0338 25.3115C35.8803 25.5268 36.3036 25.6337 36.6055 25.6834C38.136 25.9339 39.2822 25.8311 39.5899 25.7993C40.6139 25.6949 41.1343 25.6345 41.5252 25.2274C42.1083 24.6205 42.1355 23.6922 42.1267 23.3112" fill="url(#paint16_linear_698_18)"/>
<path d="M41.8999 21.8967C41.4163 20.8566 40.8252 20.4382 40.4968 20.2579C38.6785 19.2627 36.1925 20.8232 35.5336 21.2376C35.3054 21.3812 35.0964 21.541 34.6568 21.7825C33.8692 22.2141 33.6306 22.1969 33.3604 22.5403C33.3207 22.5909 32.9195 23.1196 33.0284 23.7843C33.1035 24.242 33.3803 24.525 33.5297 24.6727C33.8434 24.9836 34.1628 25.0904 35.0338 25.3115C35.8803 25.5268 36.3036 25.6337 36.6055 25.6834C38.136 25.9339 39.2822 25.8311 39.5899 25.7993C40.6139 25.6949 41.1343 25.6345 41.5252 25.2274C42.1083 24.6205 42.1355 23.6922 42.1267 23.3112" stroke="#0F0505" stroke-width="0.3" stroke-miterlimit="10"/>
<path d="M33.1086 23.2878C33.0828 23.4338 33.0593 23.6794 33.1373 23.9519C33.2757 24.4347 33.6423 24.6835 33.8771 24.8378C34.0788 24.9699 34.254 25.0401 34.899 25.2122C35.5453 25.3843 35.8677 25.47 36.3183 25.5507C36.5008 25.5833 37.1184 25.6902 37.9393 25.7383C38.2448 25.7563 38.6909 25.7808 39.274 25.7522C39.4396 25.744 39.5927 25.7326 39.7326 25.7204C39.9034 25.7025 40.1581 25.6731 40.4673 25.629C40.7198 25.5931 41.4766 25.4806 42.9636 25.1282C43.4068 25.0229 43.9942 24.8777 44.6877 24.6893C44.9439 24.6216 45.3355 24.5123 45.8082 24.3532C46.908 23.9837 47.575 23.7528 48.3059 23.1973C48.4326 23.101 48.9 22.7372 49.3631 22.1376C49.6105 21.8179 49.7658 21.5479 49.8821 21.2599C49.8821 21.2599 49.994 20.9834 50.0632 20.5934C50.0632 20.5934 50.1323 20.2035 50.0669 20.0534C50.0669 20.0534 50.0654 20.051 50.0654 20.0469C50.0654 20.0469 49.4941 21.0029 49.4515 21.0739C48.886 22.0095 47.1149 23.0374 46.2624 23.3719C44.3616 24.1174 39.4904 24.3728 33.1086 23.2878Z" fill="url(#paint17_linear_698_18)"/>
<path d="M42.1268 23.4746C42.1312 23.7071 42.1077 24.1558 41.8669 24.6126C41.3899 25.5189 40.4689 25.6755 40.3379 25.6959" stroke="#070405" stroke-width="0.3" stroke-miterlimit="10"/>
<path d="M33.2026 22.9723C33.2261 22.9021 33.2652 22.8051 33.3307 22.7015C33.355 22.6623 33.4772 22.4755 33.7157 22.323C33.8048 22.2666 33.8136 22.2756 34.1103 22.1354C34.1103 22.1354 34.1883 22.0986 34.3952 21.9966C34.8929 21.7511 35.9301 20.9989 37.0012 20.525C37.6454 20.2404 38.1033 20.1432 38.2071 20.122C38.6237 20.0372 39.1162 19.9425 39.7317 20.0772C39.9797 20.1318 40.3979 20.2289 40.8366 20.5732C41.1893 20.8497 41.4057 21.1687 41.5257 21.3783C41.1686 21.1262 40.6055 20.7975 39.8715 20.6563C39.2738 20.5413 38.5192 20.5364 36.7862 21.189C35.8698 21.5341 34.6197 22.0847 33.2012 22.9715L33.2026 22.9723Z" fill="url(#paint18_linear_698_18)"/>
<path d="M40.5947 20.2152C40.9614 19.9998 41.4361 19.7461 42.0067 19.5063C42.9233 19.1196 43.6476 18.9507 43.828 18.91C44.104 18.848 44.8571 18.6897 45.8517 18.6669C46.4929 18.6522 47.338 18.6905 48.3149 18.8961C47.2431 18.8806 45.9901 18.9434 44.6053 19.1669C43.0521 19.4174 41.7041 19.8098 40.5955 20.2152H40.5947Z" fill="url(#paint19_linear_698_18)"/>
<path d="M28.2775 20.4947C28.2186 20.5534 28.0707 20.7166 28.0081 20.9873C27.9477 21.25 28.0015 21.4654 28.0273 21.5494C29.1941 22.3178 30.4794 23.0708 31.8869 23.7707C32.2867 23.9697 32.6813 24.1565 33.0714 24.3327C33.0022 24.1394 32.8785 23.7177 32.9588 23.1939C33.0081 22.8693 33.1178 22.6213 33.2032 22.4646C33.0905 22.3415 32.919 22.1694 32.6886 21.9981C31.9782 21.4694 31.2884 21.3781 30.8512 21.2998C30.2261 21.188 29.3604 20.9686 28.2783 20.4922L28.2775 20.4947Z" fill="url(#paint20_linear_698_18)" stroke="#070405" stroke-width="0.3" stroke-miterlimit="10"/>
<path d="M25.1201 19.6615C25.126 19.6159 25.1636 19.3401 25.3896 19.1696C25.5493 19.0489 25.7135 19.0489 25.7716 19.0514C26.6072 19.5326 27.4427 20.0139 28.2776 20.4952C28.226 20.5278 28.0397 20.6567 27.9514 20.9259C27.8587 21.2106 27.9411 21.4554 27.9625 21.5125C27.015 20.8957 26.0676 20.2782 25.1201 19.6615Z" fill="url(#paint21_linear_698_18)" stroke="#070405" stroke-width="0.3" stroke-miterlimit="10"/>
<path d="M22.3572 17.627C22.6009 17.7069 22.7731 17.68 22.8895 17.6344C23.0661 17.565 23.2907 17.3848 23.2907 17.3848C24.1173 17.9403 24.9448 18.4958 25.7715 19.0513C25.7539 19.0489 25.4064 19.0146 25.2201 19.301C25.1281 19.4429 25.12 19.5938 25.12 19.6615C24.1991 18.9836 23.2781 18.3057 22.3564 17.6279L22.3572 17.627Z" fill="url(#paint22_linear_698_18)" stroke="#070405" stroke-width="0.3" stroke-miterlimit="10"/>
<path d="M40.042 13.6482C40.9489 14.2388 42.6282 15.1483 44.8786 15.3466C46.4305 15.4829 47.7224 15.234 48.6006 14.9812C48.3231 15.0105 47.4949 15.0554 46.7087 14.4672C46.3097 14.1686 46.0616 13.8122 45.9195 13.565C45.8319 13.6131 45.4992 13.7812 45.0928 13.6621C44.5731 13.5103 44.353 13.0127 44.3221 12.9401C44.2499 12.9565 43.8295 13.0454 43.4637 12.746C43.2613 12.5796 43.1663 12.3691 43.1251 12.2598H41.4584L40.0428 13.6482H40.042Z" fill="url(#paint23_linear_698_18)" stroke="#0F0505" stroke-width="0.3" stroke-miterlimit="10"/>
<path d="M40.0428 8.24609C41.3458 8.45983 44.2455 8.98842 46.7212 9.95433C47.0245 10.0726 47.8277 10.3956 48.6007 11.1763C48.9158 11.4945 49.9434 12.5321 49.8536 13.8218C49.8455 13.9425 49.8286 14.0412 49.816 14.1056C48.6441 12.8061 47.4876 12.32 46.8589 12.1201C45.7576 11.7702 44.7733 11.8216 43.5756 11.8844C42.6922 11.93 41.9604 12.0467 41.4451 12.1478C40.9777 10.8476 40.5095 9.54644 40.042 8.24609H40.0428Z" fill="url(#paint24_linear_698_18)" stroke="#0F0505" stroke-width="0.3" stroke-miterlimit="10"/>
<path d="M41.608 12.0658C41.1243 13.1058 40.5332 13.5243 40.2049 13.7046C38.3865 14.6998 35.9005 13.1393 35.2417 12.7249C35.0134 12.5813 34.8044 12.4215 34.3648 12.18C33.5772 11.7484 33.3387 11.7655 33.0685 11.4222C33.0287 11.3715 32.6275 10.8429 32.7365 10.1781C32.8116 9.72049 33.0883 9.43739 33.2378 9.28978C33.5514 8.97894 33.8709 8.87211 34.7418 8.65105C35.5884 8.4357 36.0117 8.3288 36.3135 8.27908C37.844 8.02859 38.9902 8.13141 39.2979 8.16324C40.3219 8.26761 40.8424 8.32803 41.2333 8.73507C41.8163 9.34197 41.8436 10.2703 41.8347 10.6513" fill="url(#paint25_linear_698_18)"/>
<path d="M41.608 12.0658C41.1243 13.1058 40.5332 13.5243 40.2049 13.7046C38.3865 14.6998 35.9005 13.1393 35.2417 12.7249C35.0134 12.5813 34.8044 12.4215 34.3648 12.18C33.5772 11.7484 33.3387 11.7655 33.0685 11.4222C33.0287 11.3715 32.6275 10.8429 32.7365 10.1781C32.8116 9.72049 33.0883 9.43739 33.2378 9.28978C33.5514 8.97894 33.8709 8.87211 34.7418 8.65105C35.5884 8.4357 36.0117 8.3288 36.3135 8.27908C37.844 8.02859 38.9902 8.13141 39.2979 8.16324C40.3219 8.26761 40.8424 8.32803 41.2333 8.73507C41.8163 9.34197 41.8436 10.2703 41.8348 10.6513" fill="url(#paint26_linear_698_18)"/>
<path d="M41.608 12.0658C41.1243 13.1058 40.5332 13.5243 40.2049 13.7046C38.3865 14.6998 35.9005 13.1393 35.2417 12.7249C35.0134 12.5813 34.8044 12.4215 34.3648 12.18C33.5772 11.7484 33.3387 11.7655 33.0685 11.4222C33.0287 11.3715 32.6275 10.8429 32.7365 10.1781C32.8116 9.72049 33.0883 9.43739 33.2378 9.28978C33.5514 8.97894 33.8709 8.87211 34.7418 8.65105C35.5884 8.4357 36.0117 8.3288 36.3135 8.27908C37.844 8.02859 38.9902 8.13141 39.2979 8.16324C40.3219 8.26761 40.8424 8.32803 41.2333 8.73507C41.8163 9.34197 41.8436 10.2703 41.8348 10.6513" stroke="#0F0505" stroke-width="0.3" stroke-miterlimit="10"/>
<path d="M32.8156 10.6728C32.7899 10.5268 32.7663 10.2812 32.8443 10.0088C32.9827 9.5258 33.3493 9.277 33.5842 9.12285C33.7859 8.99067 33.9611 8.92052 34.606 8.74841C35.2523 8.5763 35.5748 8.49067 36.0253 8.40989C36.2079 8.37722 36.8255 8.27039 37.6463 8.22229C37.9518 8.20433 38.398 8.17982 38.981 8.20841C39.1466 8.21651 39.2998 8.22799 39.4396 8.24017C39.6104 8.25813 39.8651 8.2875 40.1743 8.33158C40.4268 8.36743 41.1836 8.48003 42.6707 8.83243C43.1138 8.93764 43.7013 9.08285 44.3948 9.2713C44.6509 9.33904 45.0425 9.44834 45.5152 9.60742C46.615 9.97693 47.282 10.2078 48.013 10.7633C48.1396 10.8596 48.6071 11.2234 49.0701 11.823C49.3175 12.1428 49.4728 12.4128 49.5891 12.7007C49.5891 12.7007 49.701 12.9773 49.7702 13.3672C49.7702 13.3672 49.8394 13.7571 49.7739 13.9073C49.7739 13.9073 49.7724 13.9097 49.7724 13.9137C49.7724 13.9137 49.2012 12.9577 49.1585 12.8867C48.5931 11.9511 46.8219 10.9232 45.9694 10.5888C44.0686 9.84313 39.1974 9.58785 32.8156 10.6728Z" fill="url(#paint27_linear_698_18)"/>
<path d="M41.8347 10.4889C41.8392 10.2564 41.8156 9.80778 41.5749 9.35095C41.0979 8.44462 40.1769 8.288 40.0459 8.26758" stroke="#070405" stroke-width="0.3" stroke-miterlimit="10"/>
<path d="M32.9106 10.9922C32.9342 11.0623 32.9732 11.1594 33.0388 11.263C33.063 11.3022 33.1852 11.4889 33.4238 11.6416C33.5129 11.6978 33.5217 11.6888 33.8184 11.8292C33.8184 11.8292 33.8964 11.8658 34.1033 11.9678C34.6009 12.2134 35.6381 12.9655 36.7092 13.4394C37.3534 13.7241 37.8113 13.8212 37.9151 13.8424C38.3318 13.9272 38.8242 14.0219 39.4397 13.8873C39.6878 13.8326 40.1059 13.7356 40.5447 13.3913C40.8973 13.1148 41.1138 12.7958 41.2337 12.5861C40.8767 12.8382 40.3135 13.167 39.5796 13.3081C38.9818 13.4231 38.2272 13.428 36.4943 12.7754C35.5778 12.4304 34.3278 11.8797 32.9092 10.993L32.9106 10.9922Z" fill="url(#paint28_linear_698_18)"/>
<path d="M40.3027 13.748C40.6693 13.9634 41.1442 14.2171 41.7147 14.4569C42.6312 14.8435 43.3556 15.0124 43.5359 15.0532C43.812 15.1152 44.5651 15.2735 45.5597 15.2963C46.2008 15.311 47.046 15.2726 48.0229 15.0671C46.951 15.0825 45.6981 15.0198 44.3134 14.7963C42.76 14.5458 41.4121 14.1535 40.3034 13.748H40.3027Z" fill="url(#paint29_linear_698_18)"/>
<path d="M27.9855 13.4689C27.9266 13.4102 27.7786 13.2471 27.7161 12.9763C27.6557 12.7136 27.7094 12.4982 27.7352 12.4142C28.902 11.6458 30.1874 10.8928 31.5949 10.1929C31.9946 9.99389 32.3892 9.80706 32.7794 9.63086C32.7102 9.82417 32.5866 10.2459 32.6668 10.7697C32.7161 11.0943 32.8258 11.3423 32.9112 11.4989C32.7986 11.6221 32.627 11.7942 32.3966 11.9656C31.6862 12.4942 30.9964 12.5855 30.5591 12.6638C29.9341 12.7756 29.0684 12.995 27.9862 13.4714L27.9855 13.4689Z" fill="url(#paint30_linear_698_18)" stroke="#070405" stroke-width="0.3" stroke-miterlimit="10"/>
<path d="M24.8271 14.3021C24.833 14.3478 24.8706 14.6235 25.0965 14.794C25.2563 14.9147 25.4205 14.9147 25.4786 14.9123C26.3142 14.431 27.1497 13.9497 27.9845 13.4684C27.933 13.4357 27.7468 13.3069 27.6584 13.0376C27.5656 12.753 27.6481 12.5082 27.6695 12.4512C26.722 13.0679 25.7746 13.6854 24.8271 14.3021Z" fill="url(#paint31_linear_698_18)" stroke="#070405" stroke-width="0.3" stroke-miterlimit="10"/>
<path d="M1.81991 28.6116C2.07462 28.6312 2.40515 28.623 2.77547 28.5211C2.91242 28.4835 3.03679 28.4379 3.14794 28.3889C3.19726 28.433 3.4542 28.6565 3.81492 28.6108C4.26544 28.5545 4.48335 28.132 4.50394 28.0903C4.61808 28.0544 4.79031 27.9811 4.95522 27.8268C5.1488 27.6449 5.24527 27.4328 5.30635 27.2713C5.58833 26.5266 5.62881 25.5207 5.64495 24.758C5.65086 24.4692 5.65671 24.0679 5.65455 23.5849C5.42265 23.598 5.01039 23.5874 4.5422 23.3835C4.04606 23.1673 3.72582 22.8385 3.56459 22.6476C3.23329 22.7374 2.79307 22.819 2.27411 22.814C1.66236 22.8083 1.15516 22.6852 0.795898 22.5645C0.838605 23.5499 0.946071 24.6837 1.17206 25.9245C1.35388 26.9238 1.5821 27.8228 1.8206 28.6116H1.81991Z" fill="url(#paint32_linear_698_18)" stroke="#070405" stroke-width="0.3" stroke-miterlimit="10"/>
<path d="M0.634829 16.8627C0.732 16.131 0.942546 15.1227 1.42401 14.0231C2.07332 12.54 2.92726 11.5505 3.50145 10.9844C3.61705 11.5448 3.85779 12.3981 4.39734 13.2905C4.82358 13.9961 5.29399 14.4905 5.65395 14.8127C5.05103 16.0575 4.44882 17.3024 3.8459 18.5481C3.37327 18.5072 2.57824 18.3653 1.7405 17.8294C1.2502 17.5153 0.887383 17.1572 0.634829 16.8627Z" fill="url(#paint33_linear_698_18)"/>
<path d="M3.54203 22.7313C3.39846 23.3569 3.18423 24.6719 3.61123 26.1885C3.83722 26.9919 4.17367 27.6046 4.45043 28.0214C4.54906 28.0092 4.69924 27.9766 4.85163 27.8754C5.07248 27.7294 5.36913 27.3925 5.52229 25.7928C5.57161 25.274 5.61355 24.5447 5.57237 23.6612C5.05856 23.689 4.69561 23.5503 4.50712 23.4598C4.25679 23.3391 4.04408 23.1726 3.94984 23.0984C3.77609 22.9622 3.6399 22.8316 3.54272 22.7305L3.54203 22.7313Z" fill="url(#paint34_linear_698_18)"/>
<path d="M3.56439 22.5651C3.11311 22.6833 2.50359 22.7836 1.788 22.7315C1.41399 22.7045 1.08054 22.6409 0.794875 22.5651C0.52764 21.9679 0.072674 20.7402 0.161773 19.1527C0.214013 18.2179 0.437842 17.4658 0.635106 16.9551C0.917783 17.2349 1.28441 17.5466 1.74084 17.8296C2.56606 18.3411 3.34202 18.5458 3.88012 18.6347C3.98173 18.9325 4.23639 19.5516 4.81356 20.068C5.56296 20.7386 6.37496 20.8055 6.6495 20.8144C6.68706 21.0763 6.74744 21.7175 6.46768 22.432C6.22403 23.0561 5.84418 23.4232 5.65352 23.5847C5.43344 23.5619 5.17282 23.5121 4.88938 23.411C4.2695 23.1899 3.82857 22.826 3.56426 22.5642L3.56439 22.5651Z" fill="url(#paint35_linear_698_18)" stroke="#070405" stroke-width="0.3" stroke-miterlimit="10"/>
<path d="M1.25703 17.5449C1.14365 18.1894 1.05309 18.9977 1.06561 19.9293C1.07959 21.0159 1.22977 21.9385 1.39246 22.6425C1.69357 22.6882 2.06236 22.7176 2.48122 22.6948C2.90232 22.6719 3.26818 22.6017 3.56561 22.5226C3.64657 21.3708 3.72754 20.2198 3.80856 19.0679C3.82108 18.9349 3.8336 18.802 3.84612 18.6698C3.49424 18.611 3.06507 18.5051 2.5939 18.3109C2.03439 18.08 1.58756 17.7945 1.25703 17.5457V17.5449Z" fill="url(#paint36_linear_698_18)"/>
<path d="M3.85098 12.0723C3.42327 12.5642 2.91238 13.2526 2.45818 14.1573C1.97455 15.1215 1.71246 16.0213 1.56445 16.713C1.80442 16.9513 2.09962 17.2082 2.45519 17.4538C3.0257 17.8477 3.56608 18.0844 3.996 18.2296C4.39129 17.4008 4.79326 16.5679 5.20259 15.7317C5.35277 15.4242 5.5037 15.1182 5.65457 14.8132C5.35645 14.5603 4.97215 14.1793 4.60851 13.6401C4.2117 13.0504 3.98348 12.4842 3.85098 12.0723Z" fill="url(#paint37_linear_698_18)"/>
<path d="M3.84618 18.6699C3.96026 18.9799 4.21427 19.5477 4.74359 20.0404C5.50113 20.7443 6.33588 20.839 6.63114 20.857C6.6584 21.0796 6.67531 21.4141 6.60464 21.8073C6.57744 21.9591 6.49202 22.3686 6.23362 22.8164C6.03191 23.1655 5.80293 23.4037 5.63217 23.5538C5.3561 23.5229 4.95268 23.4421 4.50438 23.2193C4.06639 23.0016 3.74907 22.7283 3.5459 22.5236C3.64599 21.2387 3.74615 19.9547 3.84701 18.6699H3.84618Z" fill="url(#paint38_linear_698_18)"/>
<path d="M5.58621 14.8379C5.57446 15.1887 5.58844 16.0982 6.12437 16.9899C6.93268 18.3358 8.27839 18.5561 8.49554 18.5871C8.42265 18.9558 8.23568 19.6206 7.72257 20.1672C7.56578 20.3344 7.34494 20.5636 6.98422 20.6884C6.5447 20.8393 6.16117 20.7439 5.98818 20.6868C5.70842 20.5759 5.33449 20.3867 4.95241 20.0603C4.33406 19.5325 4.00645 18.9126 3.84668 18.5487L5.58698 14.8379H5.58621Z" fill="url(#paint39_linear_698_18)"/>
<path d="M9.68314 13.6565L9.5418 12.3439C9.39017 11.883 9.16412 11.011 9.25544 9.90725C9.34448 8.8419 9.68829 8.05141 9.90691 7.6305C10.3582 7.43388 10.9 7.24466 11.5228 7.11656C12.8067 6.85226 13.9117 6.95424 14.6802 7.10269C14.2289 8.38184 13.7777 9.66092 13.3271 10.94C12.1118 11.8455 10.897 12.751 9.68168 13.6565H9.68314Z" fill="url(#paint40_linear_698_18)"/>
<path d="M5.65395 14.8135C5.24245 14.4211 4.67779 13.7889 4.19855 12.8695C3.81648 12.1378 3.60885 11.4558 3.49109 10.9395C2.9537 11.4811 2.17113 12.4013 1.54247 13.7578C0.956464 15.0231 0.730474 16.1806 0.634766 16.9548C0.895391 17.1767 1.1972 17.4034 1.54247 17.618C2.4001 18.1507 3.21502 18.4134 3.8459 18.5479C3.95928 18.8571 4.29642 19.6631 5.09959 20.2415C5.73046 20.695 6.34443 20.7905 6.64923 20.8149C6.87668 20.7472 7.39793 20.5555 7.85652 20.0204C8.36595 19.4257 8.49553 18.7608 8.53309 18.5072C8.31955 18.4786 7.04973 18.2861 6.23989 17.0217C5.65096 16.1023 5.64289 15.143 5.65318 14.8142L5.65395 14.8135Z" fill="url(#paint41_linear_698_18)" stroke="#0F0505" stroke-width="0.3" stroke-miterlimit="10"/>
<path d="M14.8072 7.14306C15.6685 6.63975 16.6542 6.143 17.7644 5.70574C20.4006 4.66807 22.7997 4.3418 24.6438 4.27575C24.9243 4.13054 25.2129 3.97307 25.5081 3.80343C25.8283 3.61906 26.133 3.43308 26.4231 3.24787C26.4812 3.38653 26.5402 3.52526 26.5983 3.6647C26.6572 3.54315 26.7411 3.40125 26.8612 3.26174C27.1814 2.89139 27.5627 2.76576 27.7511 2.72005C27.8093 2.87752 27.8682 3.03498 27.9263 3.19237C28.0861 3.03167 28.3268 2.82371 28.6529 2.65076C28.9975 2.46885 29.3104 2.39294 29.5297 2.35949V2.83181C29.7543 2.74047 30.0325 2.65076 30.3564 2.59611C30.8364 2.51449 31.2516 2.53738 31.5593 2.58223V3.02681C32.6532 3.14427 34.579 3.18589 36.7721 2.31871C38.374 1.68491 39.5518 0.789987 40.3057 0.111328C39.8036 0.768016 39.1168 1.54379 38.2128 2.29097C37.5075 2.87428 36.831 3.3066 36.2458 3.62723C36.697 3.64026 37.1483 3.65251 37.5988 3.66554C37.2182 4.0742 36.8708 4.35645 36.6212 4.54004C34.6092 6.02145 31.8707 6.30856 30.3056 7.14306C29.9295 7.34376 29.6188 7.57792 29.4789 7.95559C29.3729 8.24193 29.303 8.77869 29.3037 8.7746C29.8485 9.09108 30.1996 9.65319 30.1996 10.247C30.1996 10.6043 30.0723 10.8841 29.9832 11.0399C29.2905 11.9381 28.3261 13.0042 27.0356 13.9946C26.7654 14.2018 23.6022 16.5715 19.3419 16.9248C17.57 17.0716 16.4584 16.7992 15.533 16.2444C15.1031 15.9867 14.7821 15.7101 14.5775 15.5151C14.1903 14.9931 13.711 14.1879 13.4652 13.1062C12.7746 10.0667 14.5333 7.5232 14.8057 7.14229L14.8072 7.14306Z" fill="url(#paint42_linear_698_18)" stroke="#0F0505" stroke-width="0.3" stroke-miterlimit="10"/>
<path d="M5.96072 15.1505C5.29451 14.5925 4.18509 13.4692 3.75516 11.7047C3.68227 11.4062 3.63588 11.1174 3.60938 10.8441C3.97817 10.3066 4.55019 9.61482 5.38424 9.02095C7.14367 7.76715 8.93843 7.75405 9.68345 7.79652C9.41551 8.90919 9.14828 10.0227 8.88028 11.1354L5.96072 15.1505Z" fill="url(#paint43_linear_698_18)"/>
<path d="M4.58496 11.2055C4.58496 11.2055 7.36477 8.78927 9.14403 9.03969C9.10653 9.54053 9.09547 10.1467 9.15655 10.8311C9.21323 11.4616 9.31854 12.0131 9.43192 12.4691V13.3713C9.03065 13.3493 8.43956 13.3705 7.76521 13.5932C6.84428 13.8975 6.21264 14.4318 5.87328 14.7671C5.79085 14.2262 5.64799 13.8297 5.53906 13.5769C5.25047 12.9064 4.93538 12.6249 4.72045 11.8858C4.63726 11.5987 4.60187 11.3547 4.58496 11.2055Z" fill="url(#paint44_linear_698_18)"/>
<path d="M5.6543 14.8992C5.6543 15.2238 5.69109 16.1008 6.23662 16.954C6.93302 18.0431 7.95925 18.314 8.20367 18.3702C8.56 18.4142 9.24681 18.4436 10.0205 18.1067C10.5719 17.8661 10.9614 17.5292 11.1984 17.2877C10.9621 17.1572 9.9624 16.5674 9.54423 15.2467C9.28729 14.435 9.36902 13.7212 9.43161 13.3721C8.89054 13.3615 7.96001 13.4276 6.94999 13.9545C6.38902 14.2474 5.95985 14.6006 5.65436 14.9L5.6543 14.8992Z" fill="url(#paint45_linear_698_18)"/>
<path d="M10.0081 12.9886C9.89989 12.1672 9.85204 11.1369 10.0081 9.97526C10.0574 9.60815 10.1222 9.26555 10.1959 8.94738C10.3423 8.7728 10.5521 8.5583 10.8348 8.36414C11.2596 8.07288 11.6402 7.97422 11.85 7.91957C12.5508 7.73682 13.5108 7.48478 14.682 7.19922C14.3669 7.84041 14.0217 8.67576 13.7552 9.69055C13.4622 10.8041 13.3525 11.7968 13.3179 12.5718L10.0089 12.9886H10.0081Z" fill="url(#paint46_linear_698_18)"/>
<path d="M9.54468 13.8538C9.54468 14.1784 9.58154 15.0554 10.127 15.9086C10.7321 16.8557 11.5935 17.1518 12.0941 17.3248C13.478 17.8036 14.6684 17.3892 15.0829 17.2383C15.504 17.0849 15.8352 16.8965 16.0605 16.7521C15.6792 16.5718 14.3482 15.8826 13.6856 14.2355C13.3838 13.4842 13.3235 12.7892 13.322 12.3259C11.5868 11.8421 10.1204 12.1635 9.68309 13.0723C9.5992 13.2476 9.52701 13.4981 9.54468 13.8529V13.8538Z" fill="url(#paint47_linear_698_18)"/>
<path d="M3.60944 10.8448C3.92821 10.3464 4.38019 9.76883 5.00815 9.24841C6.88978 7.68707 9.01215 7.74334 9.76962 7.80454C9.56499 8.19362 9.26979 8.87235 9.18069 9.77622C9.05632 11.0316 9.40007 12.0081 9.58196 12.4421C9.50608 12.6876 9.08943 14.1144 9.79466 15.5525C10.282 16.5461 11.041 17.0062 11.3362 17.1628C10.5566 18.1809 9.38171 18.6891 8.26637 18.4541C6.81911 18.1499 5.69056 16.6408 5.65447 14.8143C5.16417 14.3909 4.29256 13.5058 3.85157 12.0733C3.71392 11.6264 3.64331 11.2087 3.60944 10.8448Z" fill="url(#paint48_linear_698_18)" stroke="#070405" stroke-width="0.3" stroke-miterlimit="10"/>
<path d="M9.77043 7.8031C10.218 7.52732 10.8431 7.21655 11.6249 7.03218C13.0096 6.70669 14.1698 6.95063 14.8073 7.14317C14.6188 7.51183 14.3648 8.04697 14.1131 8.71506C13.6103 10.0489 13.2348 11.0441 13.3225 12.3248C13.3453 12.6527 13.4395 13.6112 13.9931 14.6407C14.6748 15.91 15.6414 16.5202 16.061 16.7511C13.9261 18.1884 11.4239 17.783 10.2342 16.1539C9.1712 14.6978 9.52016 12.762 9.5827 12.4398C9.39942 11.9422 9.09983 10.9282 9.2441 9.65562C9.33612 8.84563 9.57609 8.21338 9.77043 7.80225V7.8031Z" fill="url(#paint49_linear_698_18)" stroke="#1D1D1B" stroke-width="0.3" stroke-miterlimit="10"/>
<path d="M15.5467 8.17751C17.7286 8.19948 19.4211 8.42709 20.2581 8.70525C20.4973 8.78441 20.8706 8.90842 21.2968 9.20694C21.7047 9.49243 21.8652 9.73067 22.2376 10.0937C22.5203 10.3686 22.9451 10.7365 23.5406 11.0938C23.7298 11.1101 24.6552 11.1697 25.3199 10.455C26.0709 9.64828 26.1886 8.17828 25.4952 6.95223C24.6346 6.53209 22.4254 5.60949 19.6559 6.17808C17.6859 6.58266 16.285 7.56646 15.5459 8.17751H15.5467Z" fill="url(#paint50_linear_698_18)"/>
<path d="M14.5535 7.77093L14.8354 7.22438C16.4255 6.24544 17.8132 5.72664 18.8012 5.43298C20.7939 4.84157 22.7087 4.71024 24.7685 4.56827C25.6519 4.50791 26.7856 4.44348 26.7856 4.44348C27.2221 4.41897 27.6564 4.39531 28.0886 4.37411C28.3684 4.30235 28.6518 4.23299 28.9403 4.16608C29.4476 4.04785 29.9452 3.94179 30.4318 3.8463C31.6678 3.78595 32.9046 3.72559 34.1406 3.66602L30.3192 4.15221C30.0719 4.20038 29.8068 4.26397 29.53 4.34637C29.0463 4.4908 28.6186 4.667 28.252 4.84643C27.3686 4.92559 26.0678 5.04791 24.4932 5.22171C20.3331 5.68016 19.2782 5.94115 18.6694 6.11002C17.68 6.38495 16.2408 6.8703 14.5527 7.77093H14.5535Z" fill="url(#paint51_linear_698_18)"/>
<path d="M16.499 9.13641C17.2551 8.65592 17.9345 8.51726 18.3284 8.46994C18.7414 8.42015 20.4184 8.28395 21.572 9.42352C22.0541 9.89909 22.088 10.2458 22.7388 10.7059C23.472 11.2247 24.0329 11.2117 24.1544 11.206C24.3185 11.1986 24.6977 11.1758 25.082 10.9008C25.2763 10.7613 25.4088 10.6023 25.4906 10.4873C25.6275 10.3665 25.7813 10.2475 25.9551 10.1365C26.7891 9.60303 27.6321 9.53528 28.1643 9.55324" stroke="#070405" stroke-width="0.3" stroke-miterlimit="10"/>
<path d="M32.9102 6.86246L33.4491 7.95964C34.4119 7.82014 35.6185 7.54359 36.9451 6.9881C38.681 6.26042 40.0046 5.31254 40.9138 4.54078L39.9899 4.46085L40.98 3.19727L32.9102 6.86324V6.86246Z" fill="url(#paint52_linear_698_18)"/>
<path d="M30.5234 7.51046C30.7015 7.5806 31.0674 7.76088 31.2124 8.14588C31.437 8.74059 31.0726 9.65425 30.1973 10.1551C31.2809 9.42256 32.3653 8.6908 33.4489 7.95827C34.4177 7.83264 35.6633 7.56349 37.0392 6.9794C38.803 6.22969 40.1237 5.23934 41.0049 4.45948H39.9146L41.2493 2.87695C40.1016 3.76125 38.7051 4.70666 37.0576 5.58117C35.0663 6.63757 33.2177 7.31954 31.663 7.76982" fill="url(#paint53_linear_698_18)"/>
<path d="M30.5234 7.51046C30.7015 7.5806 31.0674 7.76088 31.2124 8.14588C31.437 8.74059 31.0726 9.65425 30.1973 10.1551C31.2809 9.42256 32.3653 8.6908 33.4489 7.95827C34.4177 7.83264 35.6633 7.56348 37.0392 6.9794C38.803 6.22969 40.1237 5.23934 41.0049 4.45948H39.9146L41.2493 2.87695C40.1016 3.76125 38.7051 4.70666 37.0576 5.58117C35.0663 6.63757 33.2177 7.31954 31.663 7.76982" stroke="#070405" stroke-width="0.3" stroke-miterlimit="10"/>
<path d="M41.2493 2.87695L34.2402 5.76229L41.2493 2.87695Z" fill="url(#paint54_linear_698_18)"/>
<path d="M41.2493 2.87695L34.2402 5.76229" stroke="#070405" stroke-width="0.3" stroke-miterlimit="10"/>
<path d="M29.5565 7.30652L40.9133 3.01562C39.7921 3.90154 38.3992 4.86576 36.7318 5.75167C34.9069 6.7216 33.2152 7.35138 31.7951 7.77068C32.2854 7.59856 32.7757 7.42638 33.266 7.2535L33.4493 7.95913L30.1977 10.1559L29.3047 8.77483L29.5572 7.30652H29.5565Z" fill="url(#paint55_linear_698_18)" stroke="#0F0505" stroke-width="0.3" stroke-miterlimit="10"/>
<path d="M30.3223 5.37075C30.4636 5.22561 30.6801 5.02976 30.9737 4.85688C31.5575 4.51343 32.0942 4.46934 32.7464 4.42371C33.0976 4.3992 33.5746 4.39103 34.1422 4.45878C34.394 4.26054 34.6649 4.02477 34.9417 3.7442C35.3458 3.33463 35.6675 2.92681 35.9215 2.56055" fill="url(#paint56_linear_698_18)"/>
<path d="M30.3223 5.37075C30.4636 5.22561 30.6801 5.02976 30.9737 4.85688C31.5575 4.51343 32.0942 4.46934 32.7464 4.42371C33.0976 4.3992 33.5746 4.39103 34.1422 4.45878C34.394 4.26054 34.6649 4.02477 34.9417 3.7442C35.3458 3.33463 35.6675 2.92681 35.9215 2.56055" stroke="#070405" stroke-width="0.3" stroke-miterlimit="10"/>
<path d="M1.8194 28.6116C3.20489 30.4993 4.58961 32.387 5.97504 34.2754C6.00745 34.3032 6.03249 34.3121 6.05009 34.3032C6.21202 34.2199 5.7188 32.5721 4.57188 29.3597C4.55498 29.2439 4.5417 29.119 4.53432 28.9845C4.52034 28.7438 4.52772 28.5252 4.54462 28.3359C4.50414 28.3849 4.22953 28.7071 3.79522 28.6933C3.43526 28.6818 3.20336 28.4485 3.14814 28.3898C2.94789 28.4762 2.67919 28.5652 2.35603 28.6027C2.15508 28.6255 1.97396 28.6239 1.8201 28.6116H1.8194Z" fill="url(#paint57_linear_698_18)" stroke="#0F0505" stroke-width="0.3" stroke-miterlimit="10"/>
<path d="M5.18804 27.6914C6.66257 28.8767 7.85886 29.9918 8.78201 30.916C8.94617 31.0808 10.1027 32.3812 11.0001 34.2762C11.3262 34.9646 11.2047 35.2314 11.1503 35.3179C10.8962 35.7184 9.93929 35.5764 8.73193 34.9564C8.94324 35.0691 9.91279 35.5944 9.84726 35.831C9.77583 36.0888 8.52215 35.866 8.33073 35.831C8.06057 35.7421 7.73373 35.6017 7.39068 35.3725C6.66257 34.8863 6.23709 34.2508 6.01694 33.8585C5.8852 33.2271 5.71361 32.541 5.48909 31.8142C5.21156 30.9169 4.90161 30.1198 4.59536 29.4273C4.59243 29.1753 4.58875 28.9215 4.5843 28.6662C4.58138 28.4933 4.57769 28.3203 4.57324 28.149C4.68662 28.0927 4.82059 28.0144 4.95976 27.9027C5.04886 27.8317 5.12398 27.7591 5.18804 27.6914Z" fill="url(#paint58_linear_698_18)" stroke="#0F0505" stroke-width="0.3" stroke-miterlimit="10"/>
<path d="M5.71686 27.9707C6.95948 28.4292 7.95477 28.9259 8.66737 29.3191C9.34909 29.6952 9.72309 30.0239 10.4872 30.6463C10.9451 31.0191 11.2234 31.2777 11.4251 31.7158C11.495 31.8667 11.9058 32.7608 11.5267 33.1931C11.2234 33.5398 10.6227 33.3522 10.5615 33.3318C9.83424 31.8903 9.07378 30.9955 8.51504 30.4465C8.06446 30.0035 7.22011 29.2694 6.52663 28.6665C6.18797 28.372 5.90752 28.1322 5.71756 27.9707H5.71686Z" fill="url(#paint59_linear_698_18)" stroke="#070405" stroke-width="0.3" stroke-miterlimit="10"/>
<path d="M4.94727 29.8594C5.31021 30.2199 5.6952 30.6473 6.0802 31.1507C6.77882 32.0643 7.27059 32.9616 7.61656 33.7195" fill="url(#paint60_linear_698_18)"/>
<path d="M4.94727 29.8594C5.31021 30.2199 5.6952 30.6473 6.0802 31.1507C6.77882 32.0643 7.27059 32.9616 7.61656 33.7195" stroke="#0F0505" stroke-width="0.3" stroke-miterlimit="10"/>
<path d="M5.53613 29.166C6.0183 29.5674 6.55054 30.0658 7.09016 30.6792C7.80944 31.4975 8.35268 32.3034 8.75687 32.9985" fill="url(#paint61_linear_698_18)"/>
<path d="M5.53613 29.166C6.0183 29.5674 6.55054 30.0658 7.09016 30.6792C7.80944 31.4975 8.35268 32.3034 8.75687 32.9985" stroke="#0F0505" stroke-width="0.3" stroke-miterlimit="10"/>
<path d="M8.34668 19.4797L8.66031 18.6697C8.887 18.6314 9.22636 18.6036 9.6254 18.6885C10.1606 18.8026 10.5441 19.0629 10.7532 19.2301C10.7701 19.3247 10.8106 19.607 10.6781 19.9104C10.578 20.1405 10.427 20.2702 10.352 20.3273C10.0318 20.262 9.64529 20.1528 9.2242 19.9659C8.88039 19.8134 8.58741 19.6421 8.34738 19.4797H8.34668Z" fill="url(#paint62_linear_698_18)" stroke="#070405" stroke-width="0.3" stroke-miterlimit="10"/>
<path d="M27.5879 13.5959C27.9531 13.41 28.3623 13.2256 28.8144 13.0608C29.0919 12.9596 29.3591 12.874 29.6131 12.803C29.87 12.741 30.127 12.6798 30.3838 12.6178C30.5061 12.6007 30.6783 12.573 30.8822 12.5265C31.1855 12.4579 31.5323 12.3796 31.8989 12.1977C32.1315 12.0819 32.4753 11.8739 32.8338 11.4945C32.8073 11.439 32.7808 11.3836 32.7536 11.3281C32.4945 11.5337 32.091 11.8225 31.5602 12.0778C30.9411 12.3756 30.4641 12.4759 30.1034 12.5697C29.5049 12.7255 28.6443 13.0135 27.5879 13.5951V13.5959Z" fill="url(#paint63_linear_698_18)"/>
<path d="M27.5508 13.632C27.6089 13.5626 27.6892 13.4802 27.7952 13.4051C27.8578 13.3611 27.9174 13.3268 27.9712 13.3008" fill="url(#paint64_linear_698_18)"/>
<path d="M27.5508 13.632C27.6089 13.5626 27.6892 13.4802 27.7952 13.4051C27.8578 13.3611 27.9174 13.3268 27.9712 13.3008" fill="url(#paint65_linear_698_18)"/>
<path d="M27.5508 13.632C27.6089 13.5626 27.6892 13.4802 27.7952 13.4051C27.8578 13.3611 27.9174 13.3268 27.9712 13.3008" stroke="#070405" stroke-width="0.3" stroke-miterlimit="10"/>
<path d="M28.2686 20.666C28.6256 20.8112 29.1866 21.0282 29.7851 21.2044C30.1171 21.3023 30.3438 21.3528 30.452 21.3765C30.7929 21.45 30.8819 21.4466 31.1101 21.4907C31.4032 21.5478 31.9597 21.6612 32.5096 22.0454C32.6561 22.1474 32.863 22.3122 33.0831 22.5634" stroke="url(#paint66_linear_698_18)" stroke-width="0.3" stroke-miterlimit="10"/>
<path d="M28.2454 20.7426L28.1953 20.7189C28.2086 20.6985 28.2226 20.6765 28.2395 20.6545C28.2586 20.6292 28.277 20.6064 28.2954 20.5859C28.2785 20.6381 28.2623 20.6904 28.2454 20.7418V20.7426Z" fill="url(#paint67_linear_698_18)"/>
<path d="M25.7383 19.127C26.5061 19.6205 27.2732 20.1141 28.041 20.6076C28.0565 20.5912 28.0719 20.575 28.0881 20.5586C28.105 20.5415 28.122 20.5243 28.1382 20.5081C27.3379 20.0479 26.5385 19.5871 25.7383 19.127Z" fill="url(#paint68_linear_698_18)"/>
<path d="M29.5574 4.61719C29.0236 4.61719 28.5908 5.09669 28.5908 5.68824C28.5908 6.27979 29.0236 6.75929 29.5574 6.75929C30.0913 6.75929 30.524 6.27979 30.524 5.68824C30.524 5.09669 30.0913 4.61719 29.5574 4.61719Z" fill="white"/>
<path d="M29.557 4.61719C28.3756 4.64845 28.426 6.55725 29.557 6.55985C30.6868 6.5557 30.7373 4.64831 29.557 4.61719ZM29.557 4.61719C30.9293 4.6393 30.9796 6.90985 29.5569 6.95873C28.1359 6.90845 28.1858 4.63909 29.557 4.61719Z" fill="black"/>
<path d="M29.461 5.58108C29.6029 5.58108 29.7179 5.45362 29.7179 5.29637C29.7179 5.13911 29.6029 5.01172 29.461 5.01172C29.3192 5.01172 29.2041 5.13918 29.2041 5.29637C29.2041 5.45355 29.3191 5.58108 29.461 5.58108Z" fill="url(#paint69_linear_698_18)"/>
<defs>
<linearGradient id="paint0_linear_698_18" x1="16.8037" y1="22.8832" x2="23.9851" y2="22.8832" gradientUnits="userSpaceOnUse">
<stop stop-color="white"/>
<stop offset="1"/>
</linearGradient>
<linearGradient id="paint1_linear_698_18" x1="18.3818" y1="22.7327" x2="26.4265" y2="22.7327" gradientUnits="userSpaceOnUse">
<stop stop-color="white"/>
<stop offset="1"/>
</linearGradient>
<linearGradient id="paint2_linear_698_18" x1="19.835" y1="21.7677" x2="29.1726" y2="21.7677" gradientUnits="userSpaceOnUse">
<stop stop-color="white"/>
<stop offset="1"/>
</linearGradient>
<linearGradient id="paint3_linear_698_18" x1="22.0029" y1="18.4756" x2="32.2687" y2="18.4756" gradientUnits="userSpaceOnUse">
<stop stop-color="white"/>
<stop offset="1"/>
</linearGradient>
<linearGradient id="paint4_linear_698_18" x1="23.4697" y1="17.3721" x2="33.7355" y2="17.3721" gradientUnits="userSpaceOnUse">
<stop stop-color="white"/>
<stop offset="1"/>
</linearGradient>
<linearGradient id="paint5_linear_698_18" x1="25.1719" y1="12.298" x2="33.4832" y2="12.298" gradientUnits="userSpaceOnUse">
<stop stop-color="white"/>
<stop offset="1"/>
</linearGradient>
<linearGradient id="paint6_linear_698_18" x1="10.6914" y1="21.106" x2="12.914" y2="21.106" gradientUnits="userSpaceOnUse">
<stop stop-color="white"/>
<stop offset="1"/>
</linearGradient>
<linearGradient id="paint7_linear_698_18" x1="6.44141" y1="21.6167" x2="8.86724" y2="21.6167" gradientUnits="userSpaceOnUse">
<stop stop-color="white"/>
<stop offset="1"/>
</linearGradient>
<linearGradient id="paint8_linear_698_18" x1="8.78616" y1="23.2407" x2="11.0087" y2="23.2407" gradientUnits="userSpaceOnUse">
<stop stop-color="white"/>
<stop offset="1"/>
</linearGradient>
<linearGradient id="paint9_linear_698_18" x1="12.4629" y1="17.5797" x2="14.8887" y2="17.5797" gradientUnits="userSpaceOnUse">
<stop stop-color="white"/>
<stop offset="1"/>
</linearGradient>
<linearGradient id="paint10_linear_698_18" x1="14.8076" y1="19.2056" x2="17.0302" y2="19.2056" gradientUnits="userSpaceOnUse">
<stop stop-color="white"/>
<stop offset="1"/>
</linearGradient>
<linearGradient id="paint11_linear_698_18" x1="10.6436" y1="18.2556" x2="12.9121" y2="18.2556" gradientUnits="userSpaceOnUse">
<stop stop-color="white"/>
<stop offset="1"/>
</linearGradient>
<linearGradient id="paint12_linear_698_18" x1="12.7344" y1="20.022" x2="14.9569" y2="20.022" gradientUnits="userSpaceOnUse">
<stop stop-color="white"/>
<stop offset="1"/>
</linearGradient>
<linearGradient id="paint13_linear_698_18" x1="40.335" y1="20.1389" x2="48.8936" y2="20.1389" gradientUnits="userSpaceOnUse">
<stop stop-color="white"/>
<stop offset="1" stop-color="#151A47"/>
</linearGradient>
<linearGradient id="paint14_linear_698_18" x1="40.333" y1="22.7852" x2="50.1501" y2="22.7852" gradientUnits="userSpaceOnUse">
<stop stop-color="white"/>
<stop offset="1" stop-color="#151A47"/>
</linearGradient>
<linearGradient id="paint15_linear_698_18" x1="33.0098" y1="22.8895" x2="42.1278" y2="22.8895" gradientUnits="userSpaceOnUse">
<stop stop-color="white"/>
<stop offset="1"/>
</linearGradient>
<linearGradient id="paint16_linear_698_18" x1="33.0098" y1="22.8895" x2="42.1278" y2="22.8895" gradientUnits="userSpaceOnUse">
<stop stop-color="white"/>
<stop offset="1" stop-color="#151A47"/>
</linearGradient>
<linearGradient id="paint17_linear_698_18" x1="33.084" y1="22.9061" x2="50.095" y2="22.9061" gradientUnits="userSpaceOnUse">
<stop stop-color="white"/>
<stop offset="1"/>
</linearGradient>
<linearGradient id="paint18_linear_698_18" x1="33.2012" y1="21.491" x2="41.5257" y2="21.491" gradientUnits="userSpaceOnUse">
<stop stop-color="white"/>
<stop offset="1"/>
</linearGradient>
<linearGradient id="paint19_linear_698_18" x1="40.5947" y1="19.4396" x2="48.3149" y2="19.4396" gradientUnits="userSpaceOnUse">
<stop stop-color="white"/>
<stop offset="1"/>
</linearGradient>
<linearGradient id="paint20_linear_698_18" x1="27.9805" y1="22.4125" x2="33.2032" y2="22.4125" gradientUnits="userSpaceOnUse">
<stop stop-color="white"/>
<stop offset="1"/>
</linearGradient>
<linearGradient id="paint21_linear_698_18" x1="25.1201" y1="20.2816" x2="28.2776" y2="20.2816" gradientUnits="userSpaceOnUse">
<stop stop-color="white"/>
<stop offset="1"/>
</linearGradient>
<linearGradient id="paint22_linear_698_18" x1="22.3564" y1="18.5231" x2="25.7715" y2="18.5231" gradientUnits="userSpaceOnUse">
<stop stop-color="white"/>
<stop offset="1"/>
</linearGradient>
<linearGradient id="paint23_linear_698_18" x1="40.042" y1="13.8225" x2="48.6006" y2="13.8225" gradientUnits="userSpaceOnUse">
<stop stop-color="white"/>
<stop offset="1" stop-color="#151A47"/>
</linearGradient>
<linearGradient id="paint24_linear_698_18" x1="40.042" y1="11.1759" x2="49.8591" y2="11.1759" gradientUnits="userSpaceOnUse">
<stop stop-color="white"/>
<stop offset="1" stop-color="#151A47"/>
</linearGradient>
<linearGradient id="paint25_linear_698_18" x1="32.7178" y1="11.073" x2="41.8358" y2="11.073" gradientUnits="userSpaceOnUse">
<stop stop-color="white"/>
<stop offset="1"/>
</linearGradient>
<linearGradient id="paint26_linear_698_18" x1="32.7178" y1="11.073" x2="41.8359" y2="11.073" gradientUnits="userSpaceOnUse">
<stop stop-color="white"/>
<stop offset="1" stop-color="#151A47"/>
</linearGradient>
<linearGradient id="paint27_linear_698_18" x1="32.791" y1="11.0545" x2="49.8021" y2="11.0545" gradientUnits="userSpaceOnUse">
<stop stop-color="white"/>
<stop offset="1" stop-color="#151A47"/>
</linearGradient>
<linearGradient id="paint28_linear_698_18" x1="32.9092" y1="12.4734" x2="41.2337" y2="12.4734" gradientUnits="userSpaceOnUse">
<stop stop-color="white"/>
<stop offset="1"/>
</linearGradient>
<linearGradient id="paint29_linear_698_18" x1="40.3027" y1="14.5235" x2="48.0229" y2="14.5235" gradientUnits="userSpaceOnUse">
<stop stop-color="white"/>
<stop offset="1"/>
</linearGradient>
<linearGradient id="paint30_linear_698_18" x1="27.6885" y1="11.5511" x2="32.9112" y2="11.5511" gradientUnits="userSpaceOnUse">
<stop stop-color="white"/>
<stop offset="1"/>
</linearGradient>
<linearGradient id="paint31_linear_698_18" x1="24.8271" y1="13.682" x2="27.9845" y2="13.682" gradientUnits="userSpaceOnUse">
<stop stop-color="white"/>
<stop offset="1"/>
</linearGradient>
<linearGradient id="paint32_linear_698_18" x1="0.795898" y1="25.5923" x2="5.65506" y2="25.5923" gradientUnits="userSpaceOnUse">
<stop stop-color="white"/>
<stop offset="1"/>
</linearGradient>
<linearGradient id="paint33_linear_698_18" x1="0.634829" y1="14.7662" x2="5.65401" y2="14.7662" gradientUnits="userSpaceOnUse">
<stop stop-color="white"/>
<stop offset="1"/>
</linearGradient>
<linearGradient id="paint34_linear_698_18" x1="3.35938" y1="25.376" x2="5.58909" y2="25.376" gradientUnits="userSpaceOnUse">
<stop stop-color="white"/>
<stop offset="1"/>
</linearGradient>
<linearGradient id="paint35_linear_698_18" x1="0.150461" y1="20.2699" x2="6.68249" y2="20.2699" gradientUnits="userSpaceOnUse">
<stop stop-color="white"/>
<stop offset="1"/>
</linearGradient>
<linearGradient id="paint36_linear_698_18" x1="1.06447" y1="20.1238" x2="3.84612" y2="20.1238" gradientUnits="userSpaceOnUse">
<stop stop-color="white"/>
<stop offset="1"/>
</linearGradient>
<linearGradient id="paint37_linear_698_18" x1="1.56445" y1="15.1509" x2="5.65457" y2="15.1509" gradientUnits="userSpaceOnUse">
<stop stop-color="white"/>
<stop offset="1"/>
</linearGradient>
<linearGradient id="paint38_linear_698_18" x1="3.54583" y1="21.1119" x2="6.65465" y2="21.1119" gradientUnits="userSpaceOnUse">
<stop stop-color="white"/>
<stop offset="1"/>
</linearGradient>
<linearGradient id="paint39_linear_698_18" x1="3.84668" y1="17.8037" x2="8.49554" y2="17.8037" gradientUnits="userSpaceOnUse">
<stop stop-color="white"/>
<stop offset="1"/>
</linearGradient>
<linearGradient id="paint40_linear_698_18" x1="9.23441" y1="10.3048" x2="14.6802" y2="10.3048" gradientUnits="userSpaceOnUse">
<stop stop-color="white"/>
<stop offset="1"/>
</linearGradient>
<linearGradient id="paint41_linear_698_18" x1="0.634766" y1="15.8772" x2="8.53309" y2="15.8772" gradientUnits="userSpaceOnUse">
<stop stop-color="white"/>
<stop offset="1"/>
</linearGradient>
<linearGradient id="paint42_linear_698_18" x1="13.3057" y1="8.5377" x2="40.3057" y2="8.5377" gradientUnits="userSpaceOnUse">
<stop stop-color="white"/>
<stop offset="1" stop-color="#151A47"/>
</linearGradient>
<linearGradient id="paint43_linear_698_18" x1="3.60944" y1="11.4678" x2="9.68351" y2="11.4678" gradientUnits="userSpaceOnUse">
<stop stop-color="white"/>
<stop offset="1"/>
</linearGradient>
<linearGradient id="paint44_linear_698_18" x1="4.58496" y1="11.8943" x2="9.43192" y2="11.8943" gradientUnits="userSpaceOnUse">
<stop stop-color="white"/>
<stop offset="1"/>
</linearGradient>
<linearGradient id="paint45_linear_698_18" x1="5.6543" y1="15.8838" x2="11.1983" y2="15.8838" gradientUnits="userSpaceOnUse">
<stop stop-color="white"/>
<stop offset="1"/>
</linearGradient>
<linearGradient id="paint46_linear_698_18" x1="9.90822" y1="10.0939" x2="14.682" y2="10.0939" gradientUnits="userSpaceOnUse">
<stop stop-color="white"/>
<stop offset="1"/>
</linearGradient>
<linearGradient id="paint47_linear_698_18" x1="9.54201" y1="14.8252" x2="16.0605" y2="14.8252" gradientUnits="userSpaceOnUse">
<stop stop-color="white"/>
<stop offset="1"/>
</linearGradient>
<linearGradient id="paint48_linear_698_18" x1="3.60944" y1="13.146" x2="11.3362" y2="13.146" gradientUnits="userSpaceOnUse">
<stop stop-color="white"/>
<stop offset="1"/>
</linearGradient>
<linearGradient id="paint49_linear_698_18" x1="9.20603" y1="12.2529" x2="16.061" y2="12.2529" gradientUnits="userSpaceOnUse">
<stop stop-color="white"/>
<stop offset="1"/>
</linearGradient>
<linearGradient id="paint50_linear_698_18" x1="15.5459" y1="8.55011" x2="25.9548" y2="8.55011" gradientUnits="userSpaceOnUse">
<stop stop-color="white"/>
<stop offset="1"/>
</linearGradient>
<linearGradient id="paint51_linear_698_18" x1="14.5527" y1="5.71847" x2="34.1406" y2="5.71847" gradientUnits="userSpaceOnUse">
<stop stop-color="white"/>
<stop offset="1"/>
</linearGradient>
<linearGradient id="paint52_linear_698_18" x1="32.9102" y1="5.57845" x2="40.98" y2="5.57845" gradientUnits="userSpaceOnUse">
<stop stop-color="white"/>
<stop offset="1"/>
</linearGradient>
<linearGradient id="paint53_linear_698_18" x1="30.1973" y1="6.51602" x2="41.2493" y2="6.51602" gradientUnits="userSpaceOnUse">
<stop stop-color="white"/>
<stop offset="1"/>
</linearGradient>
<linearGradient id="paint54_linear_698_18" x1="34.2402" y1="4.31962" x2="41.2493" y2="4.31962" gradientUnits="userSpaceOnUse">
<stop stop-color="white"/>
<stop offset="1"/>
</linearGradient>
<linearGradient id="paint55_linear_698_18" x1="29.3047" y1="6.58575" x2="40.9133" y2="6.58575" gradientUnits="userSpaceOnUse">
<stop stop-color="white"/>
<stop offset="1"/>
</linearGradient>
<linearGradient id="paint56_linear_698_18" x1="30.3223" y1="3.96561" x2="35.9215" y2="3.96561" gradientUnits="userSpaceOnUse">
<stop stop-color="white"/>
<stop offset="1"/>
</linearGradient>
<linearGradient id="paint57_linear_698_18" x1="1.8194" y1="31.3212" x2="6.08022" y2="31.3212" gradientUnits="userSpaceOnUse">
<stop stop-color="white"/>
<stop offset="1"/>
</linearGradient>
<linearGradient id="paint58_linear_698_18" x1="4.57337" y1="31.8226" x2="11.2181" y2="31.8226" gradientUnits="userSpaceOnUse">
<stop stop-color="white"/>
<stop offset="1"/>
</linearGradient>
<linearGradient id="paint59_linear_698_18" x1="5.71686" y1="30.6857" x2="11.6852" y2="30.6857" gradientUnits="userSpaceOnUse">
<stop stop-color="white"/>
<stop offset="1"/>
</linearGradient>
<linearGradient id="paint60_linear_698_18" x1="4.94727" y1="31.7894" x2="7.61662" y2="31.7894" gradientUnits="userSpaceOnUse">
<stop stop-color="white"/>
<stop offset="1"/>
</linearGradient>
<linearGradient id="paint61_linear_698_18" x1="5.53613" y1="31.0822" x2="8.75687" y2="31.0822" gradientUnits="userSpaceOnUse">
<stop stop-color="white"/>
<stop offset="1"/>
</linearGradient>
<linearGradient id="paint62_linear_698_18" x1="8.34668" y1="19.48" x2="10.7724" y2="19.48" gradientUnits="userSpaceOnUse">
<stop stop-color="white"/>
<stop offset="1"/>
</linearGradient>
<linearGradient id="paint63_linear_698_18" x1="27.5879" y1="12.462" x2="32.8338" y2="12.462" gradientUnits="userSpaceOnUse">
<stop stop-color="white"/>
<stop offset="1"/>
</linearGradient>
<linearGradient id="paint64_linear_698_18" x1="27.5508" y1="13.4663" x2="27.9712" y2="13.4663" gradientUnits="userSpaceOnUse">
<stop stop-color="white"/>
<stop offset="1"/>
</linearGradient>
<linearGradient id="paint65_linear_698_18" x1="27.5508" y1="13.4663" x2="27.9712" y2="13.4663" gradientUnits="userSpaceOnUse">
<stop stop-color="white"/>
<stop offset="1"/>
</linearGradient>
<linearGradient id="paint66_linear_698_18" x1="28.2138" y1="21.5934" x2="33.197" y2="21.5934" gradientUnits="userSpaceOnUse">
<stop stop-color="white"/>
<stop offset="1"/>
</linearGradient>
<linearGradient id="paint67_linear_698_18" x1="28.1953" y1="20.6642" x2="28.2954" y2="20.6642" gradientUnits="userSpaceOnUse">
<stop stop-color="white"/>
<stop offset="1"/>
</linearGradient>
<linearGradient id="paint68_linear_698_18" x1="25.7383" y1="19.8672" x2="28.1382" y2="19.8672" gradientUnits="userSpaceOnUse">
<stop stop-color="white"/>
<stop offset="1"/>
</linearGradient>
<linearGradient id="paint69_linear_698_18" x1="29.2041" y1="5.29637" x2="29.7179" y2="5.29637" gradientUnits="userSpaceOnUse">
<stop stop-color="white"/>
<stop offset="1"/>
</linearGradient>
</defs>
</svg>
