<svg width="1467" height="871" viewBox="0 0 1467 871" fill="none" xmlns="http://www.w3.org/2000/svg">
<path d="M1457.54 17.2617H1432.98V852.497H1457.54V17.2617Z" fill="url(#paint0_linear_89_28)"/>
<path d="M1453.91 846.579V39.1777H1445.26L1446.71 846.579H1453.91Z" fill="url(#paint1_linear_89_28)"/>
<path d="M33.5816 37.1836H9.0163V845.028H33.5816V37.1836Z" fill="url(#paint2_linear_89_28)"/>
<path d="M12.6525 839.298V58.3701H21.2989L19.8527 839.298H12.6525Z" fill="url(#paint3_linear_89_28)"/>
<path d="M1419.42 9.4541H57.6304V34.3448H1419.42V9.4541Z" fill="url(#paint4_linear_89_28)"/>
<path d="M1409.76 13.1367H44.5626V21.8944L1409.76 20.4277V13.1367Z" fill="url(#paint5_linear_89_28)"/>
<path d="M1407.64 834.645H45.8539V859.535H1407.64V834.645Z" fill="url(#paint6_linear_89_28)"/>
<path d="M55.5128 855.843H1420.71V847.085L55.5128 848.552V855.843Z" fill="url(#paint7_linear_89_28)"/>
<path d="M1462.94 656.453C1463.22 656.453 1464.61 656.4 1465.68 655.166C1466.44 654.29 1466.62 653.287 1466.67 652.897C1466.67 640.214 1466.67 627.532 1466.67 614.849C1466.51 614.448 1466.14 613.635 1465.34 612.96C1464.35 612.137 1463.32 612.021 1462.94 612H1430.83V656.453H1462.94Z" fill="#D0CFD0"/>
<path d="M1447.36 612V656.453H1458.79V612H1447.36Z" fill="#DFDFDE"/>
<path d="M1433.99 648.856C1439.84 647.02 1443.94 641.269 1444.14 634.728C1444.35 627.838 1440.16 621.549 1433.99 619.607C1424.95 619.607 1415.89 619.607 1406.84 619.607C1407.75 620.589 1412.35 625.759 1412.42 634.01C1412.51 642.546 1407.68 647.938 1406.84 648.856C1415.89 648.856 1424.95 648.856 1433.99 648.856Z" fill="url(#paint8_linear_89_28)"/>
<path d="M1442.84 638.325C1432.55 638.325 1422.27 638.325 1411.98 638.325C1412.33 637.186 1412.67 635.719 1412.83 633.989C1413.02 631.878 1412.88 630.074 1412.68 628.724C1423.22 628.724 1433.77 628.724 1444.3 628.724C1444.53 629.758 1444.81 631.572 1444.45 633.788C1444.11 635.899 1443.34 637.45 1442.83 638.325H1442.84Z" fill="#DBDBDB"/>
<path d="M1406.84 619.618C1402.59 618.605 1396.3 625.981 1396.01 633.609C1395.71 641.618 1402.05 649.689 1406.38 648.866C1410.48 648.086 1412.49 639.412 1412.41 633.609C1412.35 628.84 1410.83 620.578 1406.83 619.618H1406.84Z" fill="#D9D9D9" stroke="#9D9D9C" stroke-width="0.75" stroke-miterlimit="10"/>
<path d="M1406.35 622.32C1402.89 621.497 1397.77 627.501 1397.53 633.726C1397.28 640.257 1402.46 646.831 1405.99 646.166C1409.34 645.533 1410.97 638.464 1410.91 633.726C1410.85 629.843 1409.61 623.101 1406.35 622.32Z" fill="url(#paint9_linear_89_28)"/>
<path d="M1462.94 457.453C1463.22 457.453 1464.61 457.4 1465.68 456.166C1466.44 455.29 1466.62 454.287 1466.67 453.897C1466.67 441.214 1466.67 428.532 1466.67 415.849C1466.51 415.448 1466.14 414.635 1465.34 413.96C1464.35 413.137 1463.32 413.021 1462.94 413C1452.24 413 1441.54 413 1430.83 413V457.453H1462.94Z" fill="#D0CFD0"/>
<path d="M1447.36 413V457.453H1458.79V413H1447.36Z" fill="#DFDFDE"/>
<path d="M1433.99 449.856C1439.84 448.02 1443.94 442.269 1444.14 435.728C1444.35 428.837 1440.16 422.549 1433.99 420.607C1424.95 420.607 1415.89 420.607 1406.84 420.607C1407.75 421.589 1412.35 426.759 1412.42 435.01C1412.51 443.546 1407.68 448.938 1406.84 449.856C1415.89 449.856 1424.95 449.856 1433.99 449.856Z" fill="url(#paint10_linear_89_28)"/>
<path d="M1442.34 440.033H1411.48C1411.84 438.894 1412.18 437.427 1412.33 435.697C1412.53 433.586 1412.38 431.782 1412.19 430.432H1443.81C1444.04 431.466 1444.31 433.281 1443.95 435.496C1443.61 437.607 1442.85 439.158 1442.33 440.033H1442.34Z" fill="#DBDBDB"/>
<path d="M1406.84 420.618C1402.59 419.605 1396.3 426.98 1396.01 434.609C1395.71 442.618 1402.05 450.689 1406.38 449.866C1410.48 449.086 1412.49 440.412 1412.41 434.609C1412.35 429.84 1410.83 421.578 1406.83 420.618H1406.84Z" fill="#D9D9D9" stroke="#9D9D9C" stroke-width="0.75" stroke-miterlimit="10"/>
<path d="M1406.35 423.32C1402.89 422.497 1397.77 428.501 1397.53 434.726C1397.28 441.257 1402.46 447.831 1405.99 447.166C1409.34 446.533 1410.97 439.464 1410.91 434.726C1410.85 430.843 1409.61 424.101 1406.35 423.32Z" fill="url(#paint11_linear_89_28)"/>
<path d="M1460.94 256.453C1461.22 256.453 1462.61 256.4 1463.68 255.166C1464.44 254.29 1464.62 253.287 1464.67 252.897C1464.67 240.214 1464.67 227.532 1464.67 214.849C1464.51 214.448 1464.14 213.635 1463.34 212.96C1462.36 212.137 1461.32 212.021 1460.94 212H1428.83V256.453H1460.94Z" fill="#D0CFD0"/>
<path d="M1445.36 212V256.453H1456.79V212H1445.36Z" fill="#DFDFDE"/>
<path d="M1432 248.857C1437.84 247.021 1441.94 241.27 1442.14 234.729C1442.35 227.838 1438.16 221.55 1432 219.608C1422.95 219.608 1413.89 219.608 1404.84 219.608C1405.75 220.59 1410.35 225.76 1410.43 234.011C1410.51 242.547 1405.68 247.939 1404.84 248.857C1413.89 248.857 1422.95 248.857 1432 248.857Z" fill="url(#paint12_linear_89_28)"/>
<path d="M1440.34 239.033H1409.49C1409.84 237.894 1410.18 236.427 1410.33 234.697C1410.53 232.587 1410.38 230.782 1410.19 229.432H1441.81C1442.04 230.466 1442.31 232.281 1441.95 234.496C1441.61 236.607 1440.85 238.158 1440.33 239.033H1440.34Z" fill="#DBDBDB"/>
<path d="M1404.84 219.618C1400.59 218.605 1394.3 225.981 1394.01 233.609C1393.71 241.618 1400.05 249.689 1404.38 248.866C1408.48 248.086 1410.49 239.412 1410.41 233.609C1410.35 228.84 1408.83 220.578 1404.83 219.618H1404.84Z" fill="#D9D9D9" stroke="#9D9D9C" stroke-width="0.75" stroke-miterlimit="10"/>
<path d="M1404.35 222.32C1400.89 221.497 1395.77 227.501 1395.53 233.726C1395.28 240.257 1400.46 246.831 1403.99 246.166C1407.34 245.533 1408.97 238.464 1408.91 233.726C1408.86 229.843 1407.62 223.101 1404.35 222.32Z" fill="url(#paint13_linear_89_28)"/>
<path d="M5.72922 458.453C5.4503 458.453 4.05572 458.4 2.9917 457.166C2.22727 456.29 2.05165 455.288 2 454.897C2 442.214 2 429.532 2 416.849C2.15495 416.448 2.52684 415.635 3.3326 414.96C4.31397 414.137 5.347 414.021 5.72922 414H37.8356V458.453H5.72922Z" fill="#D0CFD0"/>
<path d="M9.87164 414L9.87164 458.453H21.2969L21.2969 414H9.87164Z" fill="#DFDFDE"/>
<path d="M34.6746 450.856C28.8277 449.02 24.7265 443.269 24.5303 436.728C24.3237 429.838 28.5074 423.549 34.6746 421.607C43.7239 421.607 52.7835 421.607 61.8328 421.607C60.9237 422.589 56.3164 427.759 56.2441 436.01C56.1615 444.546 60.9857 449.938 61.8328 450.856C52.7835 450.856 43.7239 450.856 34.6746 450.856Z" fill="url(#paint14_linear_89_28)"/>
<path d="M26.3277 441.033H57.1841C56.8329 439.894 56.492 438.427 56.3371 436.697C56.1408 434.587 56.2854 432.782 56.4817 431.432C45.9448 431.432 35.3977 431.432 24.8608 431.432C24.6335 432.466 24.3546 434.281 24.7162 436.496C25.0571 438.607 25.8215 440.158 26.338 441.033H26.3277Z" fill="#DBDBDB"/>
<path d="M61.8328 421.618C66.0785 420.605 72.3696 427.981 72.6589 435.609C72.9585 443.618 66.6157 451.689 62.2873 450.866C58.1862 450.086 56.1821 441.412 56.2545 435.609C56.3164 430.84 57.835 422.578 61.8431 421.618H61.8328Z" fill="#D9D9D9" stroke="#9D9D9C" stroke-width="0.75" stroke-miterlimit="10"/>
<path d="M62.3183 424.32C65.779 423.497 70.9028 429.501 71.1404 435.726C71.3883 442.257 66.2128 448.831 62.6799 448.166C59.3329 447.533 57.7007 440.464 57.7627 435.726C57.8143 431.843 59.054 425.101 62.3183 424.32Z" fill="url(#paint15_linear_89_28)"/>
<path d="M28.9536 250.099C39.2425 250.099 49.5211 250.099 59.8101 250.099C59.4588 248.959 59.1179 247.493 58.963 245.762C58.7667 243.652 58.9113 241.848 59.1076 240.497C48.5707 240.497 38.0236 240.497 27.4867 240.497C27.2595 241.531 26.9805 243.346 27.3421 245.562C27.683 247.672 28.4474 249.223 28.9639 250.099H28.9536Z" fill="#DBDBDB"/>
<path d="M3.72922 256.453C3.4503 256.453 2.05572 256.4 0.991704 255.166C0.227265 254.29 0.0516512 253.288 0 252.897C0 240.214 0 227.532 0 214.849C0.154954 214.448 0.526843 213.635 1.3326 212.96C2.31397 212.137 3.347 212.021 3.72922 212H35.8356V256.453H3.72922Z" fill="#D0CFD0"/>
<path d="M7.87164 212L7.87164 256.453H19.2969L19.2969 212H7.87164Z" fill="#DFDFDE"/>
<path d="M32.6746 248.856C26.8277 247.02 22.7265 241.269 22.5303 234.728C22.3237 227.837 26.5074 221.549 32.6746 219.607H59.8328C58.9237 220.589 54.3164 225.759 54.2441 234.01C54.1615 242.546 58.9857 247.938 59.8328 248.856H32.6746Z" fill="url(#paint16_linear_89_28)"/>
<path d="M59.8328 219.628C64.0785 218.615 70.3696 225.99 70.6589 233.619C70.9585 241.627 64.6157 249.699 60.2873 248.876C56.1862 248.095 54.1821 239.422 54.2545 233.619C54.3164 228.85 55.835 220.588 59.8431 219.628H59.8328Z" fill="#D9D9D9" stroke="#9D9D9C" stroke-width="0.75" stroke-miterlimit="10"/>
<path d="M60.3183 222.33C63.779 221.507 68.9028 227.511 69.1404 233.736C69.3883 240.267 64.2128 246.841 60.6799 246.176C57.3329 245.543 55.7007 238.473 55.7627 233.736C55.8143 229.853 57.054 223.111 60.3183 222.33Z" fill="url(#paint17_linear_89_28)"/>
<path d="M1427.05 56.9562V44.1363C1426.97 43.4188 1426.72 42.3426 1425.95 41.298C1423.86 38.428 1419.84 38.4597 1419.42 38.4597C1415.29 38.4597 1411.17 38.4597 1407.05 38.4597V4.20996H1437.58C1440.01 4.55816 1448.24 6.01425 1454.94 12.841C1461.14 19.1401 1462.3 26.2201 1462.57 28.6153C1462.57 38.0587 1462.57 47.5128 1462.57 56.9562H1427.05Z" fill="#CFCECE"/>
<path d="M1452.79 56.9562C1452.43 35.5369 1452.24 24.1837 1452.24 24.1837C1452.24 24.1837 1450.88 18.4543 1447.33 16.0275C1444.19 13.875 1440.86 13.8433 1439.77 13.875C1428.95 13.7273 1418.12 13.5901 1407.31 13.4424V20.9022C1417.14 20.955 1426.99 21.0077 1436.82 21.071C1437.23 21.1027 1439.84 21.3454 1441.39 23.4345C1442.16 24.4791 1442.34 25.5659 1442.39 26.1462C1442.71 29.185 1442.82 40.992 1442.65 56.9773H1452.78L1452.79 56.9562Z" fill="#DDDDDD"/>
<path d="M411.01 3.77739C411.01 3.50305 411.062 2.08917 412.281 1.00238C413.149 0.23213 414.13 0.0527568 414.523 0H452.063C452.455 0.15827 453.261 0.53812 453.922 1.34002C454.738 2.33185 454.842 3.37644 454.862 3.77739V36.3072H411V3.77739H411.01Z" fill="#D0CFD0"/>
<path d="M454.872 7.97656H411.01V19.562H454.872V7.97656Z" fill="#DFDFDE"/>
<path d="M418.5 33.1105C420.308 27.1912 425.989 23.0234 432.435 22.823C439.233 22.6119 445.441 26.8536 447.362 33.1105V60.6285C446.402 59.7105 441.288 55.0468 433.148 54.9624C424.729 54.878 419.409 59.7633 418.5 60.6285V33.1105Z" fill="url(#paint18_linear_89_28)"/>
<path d="M428.2 24.6481V55.9224C429.326 55.5742 430.772 55.226 432.487 55.0571C434.563 54.8567 436.351 55.0044 437.673 55.2049V23.1498C436.66 22.9177 434.863 22.6433 432.673 23.0021C430.597 23.3503 429.068 24.1205 428.2 24.6481Z" fill="#DBDBDB"/>
<path d="M447.342 60.639C448.344 64.944 441.061 71.317 433.541 71.6019C425.638 71.9079 417.673 65.4821 418.489 61.0822C419.254 56.9249 427.818 54.8991 433.541 54.9624C438.241 55.0257 446.402 56.5662 447.342 60.6285V60.639Z" fill="#D9D9D9" stroke="#9D9D9C" stroke-width="0.75" stroke-miterlimit="10"/>
<path d="M444.677 61.1244C445.493 64.6275 439.563 69.8293 433.427 70.0614C426.981 70.3041 420.493 65.0706 421.155 61.4937C421.774 58.1067 428.758 56.4502 433.427 56.5135C437.259 56.5662 443.912 57.8218 444.677 61.1244Z" fill="url(#paint19_linear_89_28)"/>
<path d="M611.01 3.77739C611.01 3.50305 611.062 2.08917 612.281 1.00238C613.149 0.23213 614.13 0.0527568 614.523 0H652.063C652.455 0.15827 653.261 0.53812 653.922 1.34002C654.738 2.33185 654.842 3.37644 654.862 3.77739V36.3072H611V3.77739H611.01Z" fill="#D0CFD0"/>
<path d="M654.873 7.97656H611.01V19.562H654.873V7.97656Z" fill="#DFDFDE"/>
<path d="M618.5 33.1105C620.308 27.1912 625.989 23.0234 632.435 22.823C639.233 22.6119 645.441 26.8536 647.363 33.1105V60.6285C646.402 59.7105 641.289 55.0468 633.148 54.9624C624.729 54.878 619.409 59.7633 618.5 60.6285V33.1105Z" fill="url(#paint20_linear_89_28)"/>
<path d="M628.2 24.6481V55.9224C629.326 55.5742 630.772 55.226 632.487 55.0571C634.563 54.8567 636.351 55.0044 637.673 55.2049V23.1498C636.661 22.9177 634.863 22.6433 632.673 23.0021C630.597 23.3503 629.068 24.1205 628.2 24.6481Z" fill="#DBDBDB"/>
<path d="M647.342 60.639C648.344 64.944 641.061 71.317 633.541 71.6019C625.638 71.9079 617.673 65.4821 618.49 61.0822C619.254 56.9249 627.818 54.8991 633.541 54.9624C638.241 55.0257 646.402 56.5662 647.342 60.6285V60.639Z" fill="#D9D9D9" stroke="#9D9D9C" stroke-width="0.75" stroke-miterlimit="10"/>
<path d="M644.677 61.1244C645.493 64.6275 639.563 69.8293 633.427 70.0614C626.981 70.3041 620.494 65.0706 621.155 61.4937C621.775 58.1067 628.758 56.4502 633.427 56.5135C637.26 56.5662 643.912 57.8218 644.677 61.1244Z" fill="url(#paint21_linear_89_28)"/>
<path d="M811.01 3.77739C811.01 3.50305 811.062 2.08917 812.281 1.00238C813.149 0.23213 814.13 0.0527568 814.523 0H852.063C852.455 0.15827 853.261 0.53812 853.922 1.34002C854.738 2.33185 854.842 3.37644 854.862 3.77739V36.3072H811V3.77739H811.01Z" fill="#D0CFD0"/>
<path d="M854.873 7.97656H811.01V19.562H854.873V7.97656Z" fill="#DFDFDE"/>
<path d="M818.5 33.1105C820.308 27.1912 825.989 23.0234 832.435 22.823C839.233 22.6119 845.441 26.8536 847.363 33.1105V60.6285C846.402 59.7105 841.288 55.0468 833.148 54.9624C824.729 54.878 819.409 59.7633 818.5 60.6285V33.1105Z" fill="url(#paint22_linear_89_28)"/>
<path d="M828.2 24.6481V55.9224C829.326 55.5742 830.772 55.226 832.487 55.0571C834.563 54.8567 836.35 55.0044 837.673 55.2049V23.1498C836.66 22.9177 834.863 22.6433 832.673 23.0021C830.597 23.3503 829.068 24.1205 828.2 24.6481Z" fill="#DBDBDB"/>
<path d="M847.342 60.639C848.344 64.944 841.061 71.317 833.541 71.6019C825.638 71.9079 817.673 65.4821 818.49 61.0822C819.254 56.9249 827.818 54.8991 833.541 54.9624C838.241 55.0257 846.402 56.5662 847.342 60.6285V60.639Z" fill="#D9D9D9" stroke="#9D9D9C" stroke-width="0.75" stroke-miterlimit="10"/>
<path d="M844.677 61.1244C845.493 64.6275 839.563 69.8293 833.427 70.0614C826.981 70.3041 820.494 65.0706 821.155 61.4937C821.775 58.1067 828.758 56.4502 833.427 56.5135C837.26 56.5662 843.912 57.8218 844.677 61.1244Z" fill="url(#paint23_linear_89_28)"/>
<path d="M1011.01 3.77739C1011.01 3.50305 1011.06 2.08917 1012.28 1.00238C1013.15 0.23213 1014.13 0.0527568 1014.52 0H1052.06C1052.46 0.15827 1053.26 0.53812 1053.92 1.34002C1054.74 2.33185 1054.84 3.37644 1054.86 3.77739V36.3072H1011V3.77739H1011.01Z" fill="#D0CFD0"/>
<path d="M1054.87 7.97656H1011.01V19.562H1054.87V7.97656Z" fill="#DFDFDE"/>
<path d="M1018.5 33.1203C1020.31 27.201 1025.99 23.0332 1032.44 22.8327C1039.23 22.6217 1045.44 26.8634 1047.36 33.1203V60.6383C1046.4 59.7203 1041.29 55.0566 1033.15 54.9722C1024.73 54.8878 1019.41 59.7731 1018.5 60.6383V33.1203Z" fill="url(#paint24_linear_89_28)"/>
<path d="M1028.2 24.6588V55.9331C1029.33 55.5849 1030.77 55.2367 1032.49 55.0679C1034.56 54.8674 1036.35 55.0151 1037.67 55.2156V23.1605C1036.66 22.9284 1034.86 22.6541 1032.67 23.0128C1030.6 23.361 1029.07 24.1313 1028.2 24.6588Z" fill="#DBDBDB"/>
<path d="M1047.34 60.638C1048.34 64.943 1041.06 71.316 1033.54 71.6009C1025.64 71.9069 1017.67 65.4811 1018.49 61.0812C1019.25 56.924 1027.82 54.8981 1033.54 54.9614C1038.24 55.0247 1046.4 56.5652 1047.34 60.6275V60.638Z" fill="#D9D9D9" stroke="#9D9D9C" stroke-width="0.75" stroke-miterlimit="10"/>
<path d="M1044.68 61.1342C1045.49 64.6372 1039.56 69.8391 1033.43 70.0712C1026.98 70.3139 1020.49 65.0804 1021.15 61.5035C1021.77 58.1165 1028.76 56.4599 1033.43 56.5232C1037.26 56.576 1043.91 57.8316 1044.68 61.1342Z" fill="url(#paint25_linear_89_28)"/>
<path d="M1211.01 3.77739C1211.01 3.50305 1211.06 2.08917 1212.28 1.00238C1213.15 0.23213 1214.13 0.0527568 1214.52 0H1252.06C1252.46 0.15827 1253.26 0.53812 1253.92 1.34002C1254.74 2.33185 1254.84 3.37644 1254.86 3.77739V36.3072H1211V3.77739H1211.01Z" fill="#D0CFD0"/>
<path d="M1254.87 7.97656H1211.01V19.562H1254.87V7.97656Z" fill="#DFDFDE"/>
<path d="M1218.5 33.1203C1220.31 27.201 1225.99 23.0332 1232.44 22.8327C1239.23 22.6217 1245.44 26.8634 1247.36 33.1203V60.6383C1246.4 59.7203 1241.29 55.0566 1233.15 54.9722C1224.73 54.8878 1219.41 59.7731 1218.5 60.6383V33.1203Z" fill="url(#paint26_linear_89_28)"/>
<path d="M1228.2 24.6588V55.9331C1229.33 55.5849 1230.77 55.2367 1232.49 55.0679C1234.56 54.8674 1236.35 55.0151 1237.67 55.2156V23.1605C1236.66 22.9284 1234.86 22.6541 1232.67 23.0128C1230.6 23.361 1229.07 24.1313 1228.2 24.6588Z" fill="#DBDBDB"/>
<path d="M1247.34 60.639C1248.34 64.944 1241.06 71.317 1233.54 71.6019C1225.64 71.9079 1217.67 65.4821 1218.49 61.0822C1219.25 56.9249 1227.82 54.8991 1233.54 54.9624C1238.24 55.0257 1246.4 56.5662 1247.34 60.6285V60.639Z" fill="#D9D9D9" stroke="#9D9D9C" stroke-width="0.75" stroke-miterlimit="10"/>
<path d="M1244.68 61.1352C1245.49 64.6382 1239.56 69.84 1233.43 70.0722C1226.98 70.3148 1220.49 65.0814 1221.15 61.5045C1221.77 58.1175 1228.76 56.4609 1233.43 56.5242C1237.26 56.577 1243.91 57.8326 1244.68 61.1352Z" fill="url(#paint27_linear_89_28)"/>
<path d="M211.01 3.77739C211.01 3.50305 211.062 2.08917 212.281 1.00238C213.149 0.23213 214.13 0.0527568 214.523 0H252.063C252.455 0.15827 253.261 0.53812 253.922 1.34002C254.738 2.33185 254.842 3.37644 254.862 3.77739V36.3072H211V3.77739H211.01Z" fill="#D0CFD0"/>
<path d="M254.872 7.97656H211.01V19.562H254.872V7.97656Z" fill="#DFDFDE"/>
<path d="M218.51 33.1105C220.318 27.1912 226 23.0234 232.446 22.823C239.243 22.6119 245.451 26.8536 247.373 33.1105V60.6285C246.412 59.7105 241.299 55.0468 233.158 54.9624C224.739 54.878 219.419 59.7633 218.51 60.6285V33.1105Z" fill="url(#paint28_linear_89_28)"/>
<path d="M228.2 24.6481V55.9224C229.326 55.5742 230.772 55.226 232.487 55.0571C234.563 54.8567 236.35 55.0044 237.673 55.2049V23.1498C236.66 22.9177 234.863 22.6433 232.673 23.0021C230.596 23.3503 229.068 24.1205 228.2 24.6481Z" fill="#DBDBDB"/>
<path d="M247.352 60.639C248.354 64.944 241.071 71.317 233.551 71.6019C225.648 71.9079 217.684 65.4821 218.5 61.0822C219.264 56.9249 227.828 54.8991 233.551 54.9624C238.251 55.0257 246.412 56.5662 247.352 60.6285V60.639Z" fill="#D9D9D9" stroke="#9D9D9C" stroke-width="0.75" stroke-miterlimit="10"/>
<path d="M244.687 61.1244C245.503 64.6275 239.573 69.8293 233.437 70.0614C226.991 70.3041 220.504 65.0706 221.165 61.4937C221.785 58.1067 228.768 56.4502 233.437 56.5135C237.27 56.5662 243.922 57.8218 244.687 61.1244Z" fill="url(#paint29_linear_89_28)"/>
<path d="M40.5132 57.2092V44.3893C40.5958 43.6718 40.8438 42.5955 41.6082 41.5509C43.7053 38.681 47.7237 38.7126 48.1473 38.7126H60.5126V4.46289H29.9867C27.5487 4.81109 19.3259 6.26717 12.6215 13.0939C6.42339 19.3931 5.2664 26.473 4.98749 28.8682C4.98749 38.3117 4.98749 47.7657 4.98749 57.2092H40.5132Z" fill="#CFCECE"/>
<path d="M14.7702 57.2101C15.1318 35.7909 15.3177 24.4376 15.3177 24.4376C15.3177 24.4376 16.6813 18.7082 20.2349 16.2814C23.3753 14.1289 26.7016 14.0972 27.7966 14.1289C38.6124 13.9812 49.4385 13.844 60.2543 13.6963C60.2543 16.1864 60.2543 18.666 60.2543 21.1561C50.4199 21.2089 40.5752 21.2616 30.7408 21.3249C30.3276 21.3566 27.7243 21.5993 26.1748 23.6884C25.4 24.733 25.2244 25.8198 25.1728 26.4001C24.8525 29.4389 24.7389 41.2459 24.9145 57.2312C21.5365 57.2312 18.1585 57.2312 14.7805 57.2312L14.7702 57.2101Z" fill="#DDDDDD"/>
<path d="M40.5132 812.256V825.076C40.5958 825.793 40.8438 826.87 41.6082 827.914C43.7053 830.784 47.7237 830.752 48.1473 830.752C52.269 830.752 56.3908 830.752 60.5126 830.752V865.013H29.9867C27.5487 864.664 19.3259 863.208 12.6215 856.382C6.42339 850.083 5.2664 843.003 4.98749 840.607C4.98749 831.164 4.98749 821.71 4.98749 812.266H40.5132V812.256Z" fill="#CFCECE"/>
<path d="M14.7702 812.255C15.1317 833.675 15.3177 845.028 15.3177 845.028C15.3177 845.028 16.6813 850.757 20.2349 853.184C23.3753 855.337 26.7016 855.368 27.7966 855.337C38.6124 855.484 49.4385 855.622 60.2542 855.769V848.309C50.4198 848.257 40.5751 848.204 30.7407 848.141C30.3275 848.109 27.7243 847.866 26.1748 845.777C25.4 844.733 25.2244 843.646 25.1727 843.065C24.8525 840.027 24.7389 828.22 24.9145 812.234H14.7805L14.7702 812.255Z" fill="#DDDDDD"/>
<path d="M1054.86 866.836C1054.86 867.11 1054.81 868.524 1053.59 869.611C1052.72 870.381 1051.74 870.56 1051.35 870.613H1013.81C1013.42 870.455 1012.61 870.075 1011.95 869.273C1011.13 868.281 1011.03 867.236 1011.01 866.836V834.306H1054.87V866.836H1054.86Z" fill="#D0CFD0"/>
<path d="M1011 862.625H1054.86V851.04H1011V862.625Z" fill="#DFDFDE"/>
<path d="M1047.36 837.492C1045.55 843.411 1039.87 847.579 1033.43 847.779C1026.63 847.99 1020.42 843.749 1018.5 837.492V809.974C1019.46 810.892 1024.57 815.555 1032.71 815.64C1041.13 815.724 1046.45 810.839 1047.36 809.974V837.492Z" fill="url(#paint30_linear_89_28)"/>
<path d="M1037.67 845.954V814.68C1036.55 815.028 1035.1 815.376 1033.39 815.545C1031.31 815.745 1029.52 815.598 1028.2 815.397V847.452C1029.21 847.684 1031.01 847.959 1033.2 847.6C1035.28 847.252 1036.8 846.481 1037.67 845.954Z" fill="#DBDBDB"/>
<path d="M1018.52 809.973C1017.52 805.668 1024.8 799.295 1032.32 799.011C1040.22 798.705 1048.19 805.13 1047.37 809.53C1046.61 813.688 1038.04 815.713 1032.32 815.65C1027.62 815.587 1019.46 814.046 1018.52 809.984V809.973Z" fill="#D9D9D9" stroke="#9D9D9C" stroke-width="0.75" stroke-miterlimit="10"/>
<path d="M1021.19 809.477C1020.37 805.974 1026.3 800.773 1032.44 800.54C1038.88 800.298 1045.37 805.531 1044.71 809.108C1044.09 812.495 1037.1 814.152 1032.44 814.088C1028.6 814.036 1021.95 812.78 1021.19 809.477Z" fill="url(#paint31_linear_89_28)"/>
<path d="M854.862 864.836C854.862 865.11 854.811 866.524 853.592 867.611C852.724 868.381 851.743 868.56 851.35 868.613H813.81C813.418 868.455 812.612 868.075 811.951 867.273C811.135 866.281 811.031 865.236 811.011 864.836V832.306H854.873V864.836H854.862Z" fill="#D0CFD0"/>
<path d="M811 860.625H854.862V849.04H811V860.625Z" fill="#DFDFDE"/>
<path d="M847.362 835.492C845.554 841.411 839.873 845.579 833.427 845.779C826.629 845.99 820.421 841.749 818.499 835.492V807.974C819.46 808.892 824.574 813.555 832.714 813.64C841.133 813.724 846.453 808.839 847.362 807.974V835.492Z" fill="url(#paint32_linear_89_28)"/>
<path d="M837.673 843.954V812.68C836.547 813.028 835.101 813.376 833.386 813.545C831.309 813.745 829.522 813.598 828.2 813.397V845.452C829.212 845.684 831.01 845.959 833.2 845.6C835.276 845.252 836.805 844.481 837.673 843.954Z" fill="#DBDBDB"/>
<path d="M818.52 807.973C817.518 803.668 824.801 797.295 832.322 797.011C840.224 796.705 848.189 803.13 847.373 807.53C846.608 811.688 838.045 813.713 832.322 813.65C827.621 813.587 819.46 812.046 818.52 807.984V807.973Z" fill="#D9D9D9" stroke="#9D9D9C" stroke-width="0.75" stroke-miterlimit="10"/>
<path d="M821.186 807.477C820.37 803.974 826.299 798.773 832.435 798.54C838.881 798.298 845.369 803.531 844.708 807.108C844.088 810.495 837.105 812.152 832.435 812.088C828.603 812.036 821.95 810.78 821.186 807.477Z" fill="url(#paint33_linear_89_28)"/>
<path d="M654.873 864.836C654.873 865.11 654.821 866.524 653.602 867.611C652.734 868.381 651.753 868.56 651.36 868.613H613.82C613.428 868.455 612.622 868.075 611.961 867.273C611.145 866.281 611.041 865.236 611.021 864.836V832.306H654.883V864.836H654.873Z" fill="#D0CFD0"/>
<path d="M611 860.625H654.862V849.04H611V860.625Z" fill="#DFDFDE"/>
<path d="M647.362 835.492C645.555 841.411 639.873 845.579 633.427 845.779C626.63 845.99 620.421 841.749 618.5 835.492V807.974C619.46 808.892 624.574 813.555 632.714 813.64C641.133 813.724 646.453 808.839 647.362 807.974V835.492Z" fill="url(#paint34_linear_89_28)"/>
<path d="M637.89 843.954V812.68C636.764 813.028 635.317 813.376 633.603 813.545C631.526 813.745 629.739 813.598 628.417 813.397V845.452C629.429 845.684 631.227 845.959 633.417 845.6C635.493 845.252 637.022 844.481 637.89 843.954Z" fill="#DBDBDB"/>
<path d="M618.52 807.973C617.518 803.668 624.801 797.295 632.322 797.011C640.224 796.705 648.189 803.13 647.373 807.53C646.608 811.688 638.044 813.713 632.322 813.65C627.621 813.587 619.46 812.046 618.52 807.984V807.973Z" fill="#D9D9D9" stroke="#9D9D9C" stroke-width="0.75" stroke-miterlimit="10"/>
<path d="M621.196 807.477C620.38 803.974 626.31 798.773 632.446 798.54C638.892 798.298 645.379 803.531 644.718 807.108C644.098 810.495 637.115 812.152 632.446 812.088C628.613 812.036 621.96 810.78 621.196 807.477Z" fill="url(#paint35_linear_89_28)"/>
<path d="M454.862 864.835C454.862 865.109 454.81 866.523 453.592 867.61C452.724 868.38 451.742 868.559 451.35 868.612H413.81C413.417 868.454 412.611 868.074 411.95 867.272C411.134 866.28 411.031 865.235 411.01 864.835V832.305H454.872V864.835H454.862Z" fill="#D0CFD0"/>
<path d="M411 860.636H454.862V849.05H411V860.636Z" fill="#DFDFDE"/>
<path d="M447.362 835.492C445.555 841.411 439.873 845.579 433.427 845.779C426.63 845.99 420.421 841.749 418.5 835.492V807.974C419.46 808.892 424.574 813.555 432.714 813.64C441.133 813.724 446.453 808.839 447.362 807.974V835.492Z" fill="url(#paint36_linear_89_28)"/>
<path d="M437.673 843.954V812.68C436.547 813.028 435.1 813.376 433.386 813.545C431.309 813.745 429.522 813.598 428.2 813.397V845.452C429.212 845.684 431.01 845.959 433.2 845.6C435.276 845.252 436.805 844.482 437.673 843.954Z" fill="#DBDBDB"/>
<path d="M418.52 807.973C417.518 803.668 424.801 797.295 432.322 797.011C440.224 796.705 448.189 803.13 447.373 807.53C446.608 811.687 438.045 813.713 432.322 813.65C427.621 813.587 419.46 812.046 418.52 807.984V807.973Z" fill="#D9D9D9" stroke="#9D9D9C" stroke-width="0.75" stroke-miterlimit="10"/>
<path d="M421.186 807.478C420.369 803.975 426.299 798.773 432.435 798.541C438.881 798.299 445.369 803.532 444.708 807.109C444.088 810.496 437.104 812.153 432.435 812.089C428.603 812.037 421.95 810.781 421.186 807.478Z" fill="url(#paint37_linear_89_28)"/>
<path d="M254.862 864.835C254.862 865.109 254.81 866.523 253.592 867.61C252.724 868.38 251.742 868.559 251.35 868.612H213.81C213.417 868.454 212.611 868.074 211.95 867.272C211.134 866.28 211.031 865.235 211.01 864.835V832.305H254.872V864.835H254.862Z" fill="#D0CFD0"/>
<path d="M211 860.636H254.862V849.05H211V860.636Z" fill="#DFDFDE"/>
<path d="M247.362 835.492C245.555 841.411 239.873 845.579 233.427 845.779C226.63 845.99 220.421 841.749 218.5 835.492V807.974C219.46 808.892 224.574 813.555 232.714 813.64C241.133 813.724 246.453 808.839 247.362 807.974V835.492Z" fill="url(#paint38_linear_89_28)"/>
<path d="M237.673 843.954V812.68C236.547 813.028 235.1 813.376 233.386 813.545C231.309 813.745 229.522 813.598 228.2 813.397V845.452C229.212 845.684 231.01 845.959 233.2 845.6C235.276 845.252 236.805 844.482 237.673 843.954Z" fill="#DBDBDB"/>
<path d="M218.52 807.973C217.518 803.668 224.801 797.295 232.322 797.011C240.224 796.705 248.189 803.13 247.373 807.53C246.608 811.687 238.045 813.713 232.322 813.65C227.621 813.587 219.46 812.046 218.52 807.984V807.973Z" fill="#D9D9D9" stroke="#9D9D9C" stroke-width="0.75" stroke-miterlimit="10"/>
<path d="M221.186 807.478C220.37 803.975 226.299 798.773 232.435 798.541C238.881 798.299 245.369 803.532 244.708 807.109C244.088 810.496 237.105 812.153 232.435 812.089C228.603 812.037 221.95 810.781 221.186 807.478Z" fill="url(#paint39_linear_89_28)"/>
<path d="M1254.86 864.836C1254.86 865.11 1254.81 866.524 1253.59 867.611C1252.72 868.381 1251.74 868.56 1251.35 868.613H1213.81C1213.42 868.455 1212.61 868.075 1211.95 867.273C1211.13 866.281 1211.03 865.236 1211.01 864.836V832.306H1254.87V864.836H1254.86Z" fill="#D0CFD0"/>
<path d="M1211 860.625H1254.86V849.04H1211V860.625Z" fill="#DFDFDE"/>
<path d="M1247.36 835.492C1245.55 841.411 1239.87 845.579 1233.43 845.779C1226.63 845.99 1220.42 841.749 1218.5 835.492V807.974C1219.46 808.892 1224.57 813.555 1232.71 813.64C1241.13 813.724 1246.45 808.839 1247.36 807.974V835.492Z" fill="url(#paint40_linear_89_28)"/>
<path d="M1237.67 843.954V812.68C1236.55 813.028 1235.1 813.376 1233.39 813.545C1231.31 813.745 1229.52 813.598 1228.2 813.397V845.452C1229.21 845.684 1231.01 845.959 1233.2 845.6C1235.28 845.252 1236.8 844.481 1237.67 843.954Z" fill="#DBDBDB"/>
<path d="M1218.52 807.973C1217.52 803.668 1224.8 797.295 1232.32 797.011C1240.22 796.705 1248.19 803.13 1247.37 807.53C1246.61 811.688 1238.04 813.713 1232.32 813.65C1227.62 813.587 1219.46 812.046 1218.52 807.984V807.973Z" fill="#D9D9D9" stroke="#9D9D9C" stroke-width="0.75" stroke-miterlimit="10"/>
<path d="M1221.19 807.477C1220.37 803.974 1226.3 798.773 1232.44 798.54C1238.88 798.298 1245.37 803.531 1244.71 807.108C1244.09 810.495 1237.1 812.152 1232.44 812.088C1228.6 812.036 1221.95 810.78 1221.19 807.477Z" fill="url(#paint41_linear_89_28)"/>
<path d="M1427.05 812.001V824.821C1426.97 825.538 1426.72 826.615 1425.95 827.659C1423.86 830.529 1419.84 830.497 1419.42 830.497H1407.05V864.758H1437.58C1440.01 864.41 1448.24 862.954 1454.94 856.127C1461.14 849.828 1462.3 842.748 1462.57 840.352C1462.57 830.909 1462.57 821.455 1462.57 812.012H1427.05V812.001Z" fill="#CFCECE"/>
<path d="M1452.79 812.002C1452.43 833.421 1452.24 844.774 1452.24 844.774C1452.24 844.774 1450.88 850.504 1447.33 852.93C1444.19 855.083 1440.86 855.114 1439.77 855.083C1428.95 855.231 1418.12 855.368 1407.31 855.515C1407.31 853.025 1407.31 850.546 1407.31 848.056C1417.14 848.003 1426.99 847.95 1436.82 847.887C1437.23 847.855 1439.84 847.612 1441.39 845.523C1442.16 844.479 1442.34 843.392 1442.39 842.812C1442.71 839.773 1442.82 827.966 1442.65 811.98C1446.03 811.98 1449.4 811.98 1452.78 811.98L1452.79 812.002Z" fill="#DDDDDD"/>
<path d="M6.72922 658.454C6.4503 658.454 5.05572 658.401 3.9917 657.167C3.22727 656.291 3.05165 655.288 3 654.898C3 642.215 3 629.533 3 616.85C3.15495 616.449 3.52684 615.636 4.3326 614.961C5.31397 614.138 6.347 614.022 6.72922 614.001H38.8356V658.454H6.72922Z" fill="#D0CFD0"/>
<path d="M35.6745 650.857C29.8276 649.021 25.7265 643.27 25.5302 636.729C25.3236 629.838 29.5074 623.55 35.6745 621.608H62.8327C61.9237 622.59 57.3164 627.76 57.2441 636.011C57.1614 644.547 61.9857 649.939 62.8327 650.857H35.6745Z" fill="url(#paint42_linear_89_28)"/>
<path d="M27.3276 641.032C37.6166 641.032 47.8952 641.032 58.1841 641.032C57.8328 639.893 57.492 638.426 57.337 636.696C57.1407 634.586 57.2853 632.781 57.4816 631.431H25.8607C25.6335 632.465 25.3546 634.28 25.7161 636.495C26.057 638.606 26.8215 640.157 27.338 641.032H27.3276Z" fill="#DBDBDB"/>
<path d="M62.8327 621.619C67.0785 620.606 73.3696 627.981 73.6588 635.61C73.9584 643.619 67.6156 651.69 63.2873 650.867C59.1861 650.087 57.1821 641.413 57.2544 635.61C57.3164 630.841 58.8349 622.579 62.8431 621.619H62.8327Z" fill="#D9D9D9" stroke="#9D9D9C" stroke-width="0.75" stroke-miterlimit="10"/>
<path d="M63.3183 624.32C66.779 623.497 71.9028 629.501 72.1404 635.726C72.3883 642.257 67.2128 648.831 63.6799 648.166C60.3329 647.533 58.7007 640.464 58.7627 635.726C58.8143 631.843 60.054 625.101 63.3183 624.32Z" fill="url(#paint43_linear_89_28)"/>
<path d="M10.3861 614L10.3861 658.453H21.8114L21.8114 614H10.3861Z" fill="#DFDFDE"/>
<defs>
<linearGradient id="paint0_linear_89_28" x1="1432.98" y1="434.885" x2="1457.54" y2="434.885" gradientUnits="userSpaceOnUse">
<stop stop-color="#9D9D9C"/>
<stop offset="0.06" stop-color="#A8A8A7"/>
<stop offset="0.19" stop-color="#B8B8B8"/>
<stop offset="0.33" stop-color="#C2C2C2"/>
<stop offset="0.51" stop-color="#C6C6C6"/>
<stop offset="0.63" stop-color="#C1C1C1"/>
<stop offset="0.75" stop-color="#B5B5B5"/>
<stop offset="0.88" stop-color="#A0A0A0"/>
<stop offset="1" stop-color="#878787"/>
</linearGradient>
<linearGradient id="paint1_linear_89_28" x1="1445.26" y1="442.873" x2="1453.91" y2="442.873" gradientUnits="userSpaceOnUse">
<stop stop-color="#9D9D9C"/>
<stop offset="0.06" stop-color="#A8A8A7"/>
<stop offset="0.19" stop-color="#B8B8B8"/>
<stop offset="0.33" stop-color="#C2C2C2"/>
<stop offset="0.51" stop-color="#C6C6C6"/>
<stop offset="0.63" stop-color="#C1C1C1"/>
<stop offset="0.75" stop-color="#B5B5B5"/>
<stop offset="0.88" stop-color="#A0A0A0"/>
<stop offset="1" stop-color="#878787"/>
</linearGradient>
<linearGradient id="paint2_linear_89_28" x1="33.5816" y1="441.111" x2="9.0163" y2="441.111" gradientUnits="userSpaceOnUse">
<stop stop-color="#9D9D9C"/>
<stop offset="0.06" stop-color="#A8A8A7"/>
<stop offset="0.19" stop-color="#B8B8B8"/>
<stop offset="0.33" stop-color="#C2C2C2"/>
<stop offset="0.51" stop-color="#C6C6C6"/>
<stop offset="0.63" stop-color="#C1C1C1"/>
<stop offset="0.75" stop-color="#B5B5B5"/>
<stop offset="0.88" stop-color="#A0A0A0"/>
<stop offset="1" stop-color="#878787"/>
</linearGradient>
<linearGradient id="paint3_linear_89_28" x1="21.2989" y1="448.834" x2="12.6629" y2="448.834" gradientUnits="userSpaceOnUse">
<stop stop-color="#9D9D9C"/>
<stop offset="0.06" stop-color="#A8A8A7"/>
<stop offset="0.19" stop-color="#B8B8B8"/>
<stop offset="0.33" stop-color="#C2C2C2"/>
<stop offset="0.51" stop-color="#C6C6C6"/>
<stop offset="0.63" stop-color="#C1C1C1"/>
<stop offset="0.75" stop-color="#B5B5B5"/>
<stop offset="0.88" stop-color="#A0A0A0"/>
<stop offset="1" stop-color="#878787"/>
</linearGradient>
<linearGradient id="paint4_linear_89_28" x1="738.528" y1="34.3448" x2="738.528" y2="9.4541" gradientUnits="userSpaceOnUse">
<stop stop-color="#9D9D9C"/>
<stop offset="0.06" stop-color="#A8A8A7"/>
<stop offset="0.19" stop-color="#B8B8B8"/>
<stop offset="0.33" stop-color="#C2C2C2"/>
<stop offset="0.51" stop-color="#C6C6C6"/>
<stop offset="0.63" stop-color="#C1C1C1"/>
<stop offset="0.75" stop-color="#B5B5B5"/>
<stop offset="0.88" stop-color="#A0A0A0"/>
<stop offset="1" stop-color="#878787"/>
</linearGradient>
<linearGradient id="paint5_linear_89_28" x1="727.165" y1="21.9049" x2="727.165" y2="13.1367" gradientUnits="userSpaceOnUse">
<stop stop-color="#9D9D9C"/>
<stop offset="0.06" stop-color="#A8A8A7"/>
<stop offset="0.19" stop-color="#B8B8B8"/>
<stop offset="0.33" stop-color="#C2C2C2"/>
<stop offset="0.51" stop-color="#C6C6C6"/>
<stop offset="0.63" stop-color="#C1C1C1"/>
<stop offset="0.75" stop-color="#B5B5B5"/>
<stop offset="0.88" stop-color="#A0A0A0"/>
<stop offset="1" stop-color="#878787"/>
</linearGradient>
<linearGradient id="paint6_linear_89_28" x1="726.751" y1="834.634" x2="726.751" y2="859.525" gradientUnits="userSpaceOnUse">
<stop stop-color="#9D9D9C"/>
<stop offset="0.06" stop-color="#A8A8A7"/>
<stop offset="0.19" stop-color="#B8B8B8"/>
<stop offset="0.33" stop-color="#C2C2C2"/>
<stop offset="0.51" stop-color="#C6C6C6"/>
<stop offset="0.63" stop-color="#C1C1C1"/>
<stop offset="0.75" stop-color="#B5B5B5"/>
<stop offset="0.88" stop-color="#A0A0A0"/>
<stop offset="1" stop-color="#878787"/>
</linearGradient>
<linearGradient id="paint7_linear_89_28" x1="738.115" y1="847.085" x2="738.115" y2="855.843" gradientUnits="userSpaceOnUse">
<stop stop-color="#9D9D9C"/>
<stop offset="0.06" stop-color="#A8A8A7"/>
<stop offset="0.19" stop-color="#B8B8B8"/>
<stop offset="0.33" stop-color="#C2C2C2"/>
<stop offset="0.51" stop-color="#C6C6C6"/>
<stop offset="0.63" stop-color="#C1C1C1"/>
<stop offset="0.75" stop-color="#B5B5B5"/>
<stop offset="0.88" stop-color="#A0A0A0"/>
<stop offset="1" stop-color="#878787"/>
</linearGradient>
<linearGradient id="paint8_linear_89_28" x1="1406.84" y1="634.232" x2="1444.15" y2="634.232" gradientUnits="userSpaceOnUse">
<stop stop-color="#9D9D9C"/>
<stop offset="0.06" stop-color="#A8A8A7"/>
<stop offset="0.19" stop-color="#B8B8B8"/>
<stop offset="0.33" stop-color="#C2C2C2"/>
<stop offset="0.51" stop-color="#C6C6C6"/>
<stop offset="0.63" stop-color="#C1C1C1"/>
<stop offset="0.75" stop-color="#B5B5B5"/>
<stop offset="0.88" stop-color="#A0A0A0"/>
<stop offset="1" stop-color="#878787"/>
</linearGradient>
<linearGradient id="paint9_linear_89_28" x1="1397.52" y1="634.233" x2="1410.91" y2="634.233" gradientUnits="userSpaceOnUse">
<stop stop-color="#9D9D9C"/>
<stop offset="0.06" stop-color="#A8A8A7"/>
<stop offset="0.19" stop-color="#B8B8B8"/>
<stop offset="0.33" stop-color="#C2C2C2"/>
<stop offset="0.51" stop-color="#C6C6C6"/>
<stop offset="0.63" stop-color="#C1C1C1"/>
<stop offset="0.75" stop-color="#B5B5B5"/>
<stop offset="0.88" stop-color="#A0A0A0"/>
<stop offset="1" stop-color="#878787"/>
</linearGradient>
<linearGradient id="paint10_linear_89_28" x1="1406.84" y1="435.232" x2="1444.15" y2="435.232" gradientUnits="userSpaceOnUse">
<stop stop-color="#9D9D9C"/>
<stop offset="0.06" stop-color="#A8A8A7"/>
<stop offset="0.19" stop-color="#B8B8B8"/>
<stop offset="0.33" stop-color="#C2C2C2"/>
<stop offset="0.51" stop-color="#C6C6C6"/>
<stop offset="0.63" stop-color="#C1C1C1"/>
<stop offset="0.75" stop-color="#B5B5B5"/>
<stop offset="0.88" stop-color="#A0A0A0"/>
<stop offset="1" stop-color="#878787"/>
</linearGradient>
<linearGradient id="paint11_linear_89_28" x1="1397.52" y1="435.233" x2="1410.91" y2="435.233" gradientUnits="userSpaceOnUse">
<stop stop-color="#9D9D9C"/>
<stop offset="0.06" stop-color="#A8A8A7"/>
<stop offset="0.19" stop-color="#B8B8B8"/>
<stop offset="0.33" stop-color="#C2C2C2"/>
<stop offset="0.51" stop-color="#C6C6C6"/>
<stop offset="0.63" stop-color="#C1C1C1"/>
<stop offset="0.75" stop-color="#B5B5B5"/>
<stop offset="0.88" stop-color="#A0A0A0"/>
<stop offset="1" stop-color="#878787"/>
</linearGradient>
<linearGradient id="paint12_linear_89_28" x1="1404.84" y1="234.233" x2="1442.15" y2="234.233" gradientUnits="userSpaceOnUse">
<stop stop-color="#9D9D9C"/>
<stop offset="0.06" stop-color="#A8A8A7"/>
<stop offset="0.19" stop-color="#B8B8B8"/>
<stop offset="0.33" stop-color="#C2C2C2"/>
<stop offset="0.51" stop-color="#C6C6C6"/>
<stop offset="0.63" stop-color="#C1C1C1"/>
<stop offset="0.75" stop-color="#B5B5B5"/>
<stop offset="0.88" stop-color="#A0A0A0"/>
<stop offset="1" stop-color="#878787"/>
</linearGradient>
<linearGradient id="paint13_linear_89_28" x1="1395.52" y1="234.233" x2="1408.91" y2="234.233" gradientUnits="userSpaceOnUse">
<stop stop-color="#9D9D9C"/>
<stop offset="0.06" stop-color="#A8A8A7"/>
<stop offset="0.19" stop-color="#B8B8B8"/>
<stop offset="0.33" stop-color="#C2C2C2"/>
<stop offset="0.51" stop-color="#C6C6C6"/>
<stop offset="0.63" stop-color="#C1C1C1"/>
<stop offset="0.75" stop-color="#B5B5B5"/>
<stop offset="0.88" stop-color="#A0A0A0"/>
<stop offset="1" stop-color="#878787"/>
</linearGradient>
<linearGradient id="paint14_linear_89_28" x1="24.5199" y1="436.232" x2="61.8328" y2="436.232" gradientUnits="userSpaceOnUse">
<stop stop-color="#9D9D9C"/>
<stop offset="0.06" stop-color="#A8A8A7"/>
<stop offset="0.19" stop-color="#B8B8B8"/>
<stop offset="0.33" stop-color="#C2C2C2"/>
<stop offset="0.51" stop-color="#C6C6C6"/>
<stop offset="0.63" stop-color="#C1C1C1"/>
<stop offset="0.75" stop-color="#B5B5B5"/>
<stop offset="0.88" stop-color="#A0A0A0"/>
<stop offset="1" stop-color="#878787"/>
</linearGradient>
<linearGradient id="paint15_linear_89_28" x1="57.7627" y1="436.233" x2="71.1507" y2="436.233" gradientUnits="userSpaceOnUse">
<stop stop-color="#9D9D9C"/>
<stop offset="0.06" stop-color="#A8A8A7"/>
<stop offset="0.19" stop-color="#B8B8B8"/>
<stop offset="0.33" stop-color="#C2C2C2"/>
<stop offset="0.51" stop-color="#C6C6C6"/>
<stop offset="0.63" stop-color="#C1C1C1"/>
<stop offset="0.75" stop-color="#B5B5B5"/>
<stop offset="0.88" stop-color="#A0A0A0"/>
<stop offset="1" stop-color="#878787"/>
</linearGradient>
<linearGradient id="paint16_linear_89_28" x1="22.5199" y1="234.232" x2="59.8328" y2="234.232" gradientUnits="userSpaceOnUse">
<stop stop-color="#9D9D9C"/>
<stop offset="0.06" stop-color="#A8A8A7"/>
<stop offset="0.19" stop-color="#B8B8B8"/>
<stop offset="0.33" stop-color="#C2C2C2"/>
<stop offset="0.51" stop-color="#C6C6C6"/>
<stop offset="0.63" stop-color="#C1C1C1"/>
<stop offset="0.75" stop-color="#B5B5B5"/>
<stop offset="0.88" stop-color="#A0A0A0"/>
<stop offset="1" stop-color="#878787"/>
</linearGradient>
<linearGradient id="paint17_linear_89_28" x1="55.7627" y1="234.232" x2="69.1507" y2="234.232" gradientUnits="userSpaceOnUse">
<stop stop-color="#9D9D9C"/>
<stop offset="0.06" stop-color="#A8A8A7"/>
<stop offset="0.19" stop-color="#B8B8B8"/>
<stop offset="0.33" stop-color="#C2C2C2"/>
<stop offset="0.51" stop-color="#C6C6C6"/>
<stop offset="0.63" stop-color="#C1C1C1"/>
<stop offset="0.75" stop-color="#B5B5B5"/>
<stop offset="0.88" stop-color="#A0A0A0"/>
<stop offset="1" stop-color="#878787"/>
</linearGradient>
<linearGradient id="paint18_linear_89_28" x1="418.5" y1="41.731" x2="447.362" y2="41.731" gradientUnits="userSpaceOnUse">
<stop stop-color="#9D9D9C"/>
<stop offset="0.06" stop-color="#A8A8A7"/>
<stop offset="0.19" stop-color="#B8B8B8"/>
<stop offset="0.33" stop-color="#C2C2C2"/>
<stop offset="0.51" stop-color="#C6C6C6"/>
<stop offset="0.63" stop-color="#C1C1C1"/>
<stop offset="0.75" stop-color="#B5B5B5"/>
<stop offset="0.88" stop-color="#A0A0A0"/>
<stop offset="1" stop-color="#878787"/>
</linearGradient>
<linearGradient id="paint19_linear_89_28" x1="421.113" y1="63.2874" x2="444.759" y2="63.2874" gradientUnits="userSpaceOnUse">
<stop stop-color="#9D9D9C"/>
<stop offset="0.06" stop-color="#A8A8A7"/>
<stop offset="0.19" stop-color="#B8B8B8"/>
<stop offset="0.33" stop-color="#C2C2C2"/>
<stop offset="0.51" stop-color="#C6C6C6"/>
<stop offset="0.63" stop-color="#C1C1C1"/>
<stop offset="0.75" stop-color="#B5B5B5"/>
<stop offset="0.88" stop-color="#A0A0A0"/>
<stop offset="1" stop-color="#878787"/>
</linearGradient>
<linearGradient id="paint20_linear_89_28" x1="618.5" y1="41.731" x2="647.363" y2="41.731" gradientUnits="userSpaceOnUse">
<stop stop-color="#9D9D9C"/>
<stop offset="0.06" stop-color="#A8A8A7"/>
<stop offset="0.19" stop-color="#B8B8B8"/>
<stop offset="0.33" stop-color="#C2C2C2"/>
<stop offset="0.51" stop-color="#C6C6C6"/>
<stop offset="0.63" stop-color="#C1C1C1"/>
<stop offset="0.75" stop-color="#B5B5B5"/>
<stop offset="0.88" stop-color="#A0A0A0"/>
<stop offset="1" stop-color="#878787"/>
</linearGradient>
<linearGradient id="paint21_linear_89_28" x1="621.113" y1="63.2874" x2="644.759" y2="63.2874" gradientUnits="userSpaceOnUse">
<stop stop-color="#9D9D9C"/>
<stop offset="0.06" stop-color="#A8A8A7"/>
<stop offset="0.19" stop-color="#B8B8B8"/>
<stop offset="0.33" stop-color="#C2C2C2"/>
<stop offset="0.51" stop-color="#C6C6C6"/>
<stop offset="0.63" stop-color="#C1C1C1"/>
<stop offset="0.75" stop-color="#B5B5B5"/>
<stop offset="0.88" stop-color="#A0A0A0"/>
<stop offset="1" stop-color="#878787"/>
</linearGradient>
<linearGradient id="paint22_linear_89_28" x1="818.5" y1="41.731" x2="847.363" y2="41.731" gradientUnits="userSpaceOnUse">
<stop stop-color="#9D9D9C"/>
<stop offset="0.06" stop-color="#A8A8A7"/>
<stop offset="0.19" stop-color="#B8B8B8"/>
<stop offset="0.33" stop-color="#C2C2C2"/>
<stop offset="0.51" stop-color="#C6C6C6"/>
<stop offset="0.63" stop-color="#C1C1C1"/>
<stop offset="0.75" stop-color="#B5B5B5"/>
<stop offset="0.88" stop-color="#A0A0A0"/>
<stop offset="1" stop-color="#878787"/>
</linearGradient>
<linearGradient id="paint23_linear_89_28" x1="821.113" y1="63.2874" x2="844.759" y2="63.2874" gradientUnits="userSpaceOnUse">
<stop stop-color="#9D9D9C"/>
<stop offset="0.06" stop-color="#A8A8A7"/>
<stop offset="0.19" stop-color="#B8B8B8"/>
<stop offset="0.33" stop-color="#C2C2C2"/>
<stop offset="0.51" stop-color="#C6C6C6"/>
<stop offset="0.63" stop-color="#C1C1C1"/>
<stop offset="0.75" stop-color="#B5B5B5"/>
<stop offset="0.88" stop-color="#A0A0A0"/>
<stop offset="1" stop-color="#878787"/>
</linearGradient>
<linearGradient id="paint24_linear_89_28" x1="1018.5" y1="41.7302" x2="1047.36" y2="41.7302" gradientUnits="userSpaceOnUse">
<stop stop-color="#9D9D9C"/>
<stop offset="0.06" stop-color="#A8A8A7"/>
<stop offset="0.19" stop-color="#B8B8B8"/>
<stop offset="0.33" stop-color="#C2C2C2"/>
<stop offset="0.51" stop-color="#C6C6C6"/>
<stop offset="0.63" stop-color="#C1C1C1"/>
<stop offset="0.75" stop-color="#B5B5B5"/>
<stop offset="0.88" stop-color="#A0A0A0"/>
<stop offset="1" stop-color="#878787"/>
</linearGradient>
<linearGradient id="paint25_linear_89_28" x1="1021.11" y1="63.2972" x2="1044.76" y2="63.2972" gradientUnits="userSpaceOnUse">
<stop stop-color="#9D9D9C"/>
<stop offset="0.06" stop-color="#A8A8A7"/>
<stop offset="0.19" stop-color="#B8B8B8"/>
<stop offset="0.33" stop-color="#C2C2C2"/>
<stop offset="0.51" stop-color="#C6C6C6"/>
<stop offset="0.63" stop-color="#C1C1C1"/>
<stop offset="0.75" stop-color="#B5B5B5"/>
<stop offset="0.88" stop-color="#A0A0A0"/>
<stop offset="1" stop-color="#878787"/>
</linearGradient>
<linearGradient id="paint26_linear_89_28" x1="1218.5" y1="41.7408" x2="1247.36" y2="41.7408" gradientUnits="userSpaceOnUse">
<stop stop-color="#9D9D9C"/>
<stop offset="0.06" stop-color="#A8A8A7"/>
<stop offset="0.19" stop-color="#B8B8B8"/>
<stop offset="0.33" stop-color="#C2C2C2"/>
<stop offset="0.51" stop-color="#C6C6C6"/>
<stop offset="0.63" stop-color="#C1C1C1"/>
<stop offset="0.75" stop-color="#B5B5B5"/>
<stop offset="0.88" stop-color="#A0A0A0"/>
<stop offset="1" stop-color="#878787"/>
</linearGradient>
<linearGradient id="paint27_linear_89_28" x1="1221.11" y1="63.2982" x2="1244.76" y2="63.2982" gradientUnits="userSpaceOnUse">
<stop stop-color="#9D9D9C"/>
<stop offset="0.06" stop-color="#A8A8A7"/>
<stop offset="0.19" stop-color="#B8B8B8"/>
<stop offset="0.33" stop-color="#C2C2C2"/>
<stop offset="0.51" stop-color="#C6C6C6"/>
<stop offset="0.63" stop-color="#C1C1C1"/>
<stop offset="0.75" stop-color="#B5B5B5"/>
<stop offset="0.88" stop-color="#A0A0A0"/>
<stop offset="1" stop-color="#878787"/>
</linearGradient>
<linearGradient id="paint28_linear_89_28" x1="218.51" y1="41.731" x2="247.363" y2="41.731" gradientUnits="userSpaceOnUse">
<stop stop-color="#9D9D9C"/>
<stop offset="0.06" stop-color="#A8A8A7"/>
<stop offset="0.19" stop-color="#B8B8B8"/>
<stop offset="0.33" stop-color="#C2C2C2"/>
<stop offset="0.51" stop-color="#C6C6C6"/>
<stop offset="0.63" stop-color="#C1C1C1"/>
<stop offset="0.75" stop-color="#B5B5B5"/>
<stop offset="0.88" stop-color="#A0A0A0"/>
<stop offset="1" stop-color="#878787"/>
</linearGradient>
<linearGradient id="paint29_linear_89_28" x1="221.113" y1="63.2874" x2="244.759" y2="63.2874" gradientUnits="userSpaceOnUse">
<stop stop-color="#9D9D9C"/>
<stop offset="0.06" stop-color="#A8A8A7"/>
<stop offset="0.19" stop-color="#B8B8B8"/>
<stop offset="0.33" stop-color="#C2C2C2"/>
<stop offset="0.51" stop-color="#C6C6C6"/>
<stop offset="0.63" stop-color="#C1C1C1"/>
<stop offset="0.75" stop-color="#B5B5B5"/>
<stop offset="0.88" stop-color="#A0A0A0"/>
<stop offset="1" stop-color="#878787"/>
</linearGradient>
<linearGradient id="paint30_linear_89_28" x1="1018.5" y1="828.871" x2="1047.36" y2="828.871" gradientUnits="userSpaceOnUse">
<stop stop-color="#9D9D9C"/>
<stop offset="0.06" stop-color="#A8A8A7"/>
<stop offset="0.19" stop-color="#B8B8B8"/>
<stop offset="0.33" stop-color="#C2C2C2"/>
<stop offset="0.51" stop-color="#C6C6C6"/>
<stop offset="0.63" stop-color="#C1C1C1"/>
<stop offset="0.75" stop-color="#B5B5B5"/>
<stop offset="0.88" stop-color="#A0A0A0"/>
<stop offset="1" stop-color="#878787"/>
</linearGradient>
<linearGradient id="paint31_linear_89_28" x1="1021.11" y1="807.314" x2="1044.75" y2="807.314" gradientUnits="userSpaceOnUse">
<stop stop-color="#9D9D9C"/>
<stop offset="0.06" stop-color="#A8A8A7"/>
<stop offset="0.19" stop-color="#B8B8B8"/>
<stop offset="0.33" stop-color="#C2C2C2"/>
<stop offset="0.51" stop-color="#C6C6C6"/>
<stop offset="0.63" stop-color="#C1C1C1"/>
<stop offset="0.75" stop-color="#B5B5B5"/>
<stop offset="0.88" stop-color="#A0A0A0"/>
<stop offset="1" stop-color="#878787"/>
</linearGradient>
<linearGradient id="paint32_linear_89_28" x1="818.499" y1="826.871" x2="847.362" y2="826.871" gradientUnits="userSpaceOnUse">
<stop stop-color="#9D9D9C"/>
<stop offset="0.06" stop-color="#A8A8A7"/>
<stop offset="0.19" stop-color="#B8B8B8"/>
<stop offset="0.33" stop-color="#C2C2C2"/>
<stop offset="0.51" stop-color="#C6C6C6"/>
<stop offset="0.63" stop-color="#C1C1C1"/>
<stop offset="0.75" stop-color="#B5B5B5"/>
<stop offset="0.88" stop-color="#A0A0A0"/>
<stop offset="1" stop-color="#878787"/>
</linearGradient>
<linearGradient id="paint33_linear_89_28" x1="821.113" y1="805.314" x2="844.749" y2="805.314" gradientUnits="userSpaceOnUse">
<stop stop-color="#9D9D9C"/>
<stop offset="0.06" stop-color="#A8A8A7"/>
<stop offset="0.19" stop-color="#B8B8B8"/>
<stop offset="0.33" stop-color="#C2C2C2"/>
<stop offset="0.51" stop-color="#C6C6C6"/>
<stop offset="0.63" stop-color="#C1C1C1"/>
<stop offset="0.75" stop-color="#B5B5B5"/>
<stop offset="0.88" stop-color="#A0A0A0"/>
<stop offset="1" stop-color="#878787"/>
</linearGradient>
<linearGradient id="paint34_linear_89_28" x1="618.51" y1="826.871" x2="647.362" y2="826.871" gradientUnits="userSpaceOnUse">
<stop stop-color="#9D9D9C"/>
<stop offset="0.06" stop-color="#A8A8A7"/>
<stop offset="0.19" stop-color="#B8B8B8"/>
<stop offset="0.33" stop-color="#C2C2C2"/>
<stop offset="0.51" stop-color="#C6C6C6"/>
<stop offset="0.63" stop-color="#C1C1C1"/>
<stop offset="0.75" stop-color="#B5B5B5"/>
<stop offset="0.88" stop-color="#A0A0A0"/>
<stop offset="1" stop-color="#878787"/>
</linearGradient>
<linearGradient id="paint35_linear_89_28" x1="621.113" y1="805.314" x2="644.759" y2="805.314" gradientUnits="userSpaceOnUse">
<stop stop-color="#9D9D9C"/>
<stop offset="0.06" stop-color="#A8A8A7"/>
<stop offset="0.19" stop-color="#B8B8B8"/>
<stop offset="0.33" stop-color="#C2C2C2"/>
<stop offset="0.51" stop-color="#C6C6C6"/>
<stop offset="0.63" stop-color="#C1C1C1"/>
<stop offset="0.75" stop-color="#B5B5B5"/>
<stop offset="0.88" stop-color="#A0A0A0"/>
<stop offset="1" stop-color="#878787"/>
</linearGradient>
<linearGradient id="paint36_linear_89_28" x1="418.5" y1="826.882" x2="447.362" y2="826.882" gradientUnits="userSpaceOnUse">
<stop stop-color="#9D9D9C"/>
<stop offset="0.06" stop-color="#A8A8A7"/>
<stop offset="0.19" stop-color="#B8B8B8"/>
<stop offset="0.33" stop-color="#C2C2C2"/>
<stop offset="0.51" stop-color="#C6C6C6"/>
<stop offset="0.63" stop-color="#C1C1C1"/>
<stop offset="0.75" stop-color="#B5B5B5"/>
<stop offset="0.88" stop-color="#A0A0A0"/>
<stop offset="1" stop-color="#878787"/>
</linearGradient>
<linearGradient id="paint37_linear_89_28" x1="421.113" y1="805.315" x2="444.749" y2="805.315" gradientUnits="userSpaceOnUse">
<stop stop-color="#9D9D9C"/>
<stop offset="0.06" stop-color="#A8A8A7"/>
<stop offset="0.19" stop-color="#B8B8B8"/>
<stop offset="0.33" stop-color="#C2C2C2"/>
<stop offset="0.51" stop-color="#C6C6C6"/>
<stop offset="0.63" stop-color="#C1C1C1"/>
<stop offset="0.75" stop-color="#B5B5B5"/>
<stop offset="0.88" stop-color="#A0A0A0"/>
<stop offset="1" stop-color="#878787"/>
</linearGradient>
<linearGradient id="paint38_linear_89_28" x1="218.5" y1="826.882" x2="247.362" y2="826.882" gradientUnits="userSpaceOnUse">
<stop stop-color="#9D9D9C"/>
<stop offset="0.06" stop-color="#A8A8A7"/>
<stop offset="0.19" stop-color="#B8B8B8"/>
<stop offset="0.33" stop-color="#C2C2C2"/>
<stop offset="0.51" stop-color="#C6C6C6"/>
<stop offset="0.63" stop-color="#C1C1C1"/>
<stop offset="0.75" stop-color="#B5B5B5"/>
<stop offset="0.88" stop-color="#A0A0A0"/>
<stop offset="1" stop-color="#878787"/>
</linearGradient>
<linearGradient id="paint39_linear_89_28" x1="221.113" y1="805.315" x2="244.749" y2="805.315" gradientUnits="userSpaceOnUse">
<stop stop-color="#9D9D9C"/>
<stop offset="0.06" stop-color="#A8A8A7"/>
<stop offset="0.19" stop-color="#B8B8B8"/>
<stop offset="0.33" stop-color="#C2C2C2"/>
<stop offset="0.51" stop-color="#C6C6C6"/>
<stop offset="0.63" stop-color="#C1C1C1"/>
<stop offset="0.75" stop-color="#B5B5B5"/>
<stop offset="0.88" stop-color="#A0A0A0"/>
<stop offset="1" stop-color="#878787"/>
</linearGradient>
<linearGradient id="paint40_linear_89_28" x1="1218.5" y1="826.871" x2="1247.36" y2="826.871" gradientUnits="userSpaceOnUse">
<stop stop-color="#9D9D9C"/>
<stop offset="0.06" stop-color="#A8A8A7"/>
<stop offset="0.19" stop-color="#B8B8B8"/>
<stop offset="0.33" stop-color="#C2C2C2"/>
<stop offset="0.51" stop-color="#C6C6C6"/>
<stop offset="0.63" stop-color="#C1C1C1"/>
<stop offset="0.75" stop-color="#B5B5B5"/>
<stop offset="0.88" stop-color="#A0A0A0"/>
<stop offset="1" stop-color="#878787"/>
</linearGradient>
<linearGradient id="paint41_linear_89_28" x1="1221.11" y1="805.314" x2="1244.75" y2="805.314" gradientUnits="userSpaceOnUse">
<stop stop-color="#9D9D9C"/>
<stop offset="0.06" stop-color="#A8A8A7"/>
<stop offset="0.19" stop-color="#B8B8B8"/>
<stop offset="0.33" stop-color="#C2C2C2"/>
<stop offset="0.51" stop-color="#C6C6C6"/>
<stop offset="0.63" stop-color="#C1C1C1"/>
<stop offset="0.75" stop-color="#B5B5B5"/>
<stop offset="0.88" stop-color="#A0A0A0"/>
<stop offset="1" stop-color="#878787"/>
</linearGradient>
<linearGradient id="paint42_linear_89_28" x1="25.5199" y1="636.233" x2="62.8327" y2="636.233" gradientUnits="userSpaceOnUse">
<stop stop-color="#9D9D9C"/>
<stop offset="0.06" stop-color="#A8A8A7"/>
<stop offset="0.19" stop-color="#B8B8B8"/>
<stop offset="0.33" stop-color="#C2C2C2"/>
<stop offset="0.51" stop-color="#C6C6C6"/>
<stop offset="0.63" stop-color="#C1C1C1"/>
<stop offset="0.75" stop-color="#B5B5B5"/>
<stop offset="0.88" stop-color="#A0A0A0"/>
<stop offset="1" stop-color="#878787"/>
</linearGradient>
<linearGradient id="paint43_linear_89_28" x1="58.7627" y1="636.233" x2="72.1507" y2="636.233" gradientUnits="userSpaceOnUse">
<stop stop-color="#9D9D9C"/>
<stop offset="0.06" stop-color="#A8A8A7"/>
<stop offset="0.19" stop-color="#B8B8B8"/>
<stop offset="0.33" stop-color="#C2C2C2"/>
<stop offset="0.51" stop-color="#C6C6C6"/>
<stop offset="0.63" stop-color="#C1C1C1"/>
<stop offset="0.75" stop-color="#B5B5B5"/>
<stop offset="0.88" stop-color="#A0A0A0"/>
<stop offset="1" stop-color="#878787"/>
</linearGradient>
</defs>
</svg>
