<?xml version="1.0" encoding="UTF-8"?>
<svg id="Capa_1" xmlns="http://www.w3.org/2000/svg" version="1.1" viewBox="0 0 64 64">
  <!-- Generator: Adobe Illustrator 29.8.1, SVG Export Plug-In . SVG Version: 2.1.1 Build 2)  -->
  <defs>
    <style>
      .st0 {
        fill: #fff;
      }
    </style>
  </defs>
  <path class="st0" d="M43.59,29.01c0,6.4-5.18,11.59-11.58,11.59-.88,0-1.72-.12-2.53-.31-.07-.01-.13-.02-.2-.03-.17-.03-.33-.07-.49-.12-4.83-1.4-8.38-5.85-8.38-11.14,0-6.4,5.19-11.58,11.59-11.58,1.6,0,3.12.33,4.51.91,4.16,1.76,7.08,5.87,7.08,10.67Z"/>
  <path class="st0" d="M51.44,12.56c-5.16-5.15-12.14-8.05-19.44-8.06-5.44,0-10.76,1.61-15.27,4.63-4.53,3.03-8.05,7.32-10.13,12.34s-2.62,10.56-1.57,15.89c1.06,5.33,3.68,10.24,7.53,14.08.14.14.29.27.42.41,3.78,3.63,8.51,6.1,13.66,7.12,5.33,1.06,10.86.52,15.89-1.57,3-1.25,5.75-3,8.11-5.19,1.6-1.47,3.01-3.12,4.23-4.94,3.03-4.52,4.63-9.84,4.63-15.27-.01-7.3-2.91-14.28-8.06-19.44ZM49.38,47.44c-1.53-2.23-3.49-4.15-5.75-5.64-.2-.13-.42-.18-.66-.17-.23,0-.45.11-.62.25-2.88,2.49-6.55,3.86-10.35,3.86-3.56,0-7.01-1.21-9.79-3.41-.01,0-.02-.01-.03-.02-.05-.04-.1-.08-.14-.12-.13-.11-.25-.21-.38-.32-.18-.15-.39-.24-.62-.25-.23-.01-.47.04-.66.17-2.26,1.49-4.21,3.41-5.75,5.64-3.78-4.23-5.87-9.71-5.88-15.38-.03-12.46,9.9-22.84,22.35-23.31,3.13-.13,6.25.39,9.18,1.5,2.93,1.11,5.61,2.8,7.86,4.98,2.26,2.17,4.06,4.77,5.29,7.65,1.23,2.89,1.86,5.99,1.86,9.12,0,5.69-2.09,11.19-5.89,15.44Z"/>
</svg>